<svg viewBox="0 0 16 16" xmlns="http://www.w3.org/2000/svg" xmlns:xlink="http://www.w3.org/1999/xlink" width="16.000000" height="16.000000" fill="none" customFrame="#000000">
	<path id="Vector" d="M1.77778 0C0.791111 0 0 0.791111 0 1.77778L0 14.2222C3.94746e-16 14.6937 0.187301 15.1459 0.520699 15.4793C0.854097 15.8127 1.30628 16 1.77778 16L14.2222 16C14.6937 16 15.1459 15.8127 15.4793 15.4793C15.8127 15.1459 16 14.6937 16 14.2222L16 8L14.2222 8L14.2222 14.2222L1.77778 14.2222L1.77778 1.77778L8 1.77778L8 0L1.77778 0ZM13.1378 0.888889C12.9867 0.888889 12.8267 0.951111 12.7111 1.06667L11.6267 2.14222L13.8489 4.36444L14.9333 3.28889C15.1644 3.05778 15.1644 2.66667 14.9333 2.44444L13.5556 1.06667C13.44 0.951111 13.2889 0.888889 13.1378 0.888889ZM10.9956 2.77333L4.44444 9.33333L4.44444 11.5556L6.66667 11.5556L13.2178 4.99556L10.9956 2.77333Z" fill="rgb(255,255,255)" fill-rule="nonzero" />
</svg>
