<svg width="64" height="40" viewBox="0 0 64 40" fill="none" xmlns="http://www.w3.org/2000/svg">
<path d="M23.6502 11.3792L22.4306 11.202L21.8854 10.0973C21.7787 9.88065 21.5624 9.74609 21.3208 9.74609C21.0795 9.74609 20.8633 9.88053 20.7564 10.097L20.2109 11.202L18.9917 11.3792C18.7561 11.4133 18.5565 11.5816 18.4831 11.8083C18.409 12.0378 18.4702 12.2848 18.6427 12.4527L19.5251 13.313L19.3167 14.5279C19.2763 14.7651 19.3719 15.0006 19.567 15.1431C19.6751 15.2217 19.8032 15.2633 19.937 15.2633C20.0387 15.2633 20.1398 15.2384 20.2301 15.191L21.3208 14.6176L22.4118 15.1911C22.5015 15.2383 22.6028 15.2632 22.7044 15.2632C22.8383 15.2632 22.9662 15.2217 23.0756 15.1424C23.2696 15.0006 23.3652 14.7653 23.3249 14.5274L23.1165 13.3129L23.9986 12.4529C24.1718 12.2844 24.2329 12.037 24.1581 11.8072C24.0833 11.5777 23.8886 11.4137 23.6502 11.3792ZM22.2926 12.8178C22.183 12.9246 22.1331 13.0785 22.1589 13.2293L22.3057 14.0852L21.5372 13.6812C21.4694 13.6456 21.3952 13.6278 21.3209 13.6278C21.2466 13.6278 21.1722 13.6456 21.1046 13.6812L20.3361 14.0852L20.4828 13.2293C20.5087 13.0785 20.4587 12.9246 20.3492 12.8178L19.7274 12.2117L20.5866 12.0868C20.738 12.0648 20.8689 11.9697 20.9366 11.8325L21.3209 11.0539L21.7052 11.8325C21.773 11.9697 21.9038 12.0648 22.0551 12.0868L22.9144 12.2117L22.2926 12.8178Z" fill="white" fill-opacity="0.5"/>
<path d="M21.3213 9.69629C21.5817 9.69646 21.8156 9.84159 21.9307 10.0752L22.4639 11.1553L23.6572 11.3301C23.9145 11.3672 24.1254 11.5445 24.2061 11.792C24.2866 12.0399 24.2198 12.3066 24.0332 12.4883L23.1699 13.3301L23.374 14.5186C23.4175 14.775 23.3147 15.0296 23.1055 15.1826H23.1045C22.9867 15.2681 22.8485 15.3135 22.7041 15.3135C22.5945 15.3134 22.4855 15.2862 22.3887 15.2354L21.3203 14.6738L20.2529 15.2354C20.1557 15.2863 20.0469 15.3134 19.9375 15.3135C19.7931 15.3135 19.6538 15.2684 19.5371 15.1836C19.3269 15.03 19.224 14.7754 19.2676 14.5195L19.4707 13.3301L18.6074 12.4883C18.4216 12.3071 18.3556 12.0404 18.4355 11.793C18.5148 11.5482 18.73 11.367 18.9844 11.3301L20.1768 11.1553L20.7119 10.0752C20.8272 9.84173 21.0609 9.69629 21.3213 9.69629ZM20.9814 11.8545C20.9064 12.0065 20.7614 12.1123 20.5938 12.1367L19.834 12.2461L20.3838 12.7822C20.505 12.9004 20.5607 13.0705 20.5322 13.2373L20.4023 13.9932L21.0811 13.6367C21.156 13.5973 21.239 13.5781 21.3213 13.5781C21.4034 13.5782 21.4856 13.5974 21.5605 13.6367L22.2393 13.9932L22.1094 13.2373C22.0809 13.0704 22.1365 12.9004 22.2578 12.7822L22.8066 12.2461L22.0479 12.1367C21.8802 12.1123 21.7352 12.0064 21.6602 11.8545L21.3203 11.167L20.9814 11.8545Z" stroke="white" stroke-opacity="0.5" stroke-width="0.1"/>
<path d="M40.9557 19.3297C39.9064 19.3297 39.0527 20.1834 39.0527 21.2327C39.0527 22.282 39.9064 23.1356 40.9557 23.1356C42.005 23.1356 42.8586 22.282 42.8586 21.2327C42.8586 20.1834 42.005 19.3297 40.9557 19.3297ZM40.9557 22.2059C40.419 22.2059 39.9824 21.7693 39.9824 21.2327C39.9824 20.6959 40.419 20.2593 40.9557 20.2593C41.4924 20.2593 41.929 20.6959 41.929 21.2327C41.929 21.7694 41.4924 22.2059 40.9557 22.2059Z" fill="white" fill-opacity="0.5"/>
<path d="M40.9561 19.2799C42.0327 19.2801 42.9082 20.1562 42.9082 21.233C42.908 22.3097 42.0327 23.185 40.9561 23.1852C39.8792 23.1852 39.0031 22.3098 39.0029 21.233C39.0029 20.1561 39.8791 19.2799 40.9561 19.2799ZM40.9561 20.3092C40.447 20.3092 40.0322 20.7239 40.0322 21.233C40.0324 21.7419 40.4471 22.1559 40.9561 22.1559C41.4648 22.1557 41.8787 21.7418 41.8789 21.233C41.8789 20.724 41.4649 20.3094 40.9561 20.3092Z" stroke="white" stroke-opacity="0.5" stroke-width="0.1"/>
<path d="M39.9501 3.37036C40.5048 3.37036 40.9545 2.92071 40.9545 2.36603C40.9545 1.81135 40.5048 1.36169 39.9501 1.36169C39.3955 1.36169 38.9458 1.81135 38.9458 2.36603C38.9458 2.92071 39.3955 3.37036 39.9501 3.37036Z" fill="white" fill-opacity="0.5"/>
<path d="M39.9497 1.26208C40.5595 1.26208 41.054 1.75589 41.0542 2.3656C41.0542 2.97551 40.5596 3.47009 39.9497 3.47009C39.34 3.46986 38.8462 2.97536 38.8462 2.3656C38.8464 1.75603 39.3401 1.26232 39.9497 1.26208Z" stroke="white" stroke-opacity="0.5" stroke-width="0.2"/>
<path d="M43.9226 9.63721C43.0872 9.63721 42.3343 9.99645 41.8098 10.5683L34.7088 5.927C34.8662 5.57245 34.9542 5.18069 34.9542 4.76847C34.9542 3.18739 33.6679 1.90106 32.0868 1.90106C30.8124 1.90106 29.73 2.73698 29.3579 3.88922L22.9439 2.92723C22.9223 1.36469 21.6451 0.0999756 20.0774 0.0999756C18.4963 0.0999756 17.21 1.3863 17.21 2.96733C17.21 4.54847 18.4963 5.83479 20.0774 5.83479C21.3518 5.83479 22.4342 4.99887 22.8064 3.84664L29.2205 4.80857C29.2403 6.24476 30.321 7.42842 31.7129 7.61063L31.9069 9.30594C31.934 9.54304 32.1351 9.71798 32.368 9.71798C32.3857 9.71798 32.4036 9.717 32.4215 9.71492C32.6765 9.68574 32.8596 9.45534 32.8304 9.20027L32.6451 7.58077C33.2544 7.45996 33.7949 7.14567 34.1994 6.70463L41.3004 11.346C41.1431 11.7006 41.055 12.0925 41.055 12.5047C41.055 13.0491 41.2076 13.5586 41.4722 13.9926L35.5844 19.0394C35.1187 18.6473 34.5274 18.4 33.88 18.3687L33.0049 10.7235C32.9757 10.4685 32.7444 10.2854 32.4903 10.3146C32.2353 10.3438 32.0521 10.5742 32.0813 10.8292L32.9564 18.4748C31.7551 18.8167 30.8723 19.9231 30.8723 21.2326C30.8723 22.8137 32.1587 24.1 33.7398 24.1C35.3209 24.1 36.6073 22.8137 36.6073 21.2326C36.6073 20.6882 36.4547 20.1787 36.19 19.7446L42.0779 14.6978C42.5769 15.1181 43.2204 15.372 43.9224 15.372C45.5035 15.372 46.7898 14.0858 46.7898 12.5047C46.7899 10.9236 45.5036 9.63721 43.9226 9.63721ZM20.0774 4.90516C19.0089 4.90516 18.1396 4.03585 18.1396 2.96733C18.1396 1.89887 19.0088 1.02955 20.0774 1.02955C21.1459 1.02955 22.0153 1.89887 22.0153 2.96733C22.0152 4.0359 21.1459 4.90516 20.0774 4.90516ZM32.0868 6.70619C31.0184 6.70619 30.1491 5.83688 30.1491 4.76841C30.1491 3.69995 31.0183 2.83064 32.0868 2.83064C33.1552 2.83064 34.0246 3.69995 34.0246 4.76841C34.0246 5.83693 33.1553 6.70619 32.0868 6.70619ZM33.7399 23.1705C32.6714 23.1705 31.802 22.3013 31.802 21.2327C31.802 20.1642 32.6713 19.2949 33.7399 19.2949C34.8084 19.2949 35.6778 20.1642 35.6778 21.2327C35.6777 22.3011 34.8084 23.1705 33.7399 23.1705ZM43.9226 14.4425C42.8541 14.4425 41.9847 13.5733 41.9847 12.5047C41.9847 11.4362 42.854 10.5668 43.9226 10.5668C44.9911 10.5668 45.8604 11.4362 45.8604 12.5047C45.8603 13.5732 44.9911 14.4425 43.9226 14.4425Z" fill="white" fill-opacity="0.5"/>
<path d="M20.0771 0.0501709C21.6576 0.0501709 22.9464 1.31341 22.9912 2.88318L29.3242 3.83337C29.7149 2.6822 30.8051 1.85095 32.0869 1.85095C33.6956 1.85102 35.0039 3.16026 35.0039 4.76892C35.0038 5.17302 34.9198 5.55738 34.7705 5.90759L41.8027 10.5043C42.3349 9.94061 43.0881 9.58728 43.9229 9.58728C45.5312 9.58742 46.8398 10.8958 46.8398 12.5043C46.8398 14.1128 45.5313 15.422 43.9229 15.4222C43.2236 15.4222 42.5821 15.1727 42.0791 14.7611L36.2529 19.7552C36.5089 20.189 36.6572 20.6938 36.6572 21.2328C36.6571 22.8413 35.3487 24.1495 33.7402 24.1498C32.1316 24.1498 30.8224 22.8414 30.8223 21.2328C30.8223 19.9155 31.7005 18.8011 32.9014 18.4398L32.0312 10.8353C31.9989 10.553 32.202 10.2974 32.4844 10.265C32.7659 10.2327 33.0224 10.4356 33.0547 10.7181L33.9248 18.3217C34.5517 18.361 35.1239 18.6005 35.582 18.975L41.4082 13.9808C41.1527 13.5474 41.0049 13.0427 41.0049 12.5043C41.0049 12.1 41.0888 11.715 41.2383 11.3646L34.2061 6.76794C33.8079 7.18971 33.2868 7.49338 32.6992 7.61951L32.8799 9.1947C32.9121 9.47716 32.7092 9.7327 32.4268 9.76501C32.4071 9.76728 32.3875 9.76794 32.3682 9.76794C32.1102 9.76794 31.8876 9.57437 31.8574 9.31189L31.667 7.65271C30.2834 7.45216 29.2128 6.2798 29.1729 4.85095L22.8379 3.90173C22.4472 5.05292 21.3589 5.88513 20.0771 5.88513C18.4686 5.88501 17.1602 4.57585 17.1602 2.96716C17.1602 1.35869 18.4686 0.050323 20.0771 0.0501709ZM33.7402 19.3451C32.6993 19.3451 31.8516 20.1919 31.8516 21.2328C31.8516 22.2737 32.6993 23.1205 33.7402 23.1205C34.781 23.1203 35.6278 22.2735 35.6279 21.2328C35.6279 20.192 34.7809 19.3453 33.7402 19.3451ZM43.9229 10.6166C42.882 10.6166 42.0354 11.4636 42.0352 12.5043C42.0352 13.5452 42.8819 14.3929 43.9229 14.3929C44.9636 14.3928 45.8105 13.545 45.8105 12.5043C45.8103 11.4636 44.9634 10.6167 43.9229 10.6166ZM32.0869 2.88025C31.0462 2.88025 30.1995 3.72731 30.1992 4.76794C30.1992 5.80879 31.0461 6.65662 32.0869 6.65662C33.1278 6.65655 33.9746 5.80881 33.9746 4.76794C33.9744 3.72735 33.1275 2.88032 32.0869 2.88025ZM20.0771 1.07947C19.0363 1.07959 18.1895 1.92646 18.1895 2.96716C18.1895 4.008 19.0363 4.85474 20.0771 4.85486C21.1181 4.85486 21.9648 4.00813 21.9648 2.96716C21.9648 1.92639 21.1181 1.07947 20.0771 1.07947Z" stroke="white" stroke-opacity="0.5" stroke-width="0.1"/>
<path d="M5.59268 33.1738H4.70632C4.67223 32.9844 4.60878 32.8178 4.51598 32.6738C4.42318 32.5299 4.30954 32.4077 4.17507 32.3074C4.0406 32.207 3.89003 32.1312 3.72337 32.0801C3.55859 32.029 3.3834 32.0034 3.1978 32.0034C2.86257 32.0034 2.56238 32.0877 2.29723 32.2562C2.03397 32.4248 1.82564 32.6719 1.67223 32.9977C1.52071 33.3235 1.44496 33.7212 1.44496 34.1909C1.44496 34.6644 1.52071 35.064 1.67223 35.3897C1.82564 35.7155 2.03492 35.9617 2.30007 36.1284C2.56522 36.2951 2.86352 36.3784 3.19496 36.3784C3.37867 36.3784 3.55291 36.3538 3.71768 36.3045C3.88435 36.2534 4.03492 36.1786 4.16939 36.0801C4.30386 35.9816 4.4175 35.8613 4.5103 35.7193C4.605 35.5754 4.67034 35.4106 4.70632 35.225L5.59268 35.2278C5.54534 35.5138 5.45348 35.7771 5.31712 36.0176C5.18265 36.2562 5.00935 36.4627 4.79723 36.6369C4.587 36.8093 4.34647 36.9428 4.07564 37.0375C3.80481 37.1322 3.50935 37.1795 3.18928 37.1795C2.68549 37.1795 2.23662 37.0602 1.84268 36.8216C1.44875 36.581 1.13814 36.2373 0.910866 35.7903C0.685488 35.3433 0.572798 34.8102 0.572798 34.1909C0.572798 33.5697 0.686435 33.0365 0.913707 32.5915C1.14098 32.1445 1.45159 31.8017 1.84553 31.563C2.23947 31.3225 2.68738 31.2022 3.18928 31.2022C3.49799 31.2022 3.78587 31.2468 4.05291 31.3358C4.32185 31.4229 4.56333 31.5517 4.77734 31.7221C4.99136 31.8907 5.16844 32.0971 5.30859 32.3415C5.44875 32.5839 5.54344 32.8613 5.59268 33.1738ZM8.413 37.188C8.00391 37.188 7.6469 37.0943 7.34197 36.9068C7.03705 36.7193 6.80031 36.457 6.63175 36.1199C6.46319 35.7827 6.37891 35.3888 6.37891 34.938C6.37891 34.4854 6.46319 34.0896 6.63175 33.7505C6.80031 33.4115 7.03705 33.1483 7.34197 32.9608C7.6469 32.7733 8.00391 32.6795 8.413 32.6795C8.82209 32.6795 9.1791 32.7733 9.48402 32.9608C9.78894 33.1483 10.0257 33.4115 10.1942 33.7505C10.3628 34.0896 10.4471 34.4854 10.4471 34.938C10.4471 35.3888 10.3628 35.7827 10.1942 36.1199C10.0257 36.457 9.78894 36.7193 9.48402 36.9068C9.1791 37.0943 8.82209 37.188 8.413 37.188ZM8.41584 36.475C8.68099 36.475 8.90069 36.4049 9.07493 36.2647C9.24917 36.1246 9.37796 35.938 9.46129 35.7051C9.54652 35.4721 9.58913 35.2155 9.58913 34.9352C9.58913 34.6568 9.54652 34.4011 9.46129 34.1682C9.37796 33.9333 9.24917 33.7449 9.07493 33.6028C8.90069 33.4608 8.68099 33.3897 8.41584 33.3897C8.14879 33.3897 7.9272 33.4608 7.75107 33.6028C7.57682 33.7449 7.44709 33.9333 7.36186 34.1682C7.27853 34.4011 7.23686 34.6568 7.23686 34.9352C7.23686 35.2155 7.27853 35.4721 7.36186 35.7051C7.44709 35.938 7.57682 36.1246 7.75107 36.2647C7.9272 36.4049 8.14879 36.475 8.41584 36.475ZM11.3952 37.1V32.7363H13.2049C13.6973 32.7363 14.0875 32.8415 14.3754 33.0517C14.6632 33.26 14.8072 33.5432 14.8072 33.9011C14.8072 34.1568 14.7257 34.3594 14.5629 34.5091C14.4 34.6587 14.1841 34.7591 13.9151 34.8102C14.1102 34.8329 14.2892 34.8916 14.4521 34.9863C14.6149 35.0791 14.7456 35.2041 14.8441 35.3613C14.9445 35.5185 14.9947 35.706 14.9947 35.9238C14.9947 36.1549 14.935 36.3594 14.8157 36.5375C14.6964 36.7136 14.5231 36.8519 14.2958 36.9522C14.0704 37.0507 13.7987 37.1 13.4805 37.1H11.3952ZM12.1935 36.3897H13.4805C13.6907 36.3897 13.8555 36.3396 13.9748 36.2392C14.0941 36.1388 14.1538 36.0024 14.1538 35.8301C14.1538 35.6274 14.0941 35.4683 13.9748 35.3528C13.8555 35.2354 13.6907 35.1767 13.4805 35.1767H12.1935V36.3897ZM12.1935 34.5545H13.2134C13.3725 34.5545 13.5089 34.5318 13.6225 34.4863C13.738 34.4409 13.8261 34.3765 13.8867 34.2932C13.9492 34.2079 13.9805 34.1076 13.9805 33.992C13.9805 33.8235 13.9113 33.6918 13.7731 33.5971C13.6348 33.5024 13.4454 33.4551 13.2049 33.4551H12.1935V34.5545ZM18.3754 36.0488L19.7844 32.7363H20.5174L18.6907 37.1H18.06L16.2702 32.7363H16.9947L18.3754 36.0488ZM16.7589 32.7363V37.1H15.9265V32.7363H16.7589ZM20.0146 37.1V32.7363H20.8413V37.1H20.0146ZM23.854 37.188C23.4241 37.188 23.0539 37.0962 22.7433 36.9125C22.4345 36.7269 22.1959 36.4665 22.0273 36.1312C21.8607 35.7941 21.7773 35.3992 21.7773 34.9466C21.7773 34.4996 21.8607 34.1057 22.0273 33.7647C22.1959 33.4238 22.4308 33.1577 22.7319 32.9665C23.0349 32.7752 23.3891 32.6795 23.7944 32.6795C24.0406 32.6795 24.2792 32.7202 24.5103 32.8017C24.7414 32.8831 24.9487 33.011 25.1325 33.1852C25.3162 33.3594 25.4611 33.5858 25.5671 33.8642C25.6732 34.1407 25.7262 34.4769 25.7262 34.8727V35.1738H22.2575V34.5375H24.8938C24.8938 34.314 24.8484 34.1161 24.7575 33.9437C24.6665 33.7695 24.5387 33.6322 24.3739 33.5318C24.2111 33.4314 24.0198 33.3812 23.8001 33.3812C23.5614 33.3812 23.3531 33.4399 23.1751 33.5574C22.9989 33.6729 22.8626 33.8244 22.766 34.0119C22.6713 34.1975 22.6239 34.3992 22.6239 34.617V35.1142C22.6239 35.4058 22.6751 35.654 22.7773 35.8585C22.8815 36.063 23.0264 36.2193 23.212 36.3272C23.3976 36.4333 23.6145 36.4863 23.8626 36.4863C24.0236 36.4863 24.1703 36.4636 24.3029 36.4182C24.4355 36.3708 24.5501 36.3007 24.6467 36.2079C24.7433 36.1151 24.8171 36.0005 24.8683 35.8642L25.6722 36.0091C25.6078 36.2458 25.4923 36.4532 25.3256 36.6312C25.1609 36.8074 24.9535 36.9447 24.7035 37.0432C24.4554 37.1397 24.1722 37.188 23.854 37.188ZM28.5067 37.188C28.0844 37.188 27.7208 37.0924 27.4158 36.9011C27.1128 36.7079 26.8799 36.4418 26.717 36.1028C26.5541 35.7638 26.4727 35.3755 26.4727 34.938C26.4727 34.4949 26.556 34.1038 26.7227 33.7647C26.8893 33.4238 27.1242 33.1577 27.4272 32.9665C27.7302 32.7752 28.0872 32.6795 28.4982 32.6795C28.8297 32.6795 29.1251 32.7411 29.3846 32.8642C29.6441 32.9854 29.8533 33.1558 30.0124 33.3755C30.1734 33.5952 30.2691 33.8519 30.2994 34.1454H29.4727C29.4272 33.9409 29.323 33.7647 29.1602 33.617C28.9992 33.4693 28.7833 33.3954 28.5124 33.3954C28.2757 33.3954 28.0683 33.4579 27.8903 33.5829C27.7141 33.706 27.5768 33.8822 27.4783 34.1113C27.3799 34.3386 27.3306 34.6076 27.3306 34.9182C27.3306 35.2363 27.3789 35.511 27.4755 35.742C27.5721 35.9731 27.7085 36.1521 27.8846 36.279C28.0626 36.4058 28.2719 36.4693 28.5124 36.4693C28.6734 36.4693 28.8192 36.4399 28.9499 36.3812C29.0825 36.3206 29.1933 36.2344 29.2823 36.1227C29.3732 36.011 29.4367 35.8765 29.4727 35.7193H30.2994C30.2691 36.0015 30.1772 36.2534 30.0238 36.475C29.8704 36.6966 29.6649 36.8708 29.4073 36.9977C29.1516 37.1246 28.8514 37.188 28.5067 37.188ZM30.8775 33.4693V32.7363H34.5593V33.4693H33.136V37.1H32.3065V33.4693H30.8775ZM36.2901 35.9096L38.2134 32.7363H39.1282V37.1H38.2958V33.9238L36.381 37.1H35.4577V32.7363H36.2901V35.9096ZM42.7191 36.0488L44.1282 32.7363H44.8612L43.0344 37.1H42.4038L40.614 32.7363H41.3384L42.7191 36.0488ZM41.1026 32.7363V37.1H40.2702V32.7363H41.1026ZM44.3583 37.1V32.7363H45.185V37.1H44.3583ZM48.1552 37.188C47.7461 37.188 47.3891 37.0943 47.0842 36.9068C46.7792 36.7193 46.5425 36.457 46.3739 36.1199C46.2054 35.7827 46.1211 35.3888 46.1211 34.938C46.1211 34.4854 46.2054 34.0896 46.3739 33.7505C46.5425 33.4115 46.7792 33.1483 47.0842 32.9608C47.3891 32.7733 47.7461 32.6795 48.1552 32.6795C48.5643 32.6795 48.9213 32.7733 49.2262 32.9608C49.5311 33.1483 49.7679 33.4115 49.9364 33.7505C50.105 34.0896 50.1893 34.4854 50.1893 34.938C50.1893 35.3888 50.105 35.7827 49.9364 36.1199C49.7679 36.457 49.5311 36.7193 49.2262 36.9068C48.9213 37.0943 48.5643 37.188 48.1552 37.188ZM48.158 36.475C48.4232 36.475 48.6429 36.4049 48.8171 36.2647C48.9914 36.1246 49.1201 35.938 49.2035 35.7051C49.2887 35.4721 49.3313 35.2155 49.3313 34.9352C49.3313 34.6568 49.2887 34.4011 49.2035 34.1682C49.1201 33.9333 48.9914 33.7449 48.8171 33.6028C48.6429 33.4608 48.4232 33.3897 48.158 33.3897C47.891 33.3897 47.6694 33.4608 47.4933 33.6028C47.319 33.7449 47.1893 33.9333 47.104 34.1682C47.0207 34.4011 46.979 34.6568 46.979 34.9352C46.979 35.2155 47.0207 35.4721 47.104 35.7051C47.1893 35.938 47.319 36.1246 47.4933 36.2647C47.6694 36.4049 47.891 36.475 48.158 36.475ZM52.9755 37.188C52.5531 37.188 52.1895 37.0924 51.8846 36.9011C51.5816 36.7079 51.3486 36.4418 51.1857 36.1028C51.0228 35.7638 50.9414 35.3755 50.9414 34.938C50.9414 34.4949 51.0247 34.1038 51.1914 33.7647C51.3581 33.4238 51.5929 33.1577 51.896 32.9665C52.199 32.7752 52.556 32.6795 52.967 32.6795C53.2984 32.6795 53.5939 32.7411 53.8533 32.8642C54.1128 32.9854 54.3221 33.1558 54.4812 33.3755C54.6422 33.5952 54.7378 33.8519 54.7681 34.1454H53.9414C53.896 33.9409 53.7918 33.7647 53.6289 33.617C53.4679 33.4693 53.252 33.3954 52.9812 33.3954C52.7444 33.3954 52.5371 33.4579 52.359 33.5829C52.1829 33.706 52.0456 33.8822 51.9471 34.1113C51.8486 34.3386 51.7994 34.6076 51.7994 34.9182C51.7994 35.2363 51.8477 35.511 51.9442 35.742C52.0408 35.9731 52.1772 36.1521 52.3533 36.279C52.5314 36.4058 52.7406 36.4693 52.9812 36.4693C53.1422 36.4693 53.288 36.4399 53.4187 36.3812C53.5513 36.3206 53.6621 36.2344 53.7511 36.1227C53.842 36.011 53.9054 35.8765 53.9414 35.7193H54.7681C54.7378 36.0015 54.646 36.2534 54.4925 36.475C54.3391 36.6966 54.1336 36.8708 53.8761 36.9977C53.6204 37.1246 53.3202 37.188 52.9755 37.188ZM55.3462 33.4693V32.7363H59.0281V33.4693H57.6048V37.1H56.7752V33.4693H55.3462ZM60.5657 34.2363H61.8327C62.3668 34.2363 62.7778 34.3689 63.0657 34.6341C63.3536 34.8992 63.4975 35.2411 63.4975 35.6596C63.4975 35.9324 63.4331 36.1776 63.3043 36.3954C63.1755 36.6132 62.9871 36.7856 62.739 36.9125C62.4909 37.0375 62.1888 37.1 61.8327 37.1H59.9265V32.7363H60.7589V36.367H61.8327C62.0771 36.367 62.2778 36.3036 62.435 36.1767C62.5922 36.0479 62.6708 35.8841 62.6708 35.6852C62.6708 35.475 62.5922 35.3036 62.435 35.171C62.2778 35.0365 62.0771 34.9693 61.8327 34.9693H60.5657V34.2363Z" fill="white" fill-opacity="0.5"/>
</svg>
