<svg width="33" height="27" viewBox="0 0 33 27" fill="none" xmlns="http://www.w3.org/2000/svg">
<path d="M4.55313 10.5C4.83385 10.5 5.08634 10.6564 5.21036 10.9082L5.78848 12.0801L7.08438 12.2695C7.36135 12.3097 7.5883 12.501 7.6752 12.7676C7.76183 13.0344 7.69043 13.3219 7.48965 13.5176L6.55215 14.4307L6.77383 15.7207C6.81482 15.9625 6.7346 16.2026 6.5629 16.3691L6.4838 16.4365C6.35684 16.5286 6.20771 16.5771 6.05215 16.5771C5.93411 16.5771 5.81661 16.5479 5.71231 16.4932L4.55313 15.8828L3.39493 16.4932C3.29006 16.5482 3.1722 16.5771 3.05411 16.5771C2.89863 16.5771 2.75007 16.5279 2.62442 16.4365C2.39784 16.2711 2.28646 15.9973 2.3334 15.7217L2.55411 14.4307L1.61758 13.5176C1.41712 13.3224 1.3459 13.0352 1.43204 12.7686C1.51738 12.5049 1.74888 12.3093 2.02286 12.2695L3.3168 12.0801L3.89688 10.9082C4.02104 10.6568 4.27279 10.5001 4.55313 10.5ZM4.18204 12.832C4.10134 12.9954 3.9453 13.1086 3.76505 13.1348L2.93399 13.2559L3.53555 13.8418C3.66601 13.969 3.72555 14.1525 3.69473 14.332L3.55215 15.1582L4.2963 14.7686C4.37669 14.7263 4.4649 14.7051 4.55313 14.7051C4.64158 14.7051 4.73029 14.7262 4.81094 14.7686L5.55313 15.1582L5.41251 14.332C5.38169 14.1524 5.44115 13.969 5.57169 13.8418L6.17227 13.2559L5.34219 13.1348C5.1619 13.1085 5.00589 12.9953 4.9252 12.832L4.55313 12.0781L4.18204 12.832Z" fill="white" stroke="white" stroke-width="0.1"/>
<path d="M25.8246 20.8828C26.9889 20.8828 27.9359 21.8298 27.936 22.9941C27.936 24.1585 26.989 25.1055 25.8246 25.1055C24.6603 25.1054 23.7133 24.1585 23.7133 22.9941C23.7133 21.8298 24.6603 20.8828 25.8246 20.8828ZM25.8246 21.9893C25.2708 21.9893 24.8198 22.4403 24.8198 22.9941C24.8198 23.5479 25.2708 23.998 25.8246 23.998C26.3784 23.998 26.8295 23.548 26.8295 22.9941C26.8295 22.4403 26.3784 21.9893 25.8246 21.9893Z" fill="white" stroke="white" stroke-width="0.1"/>
<path d="M24.7354 1.36768C25.3914 1.36768 25.9238 1.89911 25.9238 2.55518C25.9238 3.21131 25.3915 3.74365 24.7354 3.74365C24.0793 3.74358 23.5479 3.21126 23.5479 2.55518C23.5479 1.89915 24.0793 1.36775 24.7354 1.36768Z" fill="white" stroke="white" stroke-width="0.2"/>
<path d="M3.20645 0.050293C4.91781 0.0503047 6.31355 1.41931 6.35977 3.11963L13.227 4.14893C13.6487 2.90205 14.8285 2.00162 16.2162 2.00146C17.9567 2.00146 19.3725 3.41726 19.3725 5.15771C19.3725 5.59625 19.281 6.01322 19.1186 6.39307L26.7416 11.3765C27.3174 10.765 28.134 10.3824 29.0385 10.3823C30.7789 10.3823 32.1949 11.7981 32.1947 13.5386C32.1947 15.279 30.7789 16.6948 29.0385 16.6948C28.2808 16.6948 27.586 16.4246 27.0414 15.978L20.725 21.3921C21.0031 21.862 21.1635 22.4093 21.1635 22.9937C21.1635 24.7341 19.7478 26.1499 18.0072 26.1499C16.2668 26.1498 14.851 24.7341 14.851 22.9937C14.851 21.5672 15.8028 20.3609 17.1039 19.9712L16.1606 11.729C16.1259 11.4254 16.3443 11.1515 16.6479 11.1167C16.9504 11.082 17.2263 11.2993 17.2611 11.603L18.2035 19.8442C18.8845 19.8862 19.5063 20.146 20.0033 20.5532L26.3197 15.1392C26.0422 14.6695 25.8822 14.1224 25.8822 13.5386C25.8822 13.0998 25.9736 12.6822 26.1361 12.3022L18.5111 7.31885C18.0796 7.77679 17.514 8.10539 16.8764 8.2417L17.0717 9.95264C17.1064 10.2564 16.8881 10.5302 16.5844 10.5649L16.5854 10.5659C16.564 10.5684 16.5419 10.5698 16.5209 10.5698C16.2436 10.5697 16.0044 10.3609 15.9721 10.0786L15.766 8.27881C14.2663 8.06323 13.1046 6.79225 13.0629 5.24365L6.19473 4.21436C5.77295 5.46147 4.59436 6.36276 3.20645 6.36279C1.46604 6.36279 0.0502812 4.94699 0.0502014 3.20654C0.0502014 1.46615 1.46593 0.050293 3.20645 0.050293ZM18.0072 20.9448C16.8774 20.9449 15.9586 21.8639 15.9584 22.9937C15.9584 24.1235 16.8774 25.0433 18.0072 25.0435C19.1372 25.0435 20.057 24.1235 20.057 22.9937C20.0569 21.8638 19.137 20.9448 18.0072 20.9448ZM29.0385 11.4888C27.9086 11.4889 26.9897 12.4087 26.9897 13.5386C26.9897 14.6684 27.9086 15.5873 29.0385 15.5874C30.1684 15.5874 31.0882 14.6685 31.0883 13.5386C31.0883 12.4086 30.1684 11.4888 29.0385 11.4888ZM16.2162 3.10791C15.0864 3.1081 14.1674 4.02794 14.1674 5.15771C14.1675 6.28742 15.0866 7.20635 16.2162 7.20654C17.3461 7.20654 18.2659 6.2876 18.266 5.15771C18.266 4.02783 17.3461 3.10791 16.2162 3.10791ZM3.20645 1.15674C2.07644 1.15674 1.15665 2.07666 1.15665 3.20654C1.15673 4.33643 2.07655 5.25537 3.20645 5.25537C4.33637 5.25533 5.25514 4.33646 5.25528 3.20654C5.25528 2.07669 4.33643 1.15678 3.20645 1.15674Z" fill="white" stroke="white" stroke-width="0.1"/>
</svg>
