<svg width="25" height="25" viewBox="0 0 25 25" fill="none" xmlns="http://www.w3.org/2000/svg">
<path d="M11.2068 0.10156C11.8974 0.0677506 12.635 0.58491 13.201 0.708252C13.767 0.831594 14.2516 0.790271 14.8514 0.979354C18.0257 1.98049 19.4501 5.73209 17.8723 8.64659L18.777 10.4573C18.8628 10.7046 18.7213 10.9056 18.4821 10.9657L16.4323 10.2895C14.9935 11.3582 13.1183 11.6669 11.4172 11.0683C11.2118 10.9963 10.8637 10.7828 10.7041 10.7503C10.5288 10.7146 10.3378 10.7584 10.1581 10.7334C9.31538 10.6163 8.53526 10.3502 7.80835 9.91319L5.92128 10.7302C5.55188 10.7628 5.44106 10.5142 5.52058 10.1855C5.66082 9.60828 6.10223 8.97028 6.24185 8.37173C4.09369 5.04588 6.24873 0.439655 10.2226 0.10156H11.2068ZM6.56742 9.61454C6.64193 9.6759 7.65746 9.07672 7.89851 9.09988C8.05441 9.11491 8.65109 9.52563 8.87899 9.62393C13.5409 11.635 17.5048 5.69264 13.9485 2.16394C10.3754 -1.3823 4.42302 2.72117 6.57431 7.38249C6.72332 7.70556 6.95435 7.96226 7.06955 8.2872L6.56742 9.61516V9.61454ZM17.6745 9.89566L17.0628 8.60714C17.2005 8.19767 17.4422 7.83892 17.568 7.42256C18.2993 4.99955 16.9764 2.38683 14.5352 1.69499C16.8587 4.09796 16.4454 8.03488 13.6511 9.87875L12.2862 10.5518C13.3062 10.6933 14.3405 10.6069 15.2702 10.1386C15.6465 9.9495 15.9539 9.63395 16.3428 9.47554L17.6751 9.89566H17.6745Z" fill="white" fill-opacity="0.5"/>
<path d="M11.3384 0.0511475C11.6526 0.0651965 11.9707 0.177034 12.27 0.300171C12.6164 0.442719 12.9343 0.599128 13.2114 0.659546C13.4911 0.720482 13.7504 0.740984 14.019 0.769897C14.2868 0.798719 14.5621 0.835983 14.8667 0.932007C18.0634 1.94043 19.4995 5.70852 17.9282 8.64587L18.8218 10.4349L18.8247 10.4408L18.8481 10.5414C18.8611 10.6397 18.8417 10.731 18.7944 10.808C18.7319 10.9096 18.6243 10.9814 18.4946 11.014L18.48 11.0179L18.4663 11.0131L16.4399 10.3441C14.9911 11.4097 13.1097 11.7168 11.4009 11.1156C11.2944 11.0783 11.1518 11.0044 11.021 10.9388C10.9548 10.9057 10.8905 10.8741 10.8335 10.849C10.7759 10.8236 10.7281 10.8062 10.6938 10.7992C10.6129 10.7828 10.5265 10.7841 10.4341 10.7875C10.3436 10.7908 10.2459 10.7958 10.1509 10.7826C9.31064 10.6658 8.53169 10.4018 7.80518 9.96912L5.94092 10.7758L5.93408 10.7797H5.78857C5.66243 10.7652 5.56815 10.7103 5.51025 10.6205C5.43569 10.5047 5.43111 10.3442 5.47217 10.1742C5.54375 9.87954 5.69176 9.57008 5.83643 9.26501C5.97917 8.96399 6.11708 8.66568 6.18701 8.3783C4.04113 5.02365 6.21353 0.392944 10.2183 0.052124L10.2222 0.0511475H11.3384ZM14.6958 1.79724C16.8981 4.2326 16.447 8.09323 13.6782 9.92029L13.6733 9.92419V9.92322L12.4614 10.5209C13.419 10.6295 14.38 10.531 15.2476 10.0941C15.4314 10.0017 15.5992 9.87849 15.7729 9.75525C15.9454 9.63299 16.1234 9.51069 16.3237 9.42908L16.3403 9.42224L16.3579 9.4281L17.5796 9.81287L17.0181 8.6283L17.0093 8.61072L17.0151 8.59119C17.0852 8.38284 17.1819 8.18757 17.2749 7.99548C17.3683 7.80256 17.4584 7.61226 17.52 7.40857C18.2261 5.06899 16.9965 2.55346 14.6958 1.79724ZM13.9136 2.19958C10.3799 -1.3075 4.49175 2.7511 6.61963 7.36169C6.69246 7.51958 6.78583 7.66149 6.87744 7.80798C6.96822 7.95316 7.05717 8.10295 7.1167 8.27087L7.12256 8.28748L7.1167 8.30505L6.64404 9.55212C6.67345 9.54205 6.71085 9.52946 6.75342 9.51111C6.86172 9.46442 7.00169 9.39643 7.14893 9.32654C7.29537 9.25703 7.44871 9.18579 7.58057 9.13318C7.64652 9.10687 7.70871 9.08444 7.76221 9.0697C7.81401 9.05545 7.8633 9.04648 7.90283 9.05017C7.92977 9.05277 7.96199 9.0633 7.99463 9.07654C8.0283 9.09021 8.06749 9.10882 8.10889 9.13025C8.19155 9.17307 8.28883 9.22917 8.38721 9.28748C8.58708 9.40594 8.78886 9.53102 8.89893 9.57849C13.5095 11.5671 17.4305 5.68967 13.9136 2.19958Z" stroke="white" stroke-opacity="0.5" stroke-width="0.1"/>
<path d="M0.100098 23.8621V23.2059L0.301077 22.2117C0.723696 20.7359 1.74424 19.4506 3.0985 18.7293C3.40341 18.5671 3.72773 18.4619 4.03578 18.3085C1.87447 16.8504 2.49369 13.3636 5.05758 12.8145C8.36966 12.1051 10.1791 16.3827 7.4593 18.3085C7.76735 18.4619 8.09167 18.5671 8.39658 18.7293C9.94117 19.552 11.1026 21.1623 11.3418 22.9079C11.3837 23.2153 11.5277 23.9616 11.1633 24.0756C7.61145 24.1257 4.05143 24.0799 0.49642 24.0987C0.302955 24.1131 0.204657 24.0004 0.100098 23.8621ZM5.3844 13.517C4.57986 13.6197 3.74589 14.361 3.54366 15.1442C2.88187 17.7075 6.19207 19.1444 7.61896 17.1102C8.7904 15.4404 7.39669 13.2603 5.3844 13.517ZM10.6449 23.3468C10.4502 21.3007 9.04647 19.5351 7.04608 19.0016C4.03077 18.1977 1.1363 20.2814 0.849542 23.3468H10.6443H10.6449Z" fill="white" fill-opacity="0.5"/>
<path d="M5.04736 12.7653C8.38637 12.0504 10.2172 16.3177 7.5542 18.2965C7.68364 18.3576 7.8152 18.4137 7.94873 18.4694C8.1063 18.535 8.26574 18.6029 8.42041 18.6852C9.97846 19.5152 11.1497 21.1391 11.3911 22.901C11.4117 23.0517 11.459 23.3208 11.4546 23.5651C11.4524 23.6872 11.4374 23.8078 11.397 23.9069C11.356 24.0072 11.2874 24.0895 11.1782 24.1237L11.1714 24.1256H11.1636C7.61285 24.1757 4.05186 24.1293 0.499512 24.1481L0.496582 24.149V24.1481C0.389692 24.1553 0.306157 24.1284 0.23584 24.0787C0.166953 24.0301 0.112158 23.9612 0.0600586 23.8922L0.050293 23.8785V23.1959L0.100098 23.2057L0.0512695 23.1959L0.252441 22.2018V22.1979L0.30127 22.2115L0.253418 22.1979C0.679668 20.7096 1.70832 19.413 3.07471 18.6852C3.22939 18.6029 3.38881 18.5351 3.54639 18.4694C3.67857 18.4143 3.80883 18.3588 3.93701 18.2985C1.8267 16.7885 2.4675 13.3178 5.04736 12.7653ZM7.03271 19.0504C4.0662 18.2597 1.21896 20.2915 0.905762 23.2965H10.5884C10.3758 21.2934 8.99366 19.5733 7.03271 19.0504ZM7.57764 17.0817C8.72236 15.4499 7.36313 13.3157 5.39111 13.567C5.00099 13.6168 4.59966 13.8219 4.271 14.1129C3.94244 14.4039 3.69035 14.777 3.59229 15.1569C2.94456 17.6659 6.18251 19.07 7.57764 17.0817Z" stroke="white" stroke-opacity="0.5" stroke-width="0.1"/>
<path d="M18.0404 12.7691C21.2742 12.4191 22.7474 16.4412 20.1597 18.3089C21.3562 18.7553 22.4575 19.5248 23.1594 20.6042C23.6552 21.3667 24.0447 22.4098 24.0948 23.3239C24.1079 23.5581 24.1517 23.9519 23.8957 24.0615H12.9996C12.7435 23.9519 12.788 23.5575 12.8005 23.3239C12.8531 22.3835 13.2532 21.3254 13.7735 20.5478C14.4772 19.496 15.5604 18.7484 16.7356 18.3089C15.3556 17.3209 14.98 15.4783 15.9485 14.0526C16.4037 13.3833 17.2308 12.8562 18.0391 12.7691H18.0404ZM18.0854 13.5173C17.2809 13.62 16.4469 14.3613 16.2447 15.1446C15.5829 17.7078 18.8931 19.1447 20.32 17.1105C21.4914 15.4407 20.0977 13.2606 18.0854 13.5173ZM23.3453 23.3471C23.1506 21.301 21.7469 19.5354 19.7465 19.002C16.7312 18.1981 13.8367 20.2817 13.5499 23.3471H23.3447H23.3453Z" fill="white" fill-opacity="0.5"/>
<path d="M18.0396 12.7194C21.2928 12.3711 22.7857 16.3759 20.2583 18.2936C21.431 18.7471 22.5087 19.5111 23.2017 20.5768C23.7013 21.3452 24.0943 22.3967 24.145 23.3209C24.1514 23.4351 24.1662 23.5992 24.146 23.7467C24.1257 23.8937 24.0677 24.0418 23.9155 24.1071L23.9058 24.1119H12.9897L12.98 24.1071C12.8274 24.0417 12.7696 23.893 12.7495 23.7457C12.7294 23.5983 12.7444 23.4346 12.7505 23.3209C12.8037 22.3703 13.2076 21.3039 13.7319 20.5201C14.4257 19.4832 15.4833 18.7408 16.6333 18.2946C15.2929 17.2794 14.9402 15.4482 15.9067 14.025V14.024C16.3695 13.3436 17.2098 12.8081 18.0337 12.7194L18.0396 12.7184V12.7194ZM19.7339 19.0504C16.7671 18.2594 13.9198 20.292 13.6069 23.2975H23.2886C23.0762 21.2942 21.6949 19.5735 19.7339 19.0504ZM20.2788 17.0817C21.4236 15.4498 20.0635 13.3154 18.0913 13.567C17.7013 13.6169 17.3007 13.822 16.9722 14.1129C16.6436 14.4039 16.3916 14.777 16.2935 15.1569C15.6456 17.6661 18.8838 19.0704 20.2788 17.0817Z" stroke="white" stroke-opacity="0.5" stroke-width="0.1"/>
<path d="M8.42883 4.98552C9.17389 4.81522 9.23149 5.83138 8.64108 5.90401C8.05066 5.97663 7.92231 5.10135 8.42883 4.98552Z" fill="white" fill-opacity="0.5"/>
<path d="M8.41748 4.93701C8.61477 4.89192 8.77343 4.92409 8.88818 5.00635C9.00213 5.08813 9.06704 5.21519 9.08545 5.34717C9.12167 5.60831 8.97734 5.91297 8.64697 5.95361C8.48607 5.97335 8.35344 5.92811 8.25537 5.84521C8.15834 5.76313 8.09781 5.64639 8.07471 5.5249C8.02902 5.28432 8.1293 5.00306 8.41748 4.93701Z" stroke="white" stroke-opacity="0.5" stroke-width="0.1"/>
<path d="M13.2078 5.75775C12.8234 6.1716 12.1027 5.60937 12.4984 5.11913C12.8941 4.62889 13.6417 5.29068 13.2078 5.75775Z" fill="white" fill-opacity="0.5"/>
<path d="M12.8374 4.89661C12.9705 4.89706 13.0991 4.95406 13.1978 5.04211C13.2964 5.13019 13.3683 5.25219 13.3853 5.38586C13.4024 5.52103 13.3628 5.66488 13.2446 5.79211C13.0295 6.02362 12.722 5.97772 12.5288 5.81555C12.4316 5.73393 12.3584 5.62021 12.3384 5.49133C12.3183 5.36142 12.3526 5.22058 12.4595 5.08801C12.5676 4.95411 12.7027 4.89615 12.8374 4.89661Z" stroke="white" stroke-opacity="0.5" stroke-width="0.1"/>
<path d="M10.5852 4.98515C11.2695 4.82925 11.3966 5.84291 10.7511 5.90302C10.1851 5.95561 10.0793 5.10035 10.5852 4.98515Z" fill="white" fill-opacity="0.5"/>
<path d="M10.5742 4.93665C10.758 4.89481 10.9094 4.93086 11.0205 5.01477C11.1305 5.09784 11.1959 5.22405 11.2158 5.35559C11.2358 5.48711 11.2108 5.62764 11.1348 5.74036C11.0579 5.85416 10.9314 5.93688 10.7559 5.95325C10.6008 5.96766 10.474 5.91922 10.3818 5.83508C10.2906 5.75169 10.2353 5.635 10.2168 5.51477C10.1802 5.27629 10.2876 5.00191 10.5742 4.93665Z" stroke="white" stroke-opacity="0.5" stroke-width="0.1"/>
</svg>
