<svg viewBox="0 0 26.2025 26.1987" xmlns="http://www.w3.org/2000/svg" xmlns:xlink="http://www.w3.org/1999/xlink" width="26.202507" height="26.198730" fill="none" customFrame="#000000">
	<g id="Group">
		<path id="Vector" d="M12.1327 0.100838C12.8809 0.0642105 13.6799 0.624468 14.2931 0.758089C14.9062 0.89171 15.4312 0.846943 16.081 1.05178C19.5199 2.13635 21.063 6.20059 19.3537 9.35797L20.3338 11.3196C20.4267 11.5875 20.2734 11.8052 20.0143 11.8703L17.7937 11.1378C16.235 12.2956 14.2035 12.63 12.3606 11.9816C12.1382 11.9036 11.761 11.6723 11.5881 11.637C11.3982 11.5983 11.1913 11.6458 10.9966 11.6187C10.0837 11.4918 9.23853 11.2036 8.45104 10.7301L6.40671 11.6153C6.00653 11.6506 5.88647 11.3813 5.97261 11.0252C6.12455 10.3998 6.60273 9.70864 6.75399 9.06021C4.42681 5.4572 6.76145 0.467108 11.0665 0.100838L12.1327 0.100838ZM7.10669 10.4066C7.18741 10.4731 8.28758 9.82395 8.54872 9.84905C8.71761 9.86533 9.36401 10.3103 9.6109 10.4168C14.6614 12.5954 18.9556 6.15786 15.1029 2.33509C11.232 -1.50668 4.78359 2.93875 7.11416 7.98853C7.27559 8.33852 7.52587 8.61662 7.65067 8.96864L7.10669 10.4073L7.10669 10.4066ZM19.1394 10.7111L18.4767 9.31524C18.6259 8.87165 18.8877 8.483 19.0241 8.03194C19.8163 5.40701 18.3831 2.57655 15.7385 1.82705C18.2556 4.43029 17.8079 8.6953 14.7807 10.6928L13.3021 11.422C14.407 11.5753 15.5275 11.4817 16.5348 10.9743C16.9424 10.7695 17.2755 10.4276 17.6967 10.256L19.14 10.7111L19.1394 10.7111Z" fill="rgb(255,255,255)" fill-rule="nonzero" />
		<path id="Vector" d="M15.0397 0.763739C14.7229 0.73118 14.4811 0.696727 14.3144 0.660382C14.1669 0.628245 13.9203 0.537743 13.5745 0.388875C12.9383 0.114974 12.4569 -0.0143713 12.1304 0.000837564L11.0622 0.000837564L11.058 0.00119768C10.4792 0.0504423 9.93196 0.17842 9.41628 0.385132C8.98558 0.557779 8.57689 0.785348 8.19022 1.06784C7.88106 1.2937 7.59893 1.54456 7.34382 1.82041C6.93868 2.25848 6.6017 2.75959 6.33288 3.32373C6.08527 3.84336 5.9146 4.3762 5.82087 4.92225C5.74931 5.33913 5.7226 5.76371 5.74073 6.19598C5.76222 6.70811 5.84625 7.20086 5.99285 7.67423C6.14413 8.16276 6.36204 8.63066 6.64657 9.07793C6.59053 9.29164 6.46304 9.60824 6.26408 10.0277C6.05627 10.4659 5.92671 10.7905 5.87542 11.0017C5.82384 11.2149 5.83875 11.3864 5.92015 11.5163C5.92117 11.5179 5.9222 11.5196 5.92325 11.5212C5.94854 11.5604 5.97848 11.5938 6.01307 11.6213C6.1104 11.6988 6.24454 11.73 6.41549 11.7149L6.4316 11.7135L8.44381 10.8422C8.64215 10.9594 8.84546 11.0658 9.05374 11.1613C9.65531 11.4371 10.2983 11.6226 10.9828 11.7177C11.0489 11.7269 11.1468 11.7291 11.2766 11.7242C11.411 11.7192 11.5081 11.7228 11.5681 11.735C11.6232 11.7462 11.7527 11.8031 11.9566 11.9055C12.1335 11.9945 12.2571 12.0512 12.3275 12.0759C12.7744 12.2331 13.2269 12.3349 13.685 12.3813C14.1831 12.4317 14.6879 12.4165 15.1993 12.3358C15.6548 12.2639 16.091 12.144 16.5078 11.9761C16.9657 11.7916 17.4002 11.5492 17.8114 11.2489L20.0106 11.9744L20.0387 11.9673C20.1555 11.9379 20.2497 11.8866 20.3214 11.8132C20.3477 11.7862 20.371 11.7563 20.3913 11.7234C20.4204 11.6761 20.4406 11.6268 20.4518 11.5755C20.4716 11.4853 20.4638 11.3891 20.4283 11.2868L20.4262 11.2807L19.4663 9.35958C19.6653 8.98448 19.8211 8.59721 19.9338 8.19777C20.0534 7.77408 20.1244 7.33669 20.1469 6.88561C20.167 6.48237 20.1478 6.08502 20.0892 5.69354C20.0232 5.25198 19.9072 4.8179 19.7411 4.39129C19.5497 3.89969 19.3036 3.44814 19.0027 3.03663C18.8088 2.77159 18.5923 2.52317 18.3531 2.29135C18.0464 1.99417 17.7152 1.73725 17.3594 1.5206C16.9723 1.28487 16.5562 1.0968 16.1111 0.95641C15.852 0.874747 15.4949 0.810524 15.0397 0.763739ZM19.3537 9.35797C21.063 6.20059 19.5199 2.13635 16.081 1.05178C15.4312 0.846943 14.9062 0.89171 14.2931 0.758089C14.0624 0.707833 13.8055 0.597227 13.5349 0.480724C13.0861 0.287467 12.5995 0.0779862 12.1327 0.100838L11.0665 0.100838C6.76145 0.467108 4.42681 5.4572 6.75399 9.06021C6.60273 9.70864 6.12455 10.3998 5.97261 11.0252C5.88647 11.3813 6.00653 11.6506 6.40671 11.6153L8.45104 10.7301C9.23853 11.2036 10.0837 11.4918 10.9966 11.6187C11.087 11.6313 11.1801 11.6278 11.2728 11.6243C11.3798 11.6203 11.4864 11.6163 11.5881 11.637C11.761 11.6723 12.1382 11.9036 12.3606 11.9816C14.2035 12.63 16.235 12.2956 17.7937 11.1378L20.0143 11.8703C20.2734 11.8052 20.4267 11.5875 20.3338 11.3196L19.3537 9.35797ZM7.22109 10.3875C7.32769 10.3492 7.49485 10.2696 7.67661 10.183C8.01613 10.0213 8.40662 9.83539 8.54872 9.84905C8.71761 9.86533 9.36401 10.3103 9.6109 10.4168C14.6614 12.5954 18.9556 6.15786 15.1029 2.33509C11.232 -1.50668 4.78359 2.93875 7.11416 7.98853C7.27559 8.33852 7.52587 8.61662 7.65067 8.96864L7.14456 10.3071L7.14424 10.308L7.14213 10.3135L7.10695 10.4066L7.10689 10.4067L7.10759 10.4073C7.11567 10.4129 7.13232 10.4126 7.15608 10.4073L7.15905 10.4066C7.17635 10.4025 7.1972 10.396 7.22109 10.3875ZM7.26889 10.261C7.33743 10.232 7.459 10.1759 7.63362 10.0927C8.13696 9.85305 8.44518 9.73864 8.55828 9.74951L8.55831 9.74951C8.63962 9.75735 8.85919 9.86812 9.21701 10.0818C9.44248 10.2165 9.58698 10.2975 9.65051 10.3249C10.4174 10.6557 11.1728 10.7985 11.9167 10.7531C12.3176 10.7287 12.7151 10.6496 13.1094 10.516C13.5004 10.3834 13.8633 10.2077 14.198 9.98882C14.7448 9.63122 15.2164 9.15847 15.6126 8.57056C16.0066 7.98614 16.2675 7.37504 16.3955 6.73724C16.4748 6.34251 16.5031 5.93756 16.4805 5.52239C16.4567 5.0858 16.3761 4.66892 16.2385 4.27175C16.0031 3.59215 15.6011 2.97026 15.0325 2.40607C14.4641 1.84195 13.8394 1.44561 13.1584 1.21703C12.7553 1.08174 12.3324 1.00522 11.8899 0.987486C11.4766 0.970923 11.0742 1.00465 10.6825 1.08868C10.0393 1.22665 9.42527 1.50023 8.8403 1.90942C8.2533 2.32003 7.78506 2.80486 7.43556 3.36394C7.22331 3.70348 7.05485 4.0704 6.93019 4.4647C6.8051 4.86037 6.73434 5.25827 6.71791 5.6584C6.68692 6.41321 6.84927 7.17595 7.20495 7.94663C7.2503 8.04494 7.33001 8.18477 7.44409 8.36612C7.59542 8.60668 7.6957 8.79638 7.74493 8.93523L7.75716 8.96975L7.26889 10.261ZM18.4767 9.31524C18.6259 8.87165 18.8877 8.483 19.0241 8.03194C19.7968 5.47148 18.4521 2.71547 15.9311 1.88601C15.8677 1.86513 15.8034 1.84546 15.7385 1.82705C15.7847 1.87491 15.83 1.92334 15.8743 1.97229C18.2382 4.58634 17.7523 8.73202 14.7807 10.6928L13.4642 11.342L13.3021 11.422C13.362 11.4303 13.422 11.4379 13.4821 11.4447C14.5283 11.5639 15.5822 11.4541 16.5348 10.9743C16.9424 10.7695 17.2755 10.4276 17.6967 10.256L19.0091 10.6698L19.1392 10.7109L19.0807 10.5876L18.4767 9.31524ZM18.9505 10.5465L18.369 9.32164L18.3819 9.28336C18.4302 9.13977 18.519 8.9346 18.6482 8.66786C18.7885 8.37835 18.8819 8.15673 18.9283 8.00301C19.1285 7.33996 19.1959 6.69055 19.1306 6.05476C19.0683 5.44827 18.8852 4.85419 18.5814 4.2725C18.2533 3.64419 17.8352 3.13032 17.3271 2.7309C16.9546 2.43807 16.5338 2.20675 16.0646 2.03694C16.3044 2.31745 16.5145 2.61503 16.6948 2.92967C16.8877 3.2663 17.0466 3.62246 17.1713 3.99815C17.297 4.37667 17.3834 4.75995 17.4305 5.148C17.4844 5.59167 17.487 6.04158 17.4381 6.49772C17.3878 6.9684 17.2854 7.42058 17.131 7.85424C17.0047 8.20922 16.8435 8.5518 16.6474 8.88197C16.4481 9.21767 16.2202 9.52751 15.9636 9.81151C15.6347 10.1756 15.2588 10.4972 14.8358 10.7763L14.8306 10.7797L13.6505 11.3616C14.6676 11.4553 15.5752 11.3153 16.3733 10.9416C16.4124 10.9233 16.4512 10.9044 16.4898 10.885C16.6074 10.8259 16.7761 10.7181 16.9958 10.5616C17.2761 10.3621 17.4971 10.2293 17.6589 10.1634L17.6923 10.1498L18.9505 10.5465Z" fill="rgb(255,255,255)" fill-rule="evenodd" />
		<path id="Vector" d="M0.0999985 25.8414L0.0999985 25.1306L0.317726 24.0535C0.775564 22.4548 1.88116 21.0623 3.34828 20.2809C3.6786 20.1052 4.02995 19.9912 4.36366 19.8251C2.02224 18.2454 2.69306 14.468 5.47061 13.8732C9.05871 13.1047 11.0189 17.7387 8.07249 19.8251C8.4062 19.9912 8.75755 20.1052 9.08787 20.2809C10.7612 21.1721 12.0194 22.9167 12.2785 24.8077C12.3239 25.1407 12.4799 25.9492 12.0852 26.0727C8.23731 26.127 4.38062 26.0774 0.529349 26.0978C0.319761 26.1134 0.213271 25.9913 0.0999985 25.8414ZM5.82467 14.6342C4.95308 14.7455 4.04962 15.5485 3.83053 16.3971C3.11359 19.1739 6.69965 20.7306 8.24545 18.5268C9.51451 16.7179 8.00466 14.3561 5.82467 14.6342ZM11.5236 25.2832C11.3126 23.0666 9.79193 21.1538 7.62483 20.5759C4.35823 19.705 1.22255 21.9623 0.911898 25.2832L11.5229 25.2832L11.5236 25.2832Z" fill="rgb(255,255,255)" fill-rule="nonzero" />
		<path id="Vector" d="M0.220496 24.0297L0.00198098 25.1107L-1.52737e-06 25.1206L-1.52737e-06 25.8749L0.0202156 25.9017C0.155303 26.0805 0.299548 26.1785 0.452951 26.196C0.479401 26.199 0.506123 26.1996 0.533117 26.1978C1.5655 26.1923 3.1143 26.1917 5.17951 26.1958C8.25136 26.202 10.5537 26.1943 12.0866 26.1727L12.1011 26.1725L12.115 26.1681C12.1431 26.1593 12.1694 26.1475 12.1938 26.1327C12.4263 25.9914 12.4919 25.5756 12.3907 24.8854C12.3844 24.8427 12.3801 24.8123 12.3776 24.7941C12.3444 24.5522 12.2966 24.3143 12.234 24.0803C12.0493 23.3897 11.7363 22.7335 11.2951 22.1115C10.8941 21.5463 10.429 21.0676 9.89977 20.6755C9.65816 20.4965 9.40318 20.3355 9.13483 20.1926C9.0127 20.1276 8.82672 20.0432 8.57689 19.9392C8.45494 19.8884 8.35158 19.844 8.26681 19.8059C8.66345 19.5004 8.9729 19.1467 9.19515 18.7447C9.33472 18.4923 9.43991 18.2209 9.51071 17.9305C9.58558 17.6234 9.61798 17.3176 9.60789 17.0133C9.59373 16.5858 9.49571 16.161 9.31384 15.739C9.12707 15.3056 8.87786 14.9357 8.56621 14.6294C8.35696 14.4237 8.11956 14.2467 7.85401 14.0983C7.6134 13.9638 7.36404 13.8622 7.10593 13.7934C6.58895 13.6556 6.03687 13.6496 5.44967 13.7754C5.06197 13.8584 4.71033 13.999 4.39476 14.197C4.14869 14.3514 3.92454 14.5407 3.72233 14.765C3.56335 14.9414 3.4256 15.13 3.30909 15.331C3.11116 15.6724 2.97452 16.0494 2.89915 16.4618C2.82777 16.8525 2.81876 17.2342 2.87214 17.607C2.90807 17.858 2.97229 18.105 3.06479 18.3479C3.17869 18.647 3.32845 18.919 3.51404 19.1638C3.69666 19.4046 3.91398 19.6191 4.16601 19.8074C4.08187 19.8452 3.97962 19.8891 3.85927 19.9392C3.60943 20.0432 3.42343 20.1276 3.30127 20.1926C3.05055 20.3261 2.81137 20.4756 2.58373 20.6409C2.13684 20.9654 1.73442 21.3512 1.37646 21.7982C1.06725 22.1843 0.808366 22.5946 0.599811 23.0291C0.446562 23.3483 0.320489 23.6806 0.221591 24.0259L0.220496 24.0297ZM4.26988 19.7595C4.30059 19.7817 4.33184 19.8036 4.36366 19.8251C4.32919 19.8422 4.29453 19.8588 4.25972 19.875C3.95758 20.0155 3.64448 20.1233 3.34828 20.2809C1.88116 21.0623 0.775564 22.4548 0.317726 24.0535L0.0999985 25.1306L0.0999985 25.8414C0.213271 25.9913 0.319761 26.1134 0.529349 26.0978C2.0789 26.0896 3.62933 26.0927 5.17972 26.0958C7.48266 26.1005 9.7855 26.1051 12.0852 26.0727C12.4471 25.9595 12.3461 25.2704 12.2917 24.9C12.2868 24.8664 12.2823 24.8354 12.2785 24.8077C12.0194 22.9167 10.7612 21.1721 9.08787 20.2809C8.79127 20.1231 8.47771 20.0152 8.17519 19.8744C8.1408 19.8585 8.10655 19.842 8.07249 19.8251C8.10351 19.8031 8.13398 19.7809 8.16391 19.7583C10.9775 17.6417 9.02094 13.1128 5.47061 13.8732C2.7308 14.46 2.04086 18.1433 4.26988 19.7595ZM3.83053 16.3971C4.04962 15.5485 4.95308 14.7455 5.82467 14.6342C8.00466 14.3561 9.51451 16.7179 8.24545 18.5268C6.69965 20.7306 3.11359 19.1739 3.83053 16.3971ZM3.90234 17.6728C3.8045 17.2825 3.81284 16.8656 3.92736 16.4221C3.92813 16.419 3.92892 16.416 3.92971 16.413C4.03555 16.0114 4.27539 15.645 4.64921 15.314C5.02358 14.9825 5.41637 14.7894 5.82757 14.7347C5.83082 14.7342 5.83407 14.7338 5.83733 14.7334C6.15606 14.6927 6.46143 14.7076 6.75346 14.7779C6.92594 14.8194 7.09377 14.8802 7.25694 14.9605C7.45466 15.0577 7.63323 15.1766 7.79267 15.3172C7.96554 15.4697 8.11591 15.6476 8.24379 15.8511C8.38703 16.079 8.48816 16.317 8.54717 16.5649C8.58963 16.7434 8.61029 16.927 8.60915 17.1158C8.60816 17.279 8.59055 17.4387 8.55631 17.5947C8.48922 17.9003 8.35831 18.1918 8.16358 18.4694C7.94567 18.7801 7.68756 19.0191 7.38925 19.1864C7.20228 19.2913 6.99952 19.3681 6.78097 19.4166C6.57776 19.4618 6.37558 19.4805 6.17443 19.4727C5.85752 19.4605 5.54314 19.3825 5.23131 19.2389C4.91691 19.094 4.65233 18.9037 4.43759 18.6681C4.3015 18.5187 4.18542 18.3511 4.08936 18.1653C4.00708 18.0061 3.94474 17.842 3.90234 17.6728ZM11.5131 25.1832C11.5169 25.2164 11.5204 25.2498 11.5236 25.2832L0.911898 25.2832C0.915027 25.2497 0.918442 25.2164 0.92214 25.1832C1.28572 21.9172 4.39113 19.7138 7.62483 20.5759C9.75927 21.1451 11.2666 23.0092 11.5131 25.1832ZM11.4126 25.1832C11.3506 24.6387 11.2154 24.1259 11.007 23.6448C10.8121 23.1949 10.5533 22.7728 10.2304 22.3784C9.85144 21.9155 9.42106 21.5367 8.93925 21.2419C8.52969 20.9914 8.08296 20.8016 7.59906 20.6726C6.76076 20.4491 5.95991 20.4134 5.19653 20.5656C4.50627 20.7033 3.84663 20.9945 3.21762 21.4393C2.59397 21.8803 2.10076 22.4003 1.73799 22.9993C1.35144 23.6376 1.11298 24.3655 1.02261 25.1832L11.4126 25.1832Z" fill="rgb(255,255,255)" fill-rule="evenodd" />
		<path id="Vector" d="M19.5352 13.824C23.0385 13.4449 24.6345 17.8021 21.8312 19.8254C23.1274 20.309 24.3205 21.1426 25.0808 22.312C25.618 23.1381 26.0399 24.2681 26.0942 25.2584C26.1084 25.5121 26.1559 25.9387 25.8785 26.0574L14.0744 26.0574C13.797 25.9387 13.8452 25.5114 13.8587 25.2584C13.9157 24.2397 14.3491 23.0934 14.9128 22.2509C15.6751 21.1114 16.8486 20.3016 18.1217 19.8254C16.6268 18.7551 16.2198 16.7589 17.2691 15.2145C17.7622 14.4894 18.6582 13.9183 19.5339 13.824L19.5352 13.824ZM19.5841 14.6346C18.7125 14.7458 17.809 15.5489 17.5899 16.3974C16.873 19.1743 20.459 20.7309 22.0048 18.5272C23.2739 16.7182 21.7641 14.3565 19.5841 14.6346ZM25.2823 25.2835C25.0713 23.0669 23.5506 21.1542 21.3835 20.5763C18.117 19.7054 14.9813 21.9627 14.6706 25.2835L25.2816 25.2835L25.2823 25.2835Z" fill="rgb(255,255,255)" fill-rule="nonzero" />
		<path id="Vector" d="M21.9424 19.8679C21.9054 19.8534 21.8684 19.8393 21.8312 19.8254C21.8635 19.8021 21.8953 19.7784 21.9265 19.7545C24.5975 17.7022 22.9981 13.4492 19.5352 13.824L19.5339 13.824C18.6582 13.9183 17.7622 14.4894 17.2691 15.2145C16.2425 16.7255 16.6098 18.6689 18.0262 19.7546C18.0575 19.7787 18.0893 19.8023 18.1217 19.8254C18.0845 19.8393 18.0474 19.8535 18.0103 19.868C16.7803 20.3492 15.6529 21.1447 14.9128 22.2509C14.3491 23.0934 13.9157 24.2397 13.8587 25.2584C13.8577 25.2768 13.8566 25.2961 13.8553 25.3161C13.8399 25.5719 13.8171 25.9474 14.0744 26.0574L25.8785 26.0574C26.1369 25.9469 26.1134 25.5691 26.0975 25.3128C26.0963 25.294 26.0952 25.2758 26.0942 25.2584C26.0399 24.2681 25.618 23.1381 25.0808 22.312C24.3423 21.1762 23.1954 20.3571 21.9424 19.8679ZM22.0352 19.7968C22.4165 19.4958 22.7171 19.1496 22.9368 18.758C23.0681 18.524 23.1706 18.2738 23.2442 18.0074C23.3316 17.6909 23.3732 17.3751 23.3691 17.0598C23.3639 16.6685 23.2881 16.2781 23.1418 15.8886C22.9907 15.4864 22.7826 15.1342 22.5176 14.832C22.3176 14.604 22.0852 14.4044 21.8204 14.2333C21.6104 14.0975 21.3909 13.9877 21.1619 13.9038C20.663 13.7209 20.1189 13.661 19.5299 13.724L19.5285 13.724L19.5232 13.7246C19.0751 13.7728 18.6358 13.9305 18.2053 14.1977C17.8035 14.4471 17.4762 14.7495 17.2235 15.1049C17.211 15.1226 17.1986 15.1404 17.1864 15.1583C16.8956 15.5863 16.7092 16.0328 16.6272 16.4976C16.5578 16.8907 16.5631 17.297 16.6431 17.7165C16.7194 18.1168 16.8545 18.4828 17.0482 18.8144C17.2646 19.1848 17.5543 19.5123 17.9172 19.7971C16.7851 20.2473 15.8774 20.8838 15.1943 21.7067C15.0647 21.8629 14.9431 22.0257 14.8296 22.1953C14.2685 23.034 13.9261 23.9028 13.8024 24.8016C13.7818 24.9513 13.7673 25.1018 13.7589 25.2531C13.7582 25.2651 13.7571 25.2841 13.7555 25.3101C13.7297 25.7366 13.8049 26.0068 13.9812 26.1207C13.9982 26.1317 14.0162 26.1413 14.0351 26.1494L14.0539 26.1574L25.899 26.1574L25.9178 26.1494C25.9369 26.1412 25.9551 26.1315 25.9723 26.1204C26.1489 26.0059 26.2239 25.7346 26.1973 25.3066C26.1958 25.2822 26.1947 25.2643 26.194 25.253C26.1891 25.1635 26.1821 25.0742 26.1728 24.9852C26.0758 24.0511 25.7398 23.1419 25.1647 22.2575C25.0382 22.0629 24.9012 21.877 24.7538 21.6998C24.0714 20.8793 23.1652 20.245 22.0352 19.7968ZM17.5899 16.3974C17.809 15.5489 18.7125 14.7458 19.5841 14.6346C21.7641 14.3565 23.2739 16.7182 22.0048 18.5272C20.459 20.7309 16.873 19.1743 17.5899 16.3974ZM17.6617 17.6732C17.5639 17.2829 17.5722 16.8659 17.6868 16.4224C17.6875 16.4194 17.6883 16.4164 17.6891 16.4134C17.795 16.0117 18.0348 15.6454 18.4086 15.3144C18.783 14.9828 19.1758 14.7897 19.587 14.735C19.5902 14.7346 19.5935 14.7342 19.5967 14.7338C19.9154 14.6931 20.2208 14.7079 20.5128 14.7782C20.6853 14.8197 20.8532 14.8806 21.0163 14.9608C21.2141 15.058 21.3926 15.1769 21.5521 15.3175C21.7249 15.47 21.8753 15.648 22.0032 15.8514C22.1464 16.0794 22.2476 16.3173 22.3066 16.5653C22.349 16.7437 22.3697 16.9273 22.3685 17.1161C22.3676 17.2794 22.3499 17.439 22.3157 17.595C22.2486 17.9006 22.1177 18.1922 21.923 18.4698C21.7051 18.7804 21.447 19.0194 21.1487 19.1868C20.9617 19.2917 20.7589 19.3684 20.5404 19.417C20.3372 19.4622 20.135 19.4809 19.9339 19.4731C19.6169 19.4608 19.3026 19.3829 18.9907 19.2392C18.6763 19.0943 18.4117 18.9041 18.197 18.6684C18.0609 18.519 17.9448 18.3515 17.8488 18.1657C17.7665 18.0065 17.7041 17.8423 17.6617 17.6732ZM25.2719 25.1835C25.2756 25.2168 25.2791 25.2501 25.2823 25.2835L14.6706 25.2835C14.6737 25.2501 14.6772 25.2167 14.6809 25.1835C15.0444 21.9175 18.1498 19.7141 21.3835 20.5763C23.518 21.1455 25.0254 23.0096 25.2719 25.1835ZM25.1713 25.1835C25.1093 24.639 24.9741 24.1262 24.7657 23.6452C24.5709 23.1953 24.312 22.7731 23.9891 22.3787C23.6102 21.9159 23.1798 21.5371 22.698 21.2423C22.2885 20.9918 21.8417 20.8019 21.3578 20.6729C20.5195 20.4494 19.7187 20.4138 18.9553 20.566C18.265 20.7036 17.6054 20.9948 16.9763 21.4396C16.3527 21.8807 15.8595 22.4007 15.4967 22.9997C15.1101 23.638 14.8717 24.3659 14.7813 25.1835L25.1713 25.1835Z" fill="rgb(255,255,255)" fill-rule="evenodd" />
		<path id="Vector" d="M9.12314 5.3919C9.93029 5.20741 9.99269 6.30826 9.35308 6.38694C8.71346 6.46562 8.57441 5.51738 9.12314 5.3919Z" fill="rgb(255,255,255)" fill-rule="nonzero" />
		<path id="Vector" d="M8.92505 6.40186C9.03589 6.48055 9.18264 6.50866 9.36528 6.48619C9.46379 6.47407 9.54981 6.44334 9.62333 6.39399C9.68626 6.35174 9.74003 6.29586 9.78465 6.22634C9.82051 6.17046 9.84694 6.11197 9.86394 6.05085C9.8879 5.96475 9.89315 5.87343 9.87969 5.77692C9.86444 5.6676 9.82792 5.57413 9.77012 5.4965C9.73654 5.4514 9.69578 5.41164 9.64784 5.37724C9.61886 5.35644 9.58847 5.33868 9.55668 5.32395C9.42783 5.26425 9.27589 5.25441 9.10085 5.29442C9.01654 5.3137 8.94416 5.34774 8.8837 5.39656C8.8289 5.4408 8.7839 5.49716 8.74869 5.56566C8.72874 5.60446 8.7132 5.64446 8.70205 5.68564C8.67675 5.77916 8.67414 5.87883 8.69423 5.98463C8.7313 6.17987 8.80824 6.31895 8.92505 6.40186ZM9.35308 6.38694C9.99269 6.30826 9.93029 5.20741 9.12314 5.3919C8.57441 5.51738 8.71346 6.46562 9.35308 6.38694Z" fill="rgb(255,255,255)" fill-rule="evenodd" />
		<path id="Vector" d="M14.3 6.22808C13.8835 6.67642 13.1028 6.06732 13.5315 5.53623C13.9601 5.00514 14.77 5.72208 14.3 6.22808Z" fill="rgb(255,255,255)" fill-rule="nonzero" />
		<path id="Vector" d="M13.7124 5.28037C13.6155 5.31536 13.5293 5.37971 13.4537 5.47342C13.3729 5.57345 13.3254 5.67786 13.311 5.78665C13.3041 5.83902 13.3049 5.89241 13.3133 5.94681C13.3212 5.99777 13.3352 6.04614 13.355 6.09192C13.393 6.17943 13.4528 6.25746 13.5345 6.32602C13.6119 6.39102 13.6949 6.43595 13.7836 6.46081C13.8345 6.4751 13.8873 6.48276 13.942 6.48379C14.0163 6.48519 14.0858 6.47378 14.1506 6.44956C14.2324 6.41892 14.3067 6.36778 14.3732 6.29614C14.4555 6.20755 14.5078 6.1124 14.5301 6.01067C14.5436 5.94925 14.5461 5.88544 14.5377 5.81922C14.531 5.7666 14.5181 5.71642 14.4992 5.66869C14.4623 5.57614 14.4024 5.49279 14.3193 5.41864C14.234 5.34244 14.1421 5.29193 14.0438 5.26711C13.9969 5.25529 13.9486 5.24929 13.8988 5.24912C13.8328 5.2489 13.7707 5.25932 13.7124 5.28037ZM13.5315 5.53623C13.1028 6.06732 13.8835 6.67642 14.3 6.22808C14.77 5.72208 13.9601 5.00514 13.5315 5.53623Z" fill="rgb(255,255,255)" fill-rule="evenodd" />
		<path id="Vector" d="M11.4591 5.39117C12.2004 5.22228 12.3381 6.32041 11.6388 6.38553C11.0256 6.4425 10.911 5.51597 11.4591 5.39117Z" fill="rgb(255,255,255)" fill-rule="nonzero" />
		<path id="Vector" d="M11.2293 6.39238C11.3336 6.47044 11.4732 6.50135 11.648 6.4851L11.6481 6.4851C11.7716 6.47359 11.8761 6.43629 11.9616 6.37321C12.012 6.33604 12.0557 6.28993 12.0929 6.23486C12.1264 6.18515 12.1518 6.13287 12.1691 6.07804C12.1976 5.98754 12.2039 5.89006 12.188 5.7856C12.1717 5.67793 12.1351 5.58509 12.0781 5.50709C12.0451 5.46184 12.0052 5.42159 11.9585 5.38633C11.9168 5.35486 11.8726 5.32992 11.8258 5.31153C11.7114 5.2666 11.5818 5.26064 11.4368 5.29367C11.3526 5.31286 11.2798 5.34664 11.2185 5.395C11.1638 5.43812 11.1184 5.49283 11.082 5.55914C11.0603 5.59883 11.0432 5.63989 11.0307 5.68231C11.0043 5.77258 10.9989 5.86903 11.0146 5.97166C11.0446 6.16743 11.1162 6.30767 11.2293 6.39238ZM11.6388 6.38553C12.3381 6.32041 12.2004 5.22228 11.4591 5.39117C10.911 5.51597 11.0256 6.4425 11.6388 6.38553Z" fill="rgb(255,255,255)" fill-rule="evenodd" />
	</g>
</svg>
