<svg width="68" height="40" viewBox="0 0 68 40" fill="none" xmlns="http://www.w3.org/2000/svg">
<path d="M33.1038 0.10156C33.7944 0.0677506 34.5319 0.58491 35.0979 0.708252C35.6639 0.831594 36.1485 0.790271 36.7484 0.979354C39.9227 1.98049 41.3471 5.73209 39.7693 8.64659L40.674 10.4573C40.7598 10.7046 40.6183 10.9056 40.3791 10.9657L38.3293 10.2895C36.8905 11.3582 35.0153 11.6669 33.3142 11.0683C33.1088 10.9963 32.7607 10.7828 32.601 10.7503C32.4257 10.7146 32.2348 10.7584 32.0551 10.7334C31.2124 10.6163 30.4322 10.3502 29.7053 9.91319L27.8183 10.7302C27.4489 10.7628 27.338 10.5142 27.4175 10.1855C27.5578 9.60828 27.9992 8.97028 28.1388 8.37173C25.9907 5.04588 28.1457 0.439655 32.1196 0.10156H33.1038ZM28.4644 9.61454C28.5389 9.6759 29.5544 9.07672 29.7955 9.09988C29.9514 9.11491 30.5481 9.52563 30.776 9.62393C35.4379 11.635 39.4018 5.69264 35.8455 2.16394C32.2723 -1.3823 26.32 2.72117 28.4713 7.38249C28.6203 7.70556 28.8513 7.96226 28.9665 8.2872L28.4644 9.61516V9.61454ZM39.5714 9.89566L38.9597 8.60714C39.0975 8.19767 39.3392 7.83892 39.465 7.42256C40.1963 4.99955 38.8733 2.38683 36.4322 1.69499C38.7556 4.09796 38.3424 8.03488 35.5481 9.87875L34.1832 10.5518C35.2031 10.6933 36.2375 10.6069 37.1672 10.1386C37.5435 9.9495 37.8509 9.63395 38.2397 9.47554L39.5721 9.89566H39.5714Z" fill="white" fill-opacity="0.5"/>
<path d="M33.2354 0.0511475C33.5496 0.0651965 33.8677 0.177034 34.167 0.300171C34.5134 0.442719 34.8313 0.599128 35.1084 0.659546C35.388 0.720482 35.6474 0.740984 35.916 0.769897C36.1838 0.798719 36.4591 0.835983 36.7637 0.932007C39.9603 1.94043 41.3965 5.70852 39.8252 8.64587L40.7188 10.4349L40.7217 10.4408L40.7451 10.5414C40.7581 10.6397 40.7387 10.731 40.6914 10.808C40.6289 10.9096 40.5213 10.9814 40.3916 11.014L40.377 11.0179L40.3633 11.0131L38.3369 10.3441C36.8881 11.4097 35.0066 11.7168 33.2979 11.1156C33.1913 11.0783 33.0488 11.0044 32.918 10.9388C32.8517 10.9057 32.7875 10.8741 32.7305 10.849C32.6729 10.8236 32.6251 10.8062 32.5908 10.7992C32.5099 10.7828 32.4235 10.7841 32.3311 10.7875C32.2406 10.7908 32.1428 10.7958 32.0479 10.7826C31.2076 10.6658 30.4287 10.4018 29.7021 9.96912L27.8379 10.7758L27.8311 10.7797H27.6855C27.5594 10.7652 27.4651 10.7103 27.4072 10.6205C27.3327 10.5047 27.3281 10.3442 27.3691 10.1742C27.4407 9.87954 27.5887 9.57008 27.7334 9.26501C27.8761 8.96399 28.014 8.66568 28.084 8.3783C25.9381 5.02365 28.1105 0.392944 32.1152 0.052124L32.1191 0.0511475H33.2354ZM36.5928 1.79724C38.7951 4.2326 38.344 8.09323 35.5752 9.92029L35.5703 9.92419V9.92322L34.3584 10.5209C35.316 10.6295 36.277 10.531 37.1445 10.0941C37.3284 10.0017 37.4961 9.87849 37.6699 9.75525C37.8423 9.63299 38.0204 9.51069 38.2207 9.42908L38.2373 9.42224L38.2549 9.4281L39.4766 9.81287L38.915 8.6283L38.9062 8.61072L38.9121 8.59119C38.9822 8.38284 39.0789 8.18757 39.1719 7.99548C39.2652 7.80256 39.3554 7.61226 39.417 7.40857C40.1231 5.06899 38.8935 2.55346 36.5928 1.79724ZM35.8105 2.19958C32.2768 -1.3075 26.3887 2.7511 28.5166 7.36169C28.5894 7.51958 28.6828 7.66149 28.7744 7.80798C28.8652 7.95316 28.9541 8.10295 29.0137 8.27087L29.0195 8.28748L29.0137 8.30505L28.541 9.55212C28.5704 9.54205 28.6078 9.52946 28.6504 9.51111C28.7587 9.46442 28.8987 9.39643 29.0459 9.32654C29.1923 9.25703 29.3457 9.18579 29.4775 9.13318C29.5435 9.10687 29.6057 9.08444 29.6592 9.0697C29.711 9.05545 29.7603 9.04648 29.7998 9.05017C29.8267 9.05277 29.859 9.0633 29.8916 9.07654C29.9253 9.09021 29.9645 9.10882 30.0059 9.13025C30.0885 9.17307 30.1858 9.22917 30.2842 9.28748C30.4841 9.40594 30.6858 9.53102 30.7959 9.57849C35.4065 11.5671 39.3275 5.68967 35.8105 2.19958Z" stroke="white" stroke-opacity="0.5" stroke-width="0.1"/>
<path d="M21.9971 23.8621V23.2059L22.198 22.2117C22.6207 20.7359 23.6412 19.4506 24.9955 18.7293C25.3004 18.5671 25.6247 18.4619 25.9327 18.3085C23.7714 16.8504 24.3907 13.3636 26.9545 12.8145C30.2666 12.1051 32.0761 16.3827 29.3563 18.3085C29.6643 18.4619 29.9886 18.5671 30.2936 18.7293C31.8381 19.552 32.9996 21.1623 33.2387 22.9079C33.2807 23.2153 33.4247 23.9616 33.0603 24.0756C29.5084 24.1257 25.9484 24.0799 22.3934 24.0987C22.1999 24.1131 22.1016 24.0004 21.9971 23.8621ZM27.2814 13.517C26.4768 13.6197 25.6429 14.361 25.4406 15.1442C24.7788 17.7075 28.089 19.1444 29.5159 17.1102C30.6874 15.4404 29.2937 13.2603 27.2814 13.517ZM32.5419 23.3468C32.3472 21.3007 30.9434 19.5351 28.943 19.0016C25.9277 18.1977 23.0333 20.2814 22.7465 23.3468H32.5413H32.5419Z" fill="white" fill-opacity="0.5"/>
<path d="M26.9443 12.7653C30.2833 12.0504 32.1142 16.3177 29.4512 18.2965C29.5806 18.3576 29.7122 18.4137 29.8457 18.4694C30.0033 18.535 30.1627 18.6029 30.3174 18.6852C31.8754 19.5152 33.0466 21.1391 33.2881 22.901C33.3087 23.0517 33.3559 23.3208 33.3516 23.5651C33.3494 23.6872 33.3343 23.8078 33.2939 23.9069C33.253 24.0072 33.1844 24.0895 33.0752 24.1237L33.0684 24.1256H33.0605C29.5098 24.1757 25.9488 24.1293 22.3965 24.1481L22.3936 24.149V24.1481C22.2867 24.1553 22.2031 24.1284 22.1328 24.0787C22.0639 24.0301 22.0091 23.9612 21.957 23.8922L21.9473 23.8785V23.1959L21.9971 23.2057L21.9482 23.1959L22.1494 22.2018V22.1979L22.1982 22.2115L22.1504 22.1979C22.5766 20.7096 23.6053 19.413 24.9717 18.6852C25.1264 18.6029 25.2858 18.5351 25.4434 18.4694C25.5755 18.4143 25.7058 18.3588 25.834 18.2985C23.7237 16.7885 24.3645 13.3178 26.9443 12.7653ZM28.9297 19.0504C25.9632 18.2597 23.1159 20.2915 22.8027 23.2965H32.4854C32.2727 21.2934 30.8906 19.5733 28.9297 19.0504ZM29.4746 17.0817C30.6193 15.4499 29.2601 13.3157 27.2881 13.567C26.898 13.6168 26.4966 13.8219 26.168 14.1129C25.8394 14.4039 25.5873 14.777 25.4893 15.1569C24.8415 17.6659 28.0795 19.07 29.4746 17.0817Z" stroke="white" stroke-opacity="0.5" stroke-width="0.1"/>
<path d="M39.9373 12.7691C43.1711 12.4191 44.6444 16.4412 42.0567 18.3089C43.2532 18.7553 44.3545 19.5248 45.0563 20.6042C45.5522 21.3667 45.9416 22.4098 45.9917 23.3239C46.0049 23.5581 46.0487 23.9519 45.7926 24.0615H34.8966C34.6405 23.9519 34.6849 23.5575 34.6975 23.3239C34.7501 22.3835 35.1501 21.3254 35.6704 20.5478C36.3742 19.496 37.4573 18.7484 38.6325 18.3089C37.2526 17.3209 36.8769 15.4783 37.8455 14.0526C38.3007 13.3833 39.1278 12.8562 39.9361 12.7691H39.9373ZM39.9824 13.5173C39.1779 13.62 38.3439 14.3613 38.1417 15.1446C37.4799 17.7078 40.7901 19.1447 42.217 17.1105C43.3884 15.4407 41.9947 13.2606 39.9824 13.5173ZM45.2423 23.3471C45.0476 21.301 43.6438 19.5354 41.6435 19.002C38.6281 18.1981 35.7337 20.2817 35.4469 23.3471H45.2417H45.2423Z" fill="white" fill-opacity="0.5"/>
<path d="M39.9365 12.7194C43.1898 12.3711 44.6827 16.3759 42.1553 18.2936C43.328 18.7471 44.4057 19.5111 45.0986 20.5768C45.5983 21.3452 45.9913 22.3967 46.042 23.3209C46.0484 23.4351 46.0632 23.5992 46.043 23.7467C46.0227 23.8937 45.9647 24.0418 45.8125 24.1071L45.8027 24.1119H34.8867L34.877 24.1071C34.7244 24.0417 34.6666 23.893 34.6465 23.7457C34.6264 23.5983 34.6414 23.4346 34.6475 23.3209C34.7007 22.3703 35.1045 21.3039 35.6289 20.5201C36.3227 19.4832 37.3803 18.7408 38.5303 18.2946C37.1899 17.2794 36.8372 15.4482 37.8037 14.025V14.024C38.2665 13.3436 39.1068 12.8081 39.9307 12.7194L39.9365 12.7184V12.7194ZM41.6309 19.0504C38.664 18.2594 35.8168 20.292 35.5039 23.2975H45.1855C44.9732 21.2942 43.5919 19.5735 41.6309 19.0504ZM42.1758 17.0817C43.3206 15.4498 41.9605 13.3154 39.9883 13.567C39.5983 13.6169 39.1977 13.822 38.8691 14.1129C38.5406 14.4039 38.2886 14.777 38.1904 15.1569C37.5426 17.6661 40.7808 19.0704 42.1758 17.0817Z" stroke="white" stroke-opacity="0.5" stroke-width="0.1"/>
<path d="M30.3258 4.98552C31.0709 4.81522 31.1285 5.83138 30.5381 5.90401C29.9476 5.97663 29.8193 5.10135 30.3258 4.98552Z" fill="white" fill-opacity="0.5"/>
<path d="M30.3145 4.93701C30.5117 4.89192 30.6704 4.92409 30.7852 5.00635C30.8991 5.08813 30.964 5.21519 30.9824 5.34717C31.0186 5.60831 30.8743 5.91297 30.5439 5.95361C30.383 5.97335 30.2504 5.92811 30.1523 5.84521C30.0553 5.76313 29.9948 5.64639 29.9717 5.5249C29.926 5.28432 30.0263 5.00306 30.3145 4.93701Z" stroke="white" stroke-opacity="0.5" stroke-width="0.1"/>
<path d="M35.1048 5.75775C34.7203 6.1716 33.9997 5.60937 34.3954 5.11913C34.7911 4.62889 35.5387 5.29068 35.1048 5.75775Z" fill="white" fill-opacity="0.5"/>
<path d="M34.7344 4.89661C34.8674 4.89706 34.9961 4.95406 35.0947 5.04211C35.1933 5.13019 35.2652 5.25219 35.2822 5.38586C35.2993 5.52103 35.2598 5.66488 35.1416 5.79211C34.9265 6.02362 34.619 5.97772 34.4258 5.81555C34.3286 5.73393 34.2554 5.62021 34.2354 5.49133C34.2152 5.36142 34.2495 5.22058 34.3564 5.08801C34.4645 4.95411 34.5997 4.89615 34.7344 4.89661Z" stroke="white" stroke-opacity="0.5" stroke-width="0.1"/>
<path d="M32.4822 4.98515C33.1665 4.82925 33.2936 5.84291 32.6481 5.90302C32.0821 5.95561 31.9763 5.10035 32.4822 4.98515Z" fill="white" fill-opacity="0.5"/>
<path d="M32.4712 4.93665C32.6549 4.89481 32.8064 4.93086 32.9175 5.01477C33.0275 5.09784 33.0928 5.22405 33.1128 5.35559C33.1327 5.48711 33.1078 5.62764 33.0317 5.74036C32.9549 5.85416 32.8284 5.93688 32.6528 5.95325C32.4977 5.96766 32.371 5.91922 32.2788 5.83508C32.1876 5.75169 32.1322 5.635 32.1138 5.51477C32.0772 5.27629 32.1846 5.00191 32.4712 4.93665Z" stroke="white" stroke-opacity="0.5" stroke-width="0.1"/>
<path d="M10.3331 37.1L8.37855 34.492H7.75923V37.1H6.88139V31.2818H7.75923V33.7392H8.04616L10.245 31.2818H11.3161L8.98935 33.8869L11.4041 37.1H10.3331ZM13.6669 37.188C13.2578 37.188 12.9008 37.0943 12.5959 36.9068C12.291 36.7193 12.0542 36.457 11.8857 36.1199C11.7171 35.7827 11.6328 35.3888 11.6328 34.938C11.6328 34.4854 11.7171 34.0896 11.8857 33.7505C12.0542 33.4115 12.291 33.1483 12.5959 32.9608C12.9008 32.7733 13.2578 32.6795 13.6669 32.6795C14.076 32.6795 14.433 32.7733 14.7379 32.9608C15.0429 33.1483 15.2796 33.4115 15.4482 33.7505C15.6167 34.0896 15.701 34.4854 15.701 34.938C15.701 35.3888 15.6167 35.7827 15.4482 36.1199C15.2796 36.457 15.0429 36.7193 14.7379 36.9068C14.433 37.0943 14.076 37.188 13.6669 37.188ZM13.6697 36.475C13.9349 36.475 14.1546 36.4049 14.3288 36.2647C14.5031 36.1246 14.6319 35.938 14.7152 35.7051C14.8004 35.4721 14.843 35.2155 14.843 34.9352C14.843 34.6568 14.8004 34.4011 14.7152 34.1682C14.6319 33.9333 14.5031 33.7449 14.3288 33.6028C14.1546 33.4608 13.9349 33.3897 13.6697 33.3897C13.4027 33.3897 13.1811 33.4608 13.005 33.6028C12.8307 33.7449 12.701 33.9333 12.6158 34.1682C12.5324 34.4011 12.4908 34.6568 12.4908 34.9352C12.4908 35.2155 12.5324 35.4721 12.6158 35.7051C12.701 35.938 12.8307 36.1246 13.005 36.2647C13.1811 36.4049 13.4027 36.475 13.6697 36.475ZM19.6065 34.5517V35.2875H17.2429V34.5517H19.6065ZM17.4815 32.7363V37.1H16.6491V32.7363H17.4815ZM20.2003 32.7363V37.1H19.3707V32.7363H20.2003ZM23.1747 37.188C22.7524 37.188 22.3887 37.0924 22.0838 36.9011C21.7808 36.7079 21.5478 36.4418 21.3849 36.1028C21.2221 35.7638 21.1406 35.3755 21.1406 34.938C21.1406 34.4949 21.224 34.1038 21.3906 33.7647C21.5573 33.4238 21.7921 33.1577 22.0952 32.9665C22.3982 32.7752 22.7552 32.6795 23.1662 32.6795C23.4976 32.6795 23.7931 32.7411 24.0526 32.8642C24.312 32.9854 24.5213 33.1558 24.6804 33.3755C24.8414 33.5952 24.937 33.8519 24.9673 34.1454H24.1406C24.0952 33.9409 23.991 33.7647 23.8281 33.617C23.6671 33.4693 23.4512 33.3954 23.1804 33.3954C22.9437 33.3954 22.7363 33.4579 22.5582 33.5829C22.3821 33.706 22.2448 33.8822 22.1463 34.1113C22.0478 34.3386 21.9986 34.6076 21.9986 34.9182C21.9986 35.2363 22.0469 35.511 22.1435 35.742C22.2401 35.9731 22.3764 36.1521 22.5526 36.279C22.7306 36.4058 22.9399 36.4693 23.1804 36.4693C23.3414 36.4693 23.4872 36.4399 23.6179 36.3812C23.7505 36.3206 23.8613 36.2344 23.9503 36.1227C24.0412 36.011 24.1046 35.8765 24.1406 35.7193H24.9673C24.937 36.0015 24.8452 36.2534 24.6918 36.475C24.5384 36.6966 24.3329 36.8708 24.0753 36.9977C23.8196 37.1246 23.5194 37.188 23.1747 37.188ZM26.4126 38.7363C26.2857 38.7363 26.1702 38.7259 26.0661 38.7051C25.9619 38.6861 25.8842 38.6653 25.8331 38.6426L26.0376 37.9466C26.1929 37.9882 26.3312 38.0062 26.4524 38.0005C26.5736 37.9949 26.6806 37.9494 26.7734 37.8642C26.8681 37.779 26.9515 37.6397 27.0234 37.4466L27.1286 37.1568L25.532 32.7363H26.4411L27.5462 36.1227H27.5916L28.6967 32.7363H29.6087L27.8104 37.6824C27.727 37.9096 27.621 38.1019 27.4922 38.2591C27.3634 38.4182 27.21 38.5375 27.032 38.617C26.8539 38.6966 26.6475 38.7363 26.4126 38.7363ZM29.7038 37.1L29.701 36.3642H29.8572C29.9785 36.3642 30.0798 36.3386 30.1612 36.2875C30.2446 36.2344 30.3127 36.1454 30.3658 36.0204C30.4188 35.8954 30.4595 35.7231 30.4879 35.5034C30.5163 35.2818 30.5372 35.0034 30.5504 34.6682L30.6271 32.7363H33.6726V37.1H32.8402V33.4693H31.4141L31.3459 34.9522C31.3288 35.3121 31.2919 35.6265 31.2351 35.8954C31.1802 36.1644 31.0997 36.3888 30.9936 36.5687C30.8875 36.7468 30.7512 36.8803 30.5845 36.9693C30.4179 37.0564 30.2152 37.1 29.9766 37.1H29.7038ZM35.4446 34.2363H36.7116C37.2457 34.2363 37.6567 34.3689 37.9446 34.6341C38.2325 34.8992 38.3764 35.2411 38.3764 35.6596C38.3764 35.9324 38.312 36.1776 38.1832 36.3954C38.0545 36.6132 37.866 36.7856 37.6179 36.9125C37.3698 37.0375 37.0677 37.1 36.7116 37.1H34.8054V32.7363H35.6378V36.367H36.7116C36.956 36.367 37.1567 36.3036 37.3139 36.1767C37.4711 36.0479 37.5497 35.8841 37.5497 35.6852C37.5497 35.475 37.4711 35.3036 37.3139 35.171C37.1567 35.0365 36.956 34.9693 36.7116 34.9693H35.4446V34.2363ZM38.6314 33.4693V32.7363H42.3132V33.4693H40.8899V37.1H40.0604V33.4693H38.6314ZM44.2784 37.1966C44.0019 37.1966 43.7519 37.1454 43.5284 37.0432C43.3049 36.939 43.1278 36.7884 42.9972 36.5915C42.8684 36.3945 42.804 36.153 42.804 35.867C42.804 35.6208 42.8513 35.4182 42.946 35.2591C43.0407 35.1 43.1686 34.974 43.3295 34.8812C43.4905 34.7884 43.6705 34.7183 43.8693 34.671C44.0682 34.6236 44.2708 34.5877 44.4773 34.563C44.7386 34.5327 44.9508 34.5081 45.1136 34.4892C45.2765 34.4683 45.3949 34.4352 45.4688 34.3897C45.5426 34.3443 45.5795 34.2704 45.5795 34.1682V34.1483C45.5795 33.9002 45.5095 33.7079 45.3693 33.5716C45.2311 33.4352 45.0246 33.367 44.75 33.367C44.464 33.367 44.2386 33.4305 44.0739 33.5574C43.911 33.6824 43.7983 33.8216 43.7358 33.975L42.9375 33.7932C43.0322 33.528 43.1705 33.314 43.3523 33.1511C43.536 32.9863 43.7472 32.867 43.9858 32.7932C44.2244 32.7174 44.4754 32.6795 44.7386 32.6795C44.9129 32.6795 45.0975 32.7004 45.2926 32.742C45.4896 32.7818 45.6733 32.8557 45.8438 32.9636C46.0161 33.0716 46.1572 33.2259 46.267 33.4267C46.3769 33.6255 46.4318 33.8841 46.4318 34.2022V37.1H45.6023V36.5034H45.5682C45.5133 36.6132 45.4309 36.7212 45.321 36.8272C45.2112 36.9333 45.0701 37.0214 44.8977 37.0915C44.7254 37.1615 44.5189 37.1966 44.2784 37.1966ZM44.4631 36.5147C44.6979 36.5147 44.8987 36.4683 45.0653 36.3755C45.2339 36.2827 45.3617 36.1615 45.4489 36.0119C45.5379 35.8604 45.5824 35.6985 45.5824 35.5261V34.9636C45.5521 34.9939 45.4934 35.0223 45.4062 35.0488C45.321 35.0735 45.2235 35.0952 45.1136 35.1142C45.0038 35.1312 44.8968 35.1473 44.7926 35.1625C44.6884 35.1757 44.6013 35.1871 44.5312 35.1966C44.3665 35.2174 44.2159 35.2524 44.0795 35.3017C43.9451 35.3509 43.8371 35.4219 43.7557 35.5147C43.6761 35.6057 43.6364 35.7269 43.6364 35.8784C43.6364 36.0886 43.714 36.2477 43.8693 36.3557C44.0246 36.4617 44.2225 36.5147 44.4631 36.5147ZM51.1229 32.7363V36.404H51.7621V38.5062H50.924V37.1H47.5632V32.7363H48.3956V36.367H50.2933V32.7363H51.1229ZM53.5362 35.9096L55.4595 32.7363H56.3743V37.1H55.5419V33.9238L53.6271 37.1H52.7038V32.7363H53.5362V35.9096ZM58.3487 35.9096L60.272 32.7363H61.1868V37.1H60.3544V33.9238L58.4396 37.1H57.5163V32.7363H58.3487V35.9096Z" fill="white" fill-opacity="0.5"/>
</svg>
