<svg viewBox="0 0 20 20" xmlns="http://www.w3.org/2000/svg" xmlns:xlink="http://www.w3.org/1999/xlink" width="20.000000" height="20.000000" fill="none" customFrame="#000000">
	<g id="Group 15">
		<path id="Vector" d="M10.3807 2.81366C9.4579 1.86305 8.20945 1.28768 6.82529 1.18761C5.44114 1.11256 4.11126 1.51282 3.07993 2.36337C2.0486 3.21392 1.42437 4.36466 1.31581 5.64049C1.23439 6.91631 1.66863 8.1421 2.5914 9.09272C3.62273 10.1684 5.03403 10.7188 6.49961 10.7188C7.72092 10.7188 8.9151 10.3185 9.91929 9.54301C12.0362 7.81689 12.2534 4.78994 10.3807 2.81366ZM9.4579 9.09272C7.58522 10.6187 4.70835 10.4436 3.07993 8.69246C2.29286 7.86693 1.88575 6.79123 1.96718 5.6655C2.0486 4.56479 2.5914 3.53913 3.48703 2.81366C4.32838 2.13822 5.35971 1.788 6.47247 1.788C6.58103 1.788 6.66245 1.788 6.77101 1.788C7.96518 1.86305 9.07794 2.36337 9.86501 3.1889C11.5206 4.94003 11.3306 7.59175 9.4579 9.09272Z" fill="rgb(255,255,255)" fill-opacity="0.600000024" fill-rule="nonzero" />
		<path id="Vector" d="M19.7712 17.5734L13.8546 11.3194C13.8275 11.2944 13.7732 11.2944 13.7461 11.2693C13.7189 11.2443 13.6646 11.2193 13.6375 11.2193C13.4747 11.2193 13.2847 11.2693 13.0676 11.3444L11.5206 9.71834C12.3619 8.76773 12.8776 7.61698 12.959 6.36617C13.0676 4.76514 12.4976 3.23915 11.3577 2.03837C10.2178 0.837594 8.6437 0.112124 6.90672 0.0120595C5.16974 -0.0880053 3.51418 0.437335 2.21145 1.48802C0.908713 2.5387 0.121645 3.98963 0.0130835 5.59067C-0.0954777 7.19171 0.474469 8.7177 1.61436 9.91847C2.75425 11.1193 4.32839 11.8447 6.06537 11.9448C6.20107 11.9448 6.36391 11.9698 6.49961 11.9698C7.66665 11.9698 8.80654 11.6696 9.81073 11.1193L11.3577 12.7453C11.2492 12.9454 11.1677 13.1205 11.1406 13.2957C11.1406 13.3707 11.1677 13.4458 11.222 13.5208L17.1386 19.7498C17.3286 19.8999 17.5728 20 17.8714 20C17.9528 20 18.0614 20 18.1428 19.975C18.4956 19.8999 18.8756 19.7248 19.2284 19.4496C19.5541 19.1745 19.7984 18.8493 19.9069 18.524C20.0698 18.1738 20.0155 17.8236 19.7712 17.5734ZM6.09251 11.3194C4.54551 11.2193 3.10708 10.5689 2.10289 9.4932C1.07155 8.4175 0.58303 7.04161 0.664451 5.59067C0.773012 4.16475 1.47866 2.83889 2.64569 1.91329C3.70416 1.03772 5.06118 0.587432 6.47247 0.587432C6.60817 0.587432 6.74388 0.587432 6.87958 0.587432C8.42657 0.687497 9.86501 1.33792 10.8692 2.41361C11.9005 3.48931 12.3891 4.8652 12.3076 6.31614C12.1991 7.74206 11.4934 9.06792 10.3264 9.99352C9.15936 10.9441 7.66665 11.4194 6.09251 11.3194ZM10.7606 10.4688C10.8692 10.3688 10.9506 10.2687 11.0592 10.1686L12.4705 11.6446C12.3348 11.7196 12.1991 11.7947 12.0634 11.8948C11.9277 11.9948 11.8191 12.0949 11.7105 12.22L10.3264 10.744C10.4621 10.6439 10.6249 10.5689 10.7606 10.4688ZM19.3098 18.3489C19.2284 18.5741 19.0384 18.7992 18.8213 18.9994C18.577 19.1995 18.3056 19.3246 18.0342 19.3746C17.9528 19.3996 17.7357 19.4246 17.6271 19.2995L11.8191 13.1956C11.8462 13.0955 11.9005 12.9955 12.0091 12.8454C12.1448 12.6703 12.3076 12.4951 12.4976 12.345C12.6876 12.1949 12.9047 12.0699 13.1218 11.9698C13.2575 11.8948 13.3932 11.8697 13.5018 11.8447L19.3098 17.9737C19.3913 18.0738 19.337 18.2739 19.3098 18.3489Z" fill="rgb(255,255,255)" fill-opacity="0.600000024" fill-rule="nonzero" />
		<path id="Vector" d="M6.85317 2.73855C6.69032 2.71354 6.50034 2.83862 6.4732 2.98872C6.44606 3.16383 6.58176 3.31393 6.74461 3.33894C8.04734 3.51406 8.80727 3.98936 9.05153 4.83991C9.07867 4.96499 9.21437 5.06506 9.37721 5.06506C9.40436 5.06506 9.4315 5.06506 9.45864 5.06506C9.62148 5.01503 9.73004 4.86493 9.7029 4.68982C9.37722 3.5891 8.4273 2.93868 6.85317 2.73855Z" fill="rgb(255,255,255)" fill-opacity="0.600000024" fill-rule="nonzero" />
	</g>
</svg>
