<svg viewBox="0 0 91 54.1" xmlns="http://www.w3.org/2000/svg" xmlns:xlink="http://www.w3.org/1999/xlink" width="91.000000" height="54.099976" fill="none" customFrame="#000000">
	<rect id="Frame 36744" width="91.000000" height="54.000000" x="0.000000" y="0.099976" />
	<g id="Group">
		<path id="Vector" d="M45.4999 0.0999756C36.7069 0.0999756 29.5532 7.27754 29.5532 16.1C29.5532 24.9224 36.7069 32.1 45.4999 32.1C54.2929 32.1 61.4466 24.9224 61.4466 16.1C61.4466 7.27754 54.2929 0.0999756 45.4999 0.0999756ZM45.4999 31.0895C37.2622 31.0895 30.5604 24.3652 30.5604 16.1C30.5604 7.83473 37.2622 1.11048 45.4999 1.11048C53.7375 1.11048 60.4394 7.83473 60.4394 16.1C60.4394 24.3652 53.7375 31.0895 45.4999 31.0895Z" fill="rgb(255,255,255)" fill-opacity="0.5" fill-rule="nonzero" />
		<path id="Vector" d="M29.8284 12.6184C29.5783 13.7513 29.4532 14.9118 29.4532 16.1C29.4532 17.2884 29.5783 18.4492 29.8286 19.5823C30.0374 20.5277 30.3333 21.4539 30.7162 22.3608C31.0993 23.268 31.5566 24.1264 32.0881 24.9362C32.6847 25.8452 33.3747 26.6928 34.1583 27.479C34.9646 28.2879 35.8356 28.9976 36.7714 29.6079C37.5553 30.1192 38.3847 30.5608 39.2595 30.9327C40.1775 31.3229 41.1153 31.623 42.0728 31.833C43.1883 32.0776 44.3307 32.2 45.4999 32.2C46.669 32.1999 47.8113 32.0776 48.9268 31.833C49.8844 31.623 50.8222 31.3229 51.7402 30.9327C52.615 30.5608 53.4444 30.1192 54.2283 29.608C55.1641 28.9976 56.0352 28.288 56.8414 27.479C57.6252 26.6926 58.3155 25.8448 58.9121 24.9356C59.4434 24.126 59.9006 23.2678 60.2835 22.3608C60.6667 21.4534 60.9627 20.5267 61.1715 19.5808C61.4215 18.4481 61.5466 17.2878 61.5466 16.1C61.5466 14.9126 61.4217 13.7528 61.1718 12.6206C60.963 11.6742 60.6669 10.747 60.2835 9.83911C59.9003 8.93147 59.4427 8.07258 58.9109 7.26246C58.3145 6.35398 57.6247 5.50681 56.8414 4.72097C56.0352 3.91198 55.1641 3.20231 54.2282 2.59196C53.4444 2.08072 52.615 1.63916 51.7402 1.26729C50.8223 0.877051 49.8845 0.576936 48.927 0.366944C47.8114 0.122299 46.6691 -2.38717e-05 45.4999 -2.44156e-05C44.3302 -2.44677e-05 43.1874 0.122398 42.0714 0.367243C41.1144 0.577221 40.1771 0.877237 39.2595 1.26729C38.3847 1.63917 37.5554 2.08075 36.7715 2.59201C35.8357 3.20235 34.9646 3.912 34.1583 4.72097C33.3752 5.5067 32.6855 6.35373 32.0892 7.26208C31.5572 8.07231 31.0996 8.93132 30.7162 9.83911C30.3332 10.7463 30.0372 11.6727 29.8284 12.6184ZM29.5532 16.1C29.5532 7.27754 36.7069 0.0999756 45.4999 0.0999756C54.2929 0.0999756 61.4466 7.27754 61.4466 16.1C61.4466 24.9224 54.2929 32.1 45.4999 32.1C36.7069 32.1 29.5532 24.9224 29.5532 16.1ZM30.5604 16.1C30.5604 24.3652 37.2622 31.0895 45.4999 31.0895C53.7375 31.0895 60.4394 24.3652 60.4394 16.1C60.4394 7.83473 53.7375 1.11048 45.4999 1.11048C37.2622 1.11048 30.5604 7.83473 30.5604 16.1ZM31.0082 19.324C30.7763 18.275 30.6604 17.2003 30.6604 16.1C30.6604 14.9999 30.7763 13.9255 31.0081 12.8767C31.2011 12.0033 31.4746 11.1477 31.8284 10.3099C32.1826 9.47103 32.6054 8.67723 33.0968 7.92845C33.6487 7.08764 34.287 6.30361 35.0118 5.57635C35.7584 4.82728 36.565 4.17029 37.4316 3.60538C38.1557 3.13341 38.9216 2.72573 39.7294 2.38231C40.5772 2.02193 41.4432 1.74467 42.3275 1.55053C43.36 1.32383 44.4175 1.21048 45.4999 1.21048C46.5822 1.21048 47.6396 1.32381 48.6721 1.55048C49.5564 1.74462 50.4225 2.0219 51.2703 2.38231C52.078 2.72564 52.8437 3.13321 53.5676 3.60503C54.4344 4.17002 55.2412 4.82712 55.9879 5.57635C56.7123 6.3031 57.3502 7.08655 57.9018 7.92671C58.3937 8.67599 58.8169 9.47038 59.1714 10.3099C59.525 11.1472 59.7983 12.0024 59.9914 12.8752C60.2234 13.9245 60.3394 14.9994 60.3394 16.1C60.3394 17.2005 60.2234 18.2755 59.9914 19.3247C59.7983 20.1976 59.525 21.0527 59.1714 21.8901C58.8172 22.7289 58.3944 23.5226 57.903 24.2714C57.3512 25.1122 56.7128 25.8963 55.9879 26.6236C55.2412 27.3729 54.4343 28.03 53.5674 28.595C52.8436 29.0668 52.0779 29.4743 51.2703 29.8176C50.4224 30.1781 49.5563 30.4554 48.6719 30.6495C47.6394 30.8762 46.5821 30.9895 45.4999 30.9895C44.4178 30.9895 43.3606 30.8762 42.3283 30.6496C41.4437 30.4555 40.5775 30.1781 39.7294 29.8176C38.9214 29.4742 38.1554 29.0664 37.4312 28.5943C36.5647 28.0295 35.7583 27.3726 35.0118 26.6236C34.2869 25.8962 33.6485 25.1121 33.0966 24.2711C32.6052 23.5225 32.1825 22.7288 31.8284 21.8901C31.4747 21.0525 31.2013 20.1971 31.0082 19.324Z" fill="rgb(255,255,255)" fill-opacity="0.5" fill-rule="evenodd" />
		<path id="Vector" d="M45.5005 2.69067C38.1314 2.69067 32.1362 8.70592 32.1362 16.0996C32.1362 23.4933 38.1314 29.5085 45.5005 29.5085C48.0517 29.5085 50.534 28.7814 52.6788 27.4059C54.766 26.0673 56.4412 24.1815 57.5233 21.9523C57.645 21.7014 57.5411 21.399 57.2911 21.2768C57.0411 21.1545 56.7397 21.2589 56.6179 21.5097C54.5571 25.7549 50.1933 28.498 45.5005 28.498C38.6868 28.498 33.1434 22.936 33.1434 16.0995C33.1434 9.26305 38.6868 3.70117 45.5005 3.70117C52.3142 3.70117 57.8576 9.26299 57.8576 16.0995C57.8576 17.4549 57.6399 18.7881 57.2105 20.0622C57.1214 20.3266 57.2628 20.6133 57.5262 20.7027C57.7897 20.7922 58.0755 20.6502 58.1646 20.3859C58.6292 19.0074 58.8647 17.5653 58.8647 16.0996C58.8647 8.70586 52.8696 2.69067 45.5005 2.69067Z" fill="rgb(255,255,255)" fill-opacity="0.5" fill-rule="nonzero" />
		<path id="Vector" d="M32.3509 13.1791C32.1411 14.1295 32.0362 15.103 32.0362 16.0996C32.0362 17.0965 32.1412 18.0702 32.351 19.0208C32.5262 19.8143 32.7746 20.5916 33.096 21.3529C33.4175 22.1141 33.8012 22.8345 34.2472 23.514C34.7478 24.2766 35.3267 24.9877 35.9841 25.6473C36.661 26.3264 37.3922 26.9221 38.1778 27.4344C38.8352 27.8631 39.5308 28.2333 40.2644 28.5452C41.035 28.8727 41.8222 29.1246 42.626 29.3009C43.5617 29.506 44.5198 29.6085 45.5005 29.6085C46.8198 29.6085 48.0862 29.4294 49.2998 29.071C50.4955 28.718 51.6398 28.191 52.7328 27.49C53.8096 26.7995 54.756 25.9935 55.5722 25.0721C56.3803 24.1598 57.0606 23.1345 57.6133 21.996C57.6497 21.9209 57.6702 21.8449 57.6749 21.7679C57.6796 21.6908 57.6683 21.6128 57.6412 21.5338C57.6138 21.4542 57.5744 21.3854 57.5228 21.3274C57.472 21.2701 57.4094 21.2233 57.335 21.187C57.26 21.1503 57.1841 21.1296 57.1072 21.125C57.0303 21.1203 56.9525 21.1316 56.8737 21.1589C56.7955 21.1859 56.7277 21.2248 56.6703 21.2755C56.6121 21.3269 56.5647 21.3904 56.5279 21.466C56.0505 22.4494 55.4663 23.3404 54.7753 24.1389C53.9869 25.05 53.0595 25.8407 51.993 26.5111C50.8911 27.2037 49.7399 27.7057 48.5392 28.0169C47.5592 28.271 46.5463 28.398 45.5005 28.398C44.6066 28.398 43.7333 28.3044 42.8805 28.1172C42.15 27.9568 41.4346 27.7278 40.7343 27.4301C40.0671 27.1465 39.4346 26.8098 38.8366 26.42C38.1207 25.9534 37.4543 25.4107 36.8376 24.7919C36.2386 24.1908 35.711 23.5428 35.2551 22.8479C34.8495 22.2297 34.5005 21.5745 34.2081 20.882C33.9159 20.1902 33.6901 19.4837 33.5307 18.7625C33.3391 17.896 33.2434 17.0084 33.2434 16.0995C33.2434 15.1907 33.3391 14.303 33.5307 13.4366C33.6902 12.7154 33.916 12.0089 34.2081 11.3171C34.5006 10.6244 34.8498 9.96884 35.2556 9.35049C35.7114 8.65584 36.2388 8.00809 36.8376 7.40727C37.4543 6.78855 38.1205 6.24589 38.8363 5.77929C39.4344 5.38946 40.067 5.05272 40.7343 4.76907C41.4344 4.47143 42.1496 4.24244 42.8799 4.08209C43.7329 3.89481 44.6064 3.80117 45.5005 3.80117C46.3946 3.80117 47.2681 3.89482 48.1211 4.08211C48.8514 4.24246 49.5666 4.47144 50.2667 4.76906C50.9342 5.05281 51.567 5.38968 52.1653 5.77969C52.8808 6.24619 53.5469 6.78871 54.1633 7.40724C54.7619 8.00778 55.289 8.65518 55.7447 9.34946C56.1508 9.9681 56.5002 10.624 56.7928 11.317C57.0848 12.0085 57.3105 12.7146 57.47 13.4353C57.6617 14.3022 57.7576 15.1903 57.7576 16.0995C57.7576 16.8798 57.6862 17.6466 57.5434 18.3998C57.439 18.9505 57.2965 19.494 57.1157 20.0302C57.089 20.1095 57.0783 20.1877 57.0834 20.2648C57.0886 20.3417 57.1096 20.4175 57.1465 20.4923C57.1836 20.5677 57.2314 20.6309 57.2899 20.6819C57.3476 20.7323 57.4156 20.7708 57.4941 20.7974C57.573 20.8242 57.6508 20.835 57.7276 20.8299C57.8046 20.8248 57.8805 20.8037 57.9553 20.7666C58.0295 20.7297 58.0918 20.6825 58.1423 20.6249C58.1935 20.5665 58.2325 20.4975 58.2593 20.4178C58.4606 19.8206 58.6188 19.2152 58.734 18.6018C58.8878 17.7822 58.9647 16.9481 58.9647 16.0996C58.9647 15.1033 58.8599 14.1302 58.6503 13.1801C58.4751 12.386 58.2266 11.6081 57.905 10.8463C57.5835 10.085 57.1997 9.36462 56.7537 8.68509C56.2532 7.92254 55.6742 7.21147 55.0168 6.55189C54.3404 5.87322 53.6097 5.27785 52.8246 4.76579C52.1667 4.33671 51.4707 3.96613 50.7366 3.65404C49.9666 3.32671 49.18 3.07494 48.3768 2.89875C47.4406 2.69337 46.4818 2.59067 45.5005 2.59067C44.5194 2.59067 43.5608 2.69333 42.6247 2.89863C41.8214 3.07483 41.0346 3.32664 40.2644 3.65405C39.5304 3.96607 38.8346 4.33654 38.1769 4.76548C37.3916 5.27762 36.6607 5.8731 35.9841 6.55192C35.327 7.21119 34.7483 7.92191 34.2479 8.68407C33.8016 9.3639 33.4176 10.0847 33.096 10.8464C32.7745 11.6078 32.5261 12.3854 32.3509 13.1791ZM32.1362 16.0996C32.1362 8.70592 38.1314 2.69067 45.5005 2.69067C52.8696 2.69067 58.8647 8.70586 58.8647 16.0996C58.8647 17.5653 58.6292 19.0074 58.1646 20.3859C58.0755 20.6502 57.7897 20.7922 57.5262 20.7027C57.2628 20.6133 57.1214 20.3266 57.2105 20.0622C57.6399 18.7881 57.8576 17.4549 57.8576 16.0995C57.8576 9.26299 52.3142 3.70117 45.5005 3.70117C38.6868 3.70117 33.1434 9.26305 33.1434 16.0995C33.1434 22.936 38.6868 28.498 45.5005 28.498C50.1933 28.498 54.5571 25.7549 56.6179 21.5097C56.7397 21.2589 57.0411 21.1545 57.2911 21.2768C57.5411 21.399 57.645 21.7014 57.5233 21.9523C56.4412 24.1815 54.766 26.0673 52.6788 27.4059C50.534 28.7814 48.0517 29.5085 45.5005 29.5085C38.1314 29.5085 32.1362 23.4933 32.1362 16.0996Z" fill="rgb(255,255,255)" fill-opacity="0.5" fill-rule="evenodd" />
		<path id="Vector" d="M49.5137 17.8812C49.5957 17.6949 49.5582 17.4774 49.4186 17.3296C49.279 17.1819 49.0646 17.1325 48.8747 17.2045C48.579 17.3169 48.2681 17.3739 47.9508 17.3739C46.5103 17.3739 45.3383 16.198 45.3383 14.7527C45.3383 13.9892 45.6701 13.2649 46.2486 12.7655C46.4024 12.6327 46.4618 12.4202 46.3991 12.2266C46.3365 12.0329 46.1642 11.8959 45.9619 11.879C45.8327 11.8682 45.7152 11.8629 45.6031 11.8629C43.2464 11.8629 41.3291 13.7866 41.3291 16.1512C41.3291 18.5157 43.2464 20.4394 45.6031 20.4394C47.2948 20.4395 48.8298 19.4354 49.5137 17.8812ZM45.6029 19.429C43.8016 19.429 42.3361 17.9587 42.3361 16.1513C42.3361 14.6237 43.3832 13.3368 44.7949 12.975C44.494 13.512 44.3311 14.1227 44.331 14.7529C44.331 16.7553 45.9548 18.3845 47.9506 18.3845C47.965 18.3845 47.9793 18.3844 47.9937 18.3842C47.3859 19.0388 46.5248 19.429 45.6029 19.429Z" fill="rgb(255,255,255)" fill-opacity="0.5" fill-rule="nonzero" />
		<path id="Vector" d="M49.6577 17.5718C49.6387 17.4618 49.5832 17.3582 49.4913 17.2609L49.4913 17.2609C49.399 17.1632 49.2984 17.1019 49.1894 17.0771C49.081 17.0523 48.9642 17.0636 48.8393 17.111C48.7041 17.1624 48.5666 17.2016 48.4268 17.2287C48.271 17.2588 48.1124 17.2739 47.9508 17.2739C47.6099 17.2739 47.2934 17.2142 47.0013 17.0948C46.6999 16.9716 46.4246 16.7849 46.1752 16.5347C45.9286 16.2873 45.7439 16.0145 45.6211 15.7162C45.4993 15.4201 45.4383 15.099 45.4383 14.7527C45.4383 14.3685 45.5109 14.0174 45.6561 13.6994C45.802 13.3798 46.0213 13.0938 46.3139 12.8412C46.4151 12.7538 46.4808 12.6564 46.5109 12.5491C46.5412 12.4414 46.5356 12.3236 46.4943 12.1958C46.4528 12.0676 46.3881 11.9688 46.3002 11.8993C46.2131 11.8305 46.1031 11.7904 45.9703 11.7793C45.8387 11.7684 45.7163 11.7629 45.6031 11.7629C45.0089 11.7629 44.4572 11.867 43.9482 12.0753C43.4242 12.2897 42.9452 12.6145 42.5115 13.0497C42.0825 13.4801 41.7612 13.9549 41.5474 14.4739C41.3352 14.9893 41.2291 15.5484 41.2291 16.1512C41.2291 16.754 41.3352 17.3131 41.5475 17.8285C41.7612 18.3475 42.0825 18.8222 42.5115 19.2526C42.9453 19.6878 43.4242 20.0126 43.9483 20.227C44.4573 20.4353 45.0089 20.5394 45.6031 20.5394C46.0294 20.5395 46.4388 20.4819 46.8314 20.3667C47.2359 20.2479 47.6224 20.068 47.991 19.8269C48.3514 19.5911 48.6655 19.3159 48.9332 19.0013C49.205 18.682 49.429 18.322 49.6053 17.9214C49.6594 17.7985 49.6768 17.682 49.6577 17.5718ZM49.4186 17.3296C49.5582 17.4774 49.5957 17.6949 49.5137 17.8812C48.8298 19.4354 47.2948 20.4395 45.6031 20.4394C43.2464 20.4394 41.3291 18.5157 41.3291 16.1512C41.3291 13.7866 43.2464 11.8629 45.6031 11.8629C45.7152 11.8629 45.8327 11.8682 45.9619 11.879C46.1642 11.8959 46.3365 12.0329 46.3991 12.2266C46.4618 12.4202 46.4024 12.6327 46.2486 12.7655C45.6701 13.2649 45.3383 13.9892 45.3383 14.7527C45.3383 16.198 46.5103 17.3739 47.9508 17.3739C48.2681 17.3739 48.579 17.3169 48.8747 17.2045C49.0646 17.1325 49.279 17.1819 49.4186 17.3296ZM42.6666 17.3658C42.5129 16.9926 42.4361 16.5877 42.4361 16.1513C42.4361 15.7833 42.4931 15.435 42.6072 15.1066C42.7203 14.7809 42.8895 14.4746 43.1147 14.1878C43.3475 13.8915 43.6139 13.6484 43.914 13.4586C44.1253 13.3249 44.3532 13.2177 44.5979 13.1368C44.4944 13.3511 44.4128 13.5712 44.3531 13.7971C44.2718 14.1049 44.2311 14.4235 44.231 14.7528C44.231 15.2654 44.3212 15.7407 44.5017 16.179C44.6834 16.6204 44.9567 17.0241 45.3215 17.3902C45.6904 17.7603 46.0977 18.0365 46.5434 18.2189C46.9208 18.3733 47.3258 18.4604 47.7584 18.4801C47.4838 18.7406 47.1835 18.9411 46.8573 19.0817C46.4747 19.2466 46.0566 19.329 45.6029 19.329C45.1732 19.329 44.7741 19.2538 44.4059 19.1032C44.0262 18.948 43.6791 18.7127 43.3648 18.3973C43.0541 18.0856 42.8214 17.7417 42.6666 17.3658ZM47.8566 18.3833C45.904 18.3331 44.331 16.7238 44.331 14.7529C44.3311 14.1696 44.4707 13.6031 44.73 13.0961C44.7509 13.0554 44.7725 13.015 44.7949 12.975C44.7498 12.9865 44.7051 12.9991 44.6607 13.0125C43.3173 13.4193 42.3361 14.6726 42.3361 16.1513C42.3361 17.9587 43.8016 19.429 45.6029 19.429C46.4769 19.429 47.2962 19.0783 47.8969 18.4841C47.9298 18.4516 47.9621 18.4183 47.9937 18.3842C47.9793 18.3844 47.965 18.3845 47.9506 18.3845C47.9191 18.3845 47.8878 18.3841 47.8566 18.3833Z" fill="rgb(255,255,255)" fill-opacity="0.5" fill-rule="evenodd" />
		<path id="Vector" d="M39.342 16.1519C39.342 15.8728 39.1165 15.6466 38.8384 15.6466L35.7394 15.6466C35.4613 15.6466 35.2358 15.8729 35.2358 16.1519C35.2358 16.4309 35.4613 16.6571 35.7394 16.6571L38.8384 16.6571C39.1165 16.6571 39.342 16.4309 39.342 16.1519Z" fill="rgb(255,255,255)" fill-opacity="0.5" fill-rule="nonzero" />
		<path id="Vector" d="M39.0691 15.5905C38.9983 15.5612 38.9214 15.5466 38.8384 15.5466L35.7394 15.5466C35.6564 15.5466 35.5795 15.5612 35.5087 15.5905C35.4371 15.6201 35.3717 15.6646 35.3125 15.724C35.2539 15.7828 35.2098 15.8477 35.1804 15.9186C35.1507 15.9902 35.1358 16.068 35.1358 16.1519C35.1358 16.2358 35.1507 16.3135 35.1804 16.3851C35.2099 16.456 35.2539 16.5209 35.3125 16.5797C35.3717 16.6391 35.4371 16.6836 35.5087 16.7132C35.5796 16.7425 35.6565 16.7571 35.7394 16.7571L38.8384 16.7571C38.9213 16.7571 38.9983 16.7425 39.0692 16.7132C39.1407 16.6836 39.2061 16.6391 39.2653 16.5797C39.3239 16.5209 39.3679 16.4561 39.3974 16.3851C39.4271 16.3136 39.442 16.2358 39.442 16.1519C39.442 16.0679 39.4271 15.9902 39.3974 15.9186C39.368 15.8477 39.3239 15.7828 39.2653 15.724C39.2061 15.6646 39.1407 15.6201 39.0691 15.5905ZM38.8384 15.6466C39.1165 15.6466 39.342 15.8728 39.342 16.1519C39.342 16.4309 39.1165 16.6571 38.8384 16.6571L35.7394 16.6571C35.4613 16.6571 35.2358 16.4309 35.2358 16.1519C35.2358 15.8729 35.4613 15.6466 35.7394 15.6466L38.8384 15.6466Z" fill="rgb(255,255,255)" fill-opacity="0.5" fill-rule="evenodd" />
		<path id="Vector" d="M55.7643 16.1519C55.7643 15.8728 55.5389 15.6466 55.2607 15.6466L52.1618 15.6466C51.8836 15.6466 51.6582 15.8729 51.6582 16.1519C51.6582 16.4309 51.8836 16.6571 52.1618 16.6571L55.2608 16.6571C55.5388 16.6571 55.7643 16.4309 55.7643 16.1519Z" fill="rgb(255,255,255)" fill-opacity="0.5" fill-rule="nonzero" />
		<path id="Vector" d="M55.4917 15.5906C55.4208 15.5613 55.3438 15.5466 55.2607 15.5466L52.1618 15.5466C52.0787 15.5466 52.0018 15.5613 51.9309 15.5906C51.8594 15.6202 51.794 15.6646 51.7348 15.724C51.6762 15.7828 51.6322 15.8476 51.6028 15.9185C51.5731 15.9901 51.5582 16.0679 51.5582 16.1519C51.5582 16.2359 51.5731 16.3137 51.6029 16.3853C51.6323 16.4562 51.6763 16.521 51.7348 16.5797C51.794 16.6391 51.8593 16.6835 51.9308 16.7131C52.0017 16.7424 52.0787 16.7571 52.1618 16.7571L55.2608 16.7571C55.3437 16.7571 55.4207 16.7425 55.4915 16.7132C55.5631 16.6836 55.6284 16.6391 55.6877 16.5797C55.7463 16.5209 55.7903 16.456 55.8197 16.3851C55.8495 16.3135 55.8643 16.2358 55.8643 16.1518C55.8643 16.0679 55.8494 15.9901 55.8197 15.9184C55.7902 15.8476 55.7462 15.7828 55.6877 15.724C55.6285 15.6646 55.5632 15.6202 55.4917 15.5906ZM55.2607 15.6466C55.5389 15.6466 55.7643 15.8728 55.7643 16.1519C55.7643 16.4309 55.5388 16.6571 55.2608 16.6571L52.1618 16.6571C51.8836 16.6571 51.6582 16.4309 51.6582 16.1519C51.6582 15.8729 51.8836 15.6466 52.1618 15.6466L55.2607 15.6466Z" fill="rgb(255,255,255)" fill-opacity="0.5" fill-rule="evenodd" />
		<path id="Vector" d="M38.5939 23.5826C38.7227 23.5826 38.8516 23.5333 38.9499 23.4346L41.1412 21.236C41.3379 21.0388 41.3379 20.7188 41.1412 20.5215C40.9446 20.3242 40.6258 20.3242 40.4291 20.5215L38.2378 22.7201C38.0412 22.9175 38.0412 23.2373 38.2378 23.4346C38.3361 23.5333 38.4651 23.5826 38.5939 23.5826Z" fill="rgb(255,255,255)" fill-opacity="0.5" fill-rule="nonzero" />
		<path id="Vector" d="M39.0208 23.5052L39.0208 23.5052L41.2121 21.3066C41.2706 21.2479 41.3146 21.1831 41.3441 21.1122C41.3738 21.0406 41.3887 20.9628 41.3887 20.8788C41.3887 20.7948 41.3739 20.7171 41.3441 20.6455C41.3147 20.5746 41.2707 20.5097 41.2121 20.4509C41.1529 20.3916 41.0876 20.3471 41.0161 20.3175C40.9452 20.2882 40.8682 20.2735 40.7852 20.2735C40.7022 20.2735 40.6253 20.2882 40.5544 20.3175C40.4829 20.347 40.4175 20.3915 40.3583 20.4509L38.167 22.6496C38.1084 22.7084 38.0643 22.7732 38.0349 22.8442C38.0052 22.9157 37.9903 22.9935 37.9903 23.0774C37.9903 23.1613 38.0052 23.239 38.0349 23.3106C38.0643 23.3815 38.1084 23.4464 38.167 23.5052C38.2261 23.5645 38.2913 23.609 38.3627 23.6385C38.4337 23.6679 38.5107 23.6826 38.5939 23.6826C38.677 23.6826 38.754 23.668 38.825 23.6386C38.8964 23.609 38.9617 23.5646 39.0208 23.5052ZM38.9499 23.4346C38.8516 23.5333 38.7227 23.5826 38.5939 23.5826C38.4651 23.5826 38.3361 23.5333 38.2378 23.4346C38.0412 23.2373 38.0412 22.9175 38.2378 22.7201L40.4291 20.5215C40.6258 20.3242 40.9446 20.3242 41.1412 20.5215C41.3379 20.7188 41.3379 21.0388 41.1412 21.236L38.9499 23.4346Z" fill="rgb(255,255,255)" fill-opacity="0.5" fill-rule="evenodd" />
		<path id="Vector" d="M50.5682 11.7821L52.7594 9.58355C52.9561 9.3863 52.9561 9.06637 52.7594 8.86905C52.5627 8.67174 52.2439 8.67174 52.0472 8.86905L49.856 11.0676C49.6593 11.2649 49.6593 11.5849 49.856 11.7822C49.9543 11.8808 50.0833 11.9301 50.2121 11.9301C50.3409 11.9301 50.4699 11.8807 50.5682 11.7821Z" fill="rgb(255,255,255)" fill-opacity="0.5" fill-rule="nonzero" />
		<path id="Vector" d="M52.8302 9.65416L52.8302 9.65415C52.8888 9.5954 52.9328 9.53059 52.9623 9.45974C52.992 9.38812 53.0069 9.31031 53.0069 9.22633C53.0069 9.14238 52.992 9.06461 52.9623 8.99301C52.9329 8.92211 52.8888 8.85726 52.8302 8.79846C52.771 8.73904 52.7056 8.69455 52.6341 8.66499C52.5632 8.63571 52.4863 8.62107 52.4033 8.62107C52.3204 8.62107 52.2435 8.63569 52.1727 8.66495C52.1011 8.69451 52.0357 8.73901 51.9764 8.79845L49.7852 10.997C49.7266 11.0558 49.6825 11.1207 49.6531 11.1916C49.6234 11.2632 49.6085 11.3409 49.6085 11.4249C49.6085 11.5089 49.6234 11.5866 49.6531 11.6582C49.6825 11.7291 49.7266 11.794 49.7852 11.8528C49.8444 11.9122 49.9098 11.9567 49.9814 11.9862C50.0523 12.0155 50.1292 12.0301 50.2121 12.0301C50.295 12.0301 50.3719 12.0155 50.4427 11.9862C50.5143 11.9567 50.5797 11.9122 50.639 11.8527L52.8302 9.65416ZM52.7594 9.58355L50.5682 11.7821C50.4699 11.8807 50.3409 11.9301 50.2121 11.9301C50.0833 11.9301 49.9543 11.8808 49.856 11.7822C49.6593 11.5849 49.6593 11.2649 49.856 11.0676L52.0472 8.86905C52.2439 8.67174 52.5627 8.67174 52.7594 8.86905C52.9561 9.06637 52.9561 9.3863 52.7594 9.58355Z" fill="rgb(255,255,255)" fill-opacity="0.5" fill-rule="evenodd" />
		<path id="Vector" d="M44.9946 22.8364L44.9946 25.9457C44.9946 26.2248 45.2201 26.451 45.4982 26.451C45.7764 26.451 46.0018 26.2247 46.0018 25.9457L46.0018 22.8364C46.0018 22.5574 45.7763 22.3312 45.4982 22.3312C45.2201 22.3312 44.9946 22.5574 44.9946 22.8364Z" fill="rgb(255,255,255)" fill-opacity="0.5" fill-rule="nonzero" />
		<path id="Vector" d="M44.8946 22.8364L44.8946 25.9457C44.8946 26.0297 44.9095 26.1074 44.9392 26.179C44.9687 26.2499 45.0127 26.3148 45.0713 26.3736C45.1305 26.433 45.1959 26.4775 45.2675 26.5071C45.3384 26.5364 45.4153 26.551 45.4982 26.551C45.5812 26.551 45.6582 26.5363 45.7291 26.507C45.8006 26.4774 45.866 26.433 45.9251 26.3736C45.9837 26.3148 46.0277 26.2499 46.0572 26.1791C46.0869 26.1075 46.1018 26.0297 46.1018 25.9457L46.1018 22.8364C46.1018 22.7525 46.0869 22.6747 46.0571 22.6031C46.0277 22.5322 45.9837 22.4673 45.9251 22.4086C45.8659 22.3492 45.8006 22.3047 45.729 22.2751C45.6581 22.2458 45.5812 22.2312 45.4982 22.2312C45.4152 22.2312 45.3383 22.2458 45.2675 22.2751C45.1959 22.3047 45.1305 22.3492 45.0713 22.4086C45.0127 22.4674 44.9686 22.5323 44.9392 22.6032C44.9095 22.6748 44.8946 22.7525 44.8946 22.8364ZM44.9946 25.9457L44.9946 22.8364C44.9946 22.5574 45.2201 22.3312 45.4982 22.3312C45.7763 22.3312 46.0018 22.5574 46.0018 22.8364L46.0018 25.9457C46.0018 26.2247 45.7764 26.451 45.4982 26.451C45.2201 26.451 44.9946 26.2248 44.9946 25.9457Z" fill="rgb(255,255,255)" fill-opacity="0.5" fill-rule="evenodd" />
		<path id="Vector" d="M46.0018 9.46722L46.0018 6.35791C46.0018 6.07885 45.7763 5.85266 45.4982 5.85266C45.2201 5.85266 44.9946 6.07891 44.9946 6.35791L44.9946 9.46722C44.9946 9.74629 45.2201 9.97247 45.4982 9.97247C45.7764 9.97254 46.0018 9.74629 46.0018 9.46722Z" fill="rgb(255,255,255)" fill-opacity="0.5" fill-rule="nonzero" />
		<path id="Vector" d="M46.1018 9.46722L46.1018 6.35791C46.1018 6.27394 46.0869 6.19615 46.0571 6.12454C46.0277 6.05366 45.9837 5.98882 45.9251 5.93005C45.8659 5.87066 45.8006 5.82618 45.729 5.79662C45.6582 5.76731 45.5812 5.75266 45.4982 5.75266C45.4152 5.75266 45.3383 5.7673 45.2674 5.79658C45.1959 5.82615 45.1305 5.87065 45.0713 5.93007C45.0127 5.98889 44.9686 6.05376 44.9392 6.12469C44.9095 6.19627 44.8946 6.27401 44.8946 6.35791L44.8946 9.46722C44.8946 9.55115 44.9095 9.62891 44.9392 9.70049C44.9687 9.77141 45.0127 9.83628 45.0713 9.89509C45.1305 9.95452 45.1959 9.99901 45.2675 10.0286C45.3384 10.0578 45.4153 10.0725 45.4982 10.0725C45.5812 10.0725 45.6581 10.0579 45.729 10.0286C45.8006 9.999 45.8659 9.95452 45.9251 9.89511C45.9837 9.83636 46.0277 9.77156 46.0571 9.70072C46.0869 9.62907 46.1018 9.55124 46.1018 9.46722ZM46.0018 6.35791L46.0018 9.46722C46.0018 9.74629 45.7764 9.97254 45.4982 9.97247C45.2201 9.97247 44.9946 9.74629 44.9946 9.46722L44.9946 6.35791C44.9946 6.07891 45.2201 5.85266 45.4982 5.85266C45.7763 5.85266 46.0018 6.07885 46.0018 6.35791Z" fill="rgb(255,255,255)" fill-opacity="0.5" fill-rule="evenodd" />
		<path id="Vector" d="M49.8551 21.2359L52.0464 23.4345C52.1447 23.5332 52.2736 23.5825 52.4025 23.5825C52.5313 23.5825 52.6602 23.5332 52.7585 23.4345C52.9552 23.2373 52.9552 22.9174 52.7585 22.72L50.5672 20.5214C50.3706 20.3241 50.0518 20.324 49.8551 20.5214C49.6583 20.7187 49.6583 21.0386 49.8551 21.2359Z" fill="rgb(255,255,255)" fill-opacity="0.5" fill-rule="nonzero" />
		<path id="Vector" d="M49.7842 21.3065L51.9755 23.5051C52.0347 23.5645 52.1001 23.609 52.1717 23.6386C52.2425 23.6679 52.3195 23.6825 52.4025 23.6825C52.4856 23.6825 52.5626 23.6679 52.6336 23.6385C52.705 23.6089 52.7703 23.5645 52.8294 23.5051C52.8879 23.4464 52.9319 23.3817 52.9613 23.3109C52.9911 23.2392 53.006 23.1614 53.006 23.0773C53.006 22.9934 52.9912 22.9156 52.9614 22.844C52.932 22.7731 52.888 22.7083 52.8294 22.6495L50.6381 20.4508C50.5789 20.3914 50.5135 20.3469 50.442 20.3174C50.3711 20.2881 50.2942 20.2734 50.2112 20.2734C50.1283 20.2734 50.0515 20.288 49.9807 20.3172C49.909 20.3468 49.8435 20.3913 49.7842 20.4508C49.7256 20.5096 49.6816 20.5744 49.6521 20.6453C49.6224 20.7169 49.6075 20.7947 49.6075 20.8786C49.6075 20.9626 49.6224 21.0403 49.6521 21.1119C49.6815 21.1828 49.7256 21.2477 49.7842 21.3065ZM52.0464 23.4345L49.8551 21.2359C49.6583 21.0386 49.6583 20.7187 49.8551 20.5214C50.0518 20.324 50.3706 20.3241 50.5672 20.5214L52.7585 22.72C52.9552 22.9174 52.9552 23.2373 52.7585 23.4345C52.6602 23.5332 52.5313 23.5825 52.4025 23.5825C52.2736 23.5825 52.1447 23.5332 52.0464 23.4345Z" fill="rgb(255,255,255)" fill-opacity="0.5" fill-rule="evenodd" />
		<path id="Vector" d="M41.1413 11.0675L38.95 8.86893C38.7533 8.67162 38.4345 8.67162 38.2378 8.86893C38.0412 9.06618 38.0412 9.38612 38.2378 9.58343L40.4291 11.7821C40.5274 11.8807 40.6564 11.93 40.7852 11.93C40.9141 11.93 41.0429 11.8806 41.1413 11.7821C41.338 11.5847 41.338 11.2648 41.1413 11.0675Z" fill="rgb(255,255,255)" fill-opacity="0.5" fill-rule="nonzero" />
		<path id="Vector" d="M39.0208 8.79834L39.0208 8.79834C38.9616 8.73894 38.8963 8.69446 38.8247 8.66489C38.7538 8.6356 38.6769 8.62095 38.5939 8.62095C38.5109 8.62095 38.434 8.6356 38.3631 8.66489C38.2916 8.69446 38.2262 8.73894 38.167 8.79834C38.1084 8.85708 38.0644 8.92187 38.035 8.99271C38.0052 9.06434 37.9903 9.14215 37.9903 9.22616C37.9903 9.3101 38.0052 9.38787 38.0349 9.45947C38.0644 9.53038 38.1084 9.59523 38.167 9.65402L40.3583 11.8526C40.4174 11.912 40.4827 11.9564 40.5541 11.986C40.6251 12.0153 40.7021 12.03 40.7852 12.03C40.8679 12.03 40.9447 12.0154 41.0154 11.9863C41.0871 11.9567 41.1527 11.9122 41.2121 11.8527C41.2708 11.7938 41.3149 11.7288 41.3443 11.6577C41.374 11.5862 41.3888 11.5085 41.3888 11.4248C41.3888 11.3408 41.3739 11.2631 41.3442 11.1915C41.3148 11.1206 41.2707 11.0557 41.2121 10.9969L39.0208 8.79834ZM38.95 8.86893L41.1413 11.0675C41.338 11.2648 41.338 11.5847 41.1413 11.7821C41.0429 11.8806 40.9141 11.93 40.7852 11.93C40.6564 11.93 40.5274 11.8807 40.4291 11.7821L38.2378 9.58343C38.0412 9.38612 38.0412 9.06618 38.2378 8.86893C38.4345 8.67162 38.7533 8.67162 38.95 8.86893Z" fill="rgb(255,255,255)" fill-opacity="0.5" fill-rule="evenodd" />
	</g>
	<path id="Прогнозы" d="M20.3984 40.5091L20.3984 50.6909L18.8672 50.6909L18.8672 41.8216L14.0746 41.8216L14.0746 50.6909L12.5433 50.6909L12.5433 40.5091L20.3984 40.5091ZM22.6282 53.5545L22.6282 43.0545L24.0799 43.0545L24.0799 44.2924L24.2042 44.2924C24.2904 44.1334 24.4147 43.9494 24.5771 43.7406C24.7395 43.5318 24.9648 43.3495 25.2532 43.1937C25.5415 43.0346 25.9227 42.9551 26.3967 42.9551C27.0131 42.9551 27.5633 43.1109 28.0472 43.4224C28.5311 43.734 28.9106 44.1831 29.1857 44.7697C29.4641 45.3564 29.6033 46.0623 29.6033 46.8876C29.6033 47.7129 29.4658 48.4205 29.1907 49.0105C28.9156 49.5971 28.5378 50.0495 28.0572 50.3677C27.5766 50.6826 27.0281 50.84 26.4116 50.84C25.9476 50.84 25.5681 50.7621 25.2731 50.6064C24.9814 50.4506 24.7527 50.2683 24.587 50.0595C24.4213 49.8507 24.2937 49.6651 24.2042 49.5027L24.1147 49.5027L24.1147 53.5545L22.6282 53.5545ZM24.0849 46.8727C24.0849 47.4096 24.1628 47.8803 24.3185 48.2846C24.4743 48.689 24.6997 49.0055 24.9947 49.2342C25.2897 49.4596 25.6509 49.5723 26.0785 49.5723C26.5226 49.5723 26.8938 49.4546 27.1921 49.2193C27.4904 48.9807 27.7158 48.6575 27.8683 48.2498C28.024 47.8422 28.1019 47.3831 28.1019 46.8727C28.1019 46.3689 28.0257 45.9165 27.8732 45.5155C27.7241 45.1144 27.4987 44.7979 27.1971 44.5659C26.8988 44.3339 26.5259 44.2179 26.0785 44.2179C25.6476 44.2179 25.283 44.3289 24.9847 44.551C24.6897 44.773 24.466 45.0829 24.3136 45.4807C24.1611 45.8784 24.0849 46.3424 24.0849 46.8727ZM34.4854 50.845C33.7695 50.845 33.1448 50.6809 32.6112 50.3528C32.0775 50.0247 31.6632 49.5656 31.3683 48.9757C31.0733 48.3857 30.9258 47.6963 30.9258 46.9075C30.9258 46.1154 31.0733 45.4227 31.3683 44.8294C31.6632 44.2361 32.0775 43.7754 32.6112 43.4473C33.1448 43.1192 33.7695 42.9551 34.4854 42.9551C35.2013 42.9551 35.8261 43.1192 36.3597 43.4473C36.8933 43.7754 37.3076 44.2361 37.6026 44.8294C37.8976 45.4227 38.0451 46.1154 38.0451 46.9075C38.0451 47.6963 37.8976 48.3857 37.6026 48.9757C37.3076 49.5656 36.8933 50.0247 36.3597 50.3528C35.8261 50.6809 35.2013 50.845 34.4854 50.845ZM34.4904 49.5971C34.9544 49.5971 35.3389 49.4745 35.6438 49.2292C35.9487 48.984 36.1741 48.6575 36.32 48.2498C36.4691 47.8422 36.5437 47.3931 36.5437 46.9025C36.5437 46.4153 36.4691 45.9679 36.32 45.5602C36.1741 45.1492 35.9487 44.8194 35.6438 44.5709C35.3389 44.3223 34.9544 44.198 34.4904 44.198C34.0231 44.198 33.6353 44.3223 33.3271 44.5709C33.0221 44.8194 32.7951 45.1492 32.646 45.5602C32.5001 45.9679 32.4272 46.4153 32.4272 46.9025C32.4272 47.3931 32.5001 47.8422 32.646 48.2498C32.7951 48.6575 33.0221 48.984 33.3271 49.2292C33.6353 49.4745 34.0231 49.5971 34.4904 49.5971ZM44.5865 43.0545L44.5865 44.3372L41.171 44.3372L41.171 50.6909L39.7044 50.6909L39.7044 43.0545L44.5865 43.0545ZM51.3329 46.2314L51.3329 47.519L47.1966 47.519L47.1966 46.2314L51.3329 46.2314ZM47.6142 43.0545L47.6142 50.6909L46.1575 50.6909L46.1575 43.0545L47.6142 43.0545ZM52.372 43.0545L52.372 50.6909L50.9203 50.6909L50.9203 43.0545L52.372 43.0545ZM57.5772 50.845C56.8613 50.845 56.2366 50.6809 55.7029 50.3528C55.1693 50.0247 54.755 49.5656 54.46 48.9757C54.1651 48.3857 54.0176 47.6963 54.0176 46.9075C54.0176 46.1154 54.1651 45.4227 54.46 44.8294C54.755 44.2361 55.1693 43.7754 55.7029 43.4473C56.2366 43.1192 56.8613 42.9551 57.5772 42.9551C58.2931 42.9551 58.9179 43.1192 59.4515 43.4473C59.9851 43.7754 60.3994 44.2361 60.6944 44.8294C60.9894 45.4227 61.1369 46.1154 61.1369 46.9075C61.1369 47.6963 60.9894 48.3857 60.6944 48.9757C60.3994 49.5656 59.9851 50.0247 59.4515 50.3528C58.9179 50.6809 58.2931 50.845 57.5772 50.845ZM57.5822 49.5971C58.0462 49.5971 58.4307 49.4745 58.7356 49.2292C59.0405 48.984 59.2659 48.6575 59.4118 48.2498C59.5609 47.8422 59.6355 47.3931 59.6355 46.9025C59.6355 46.4153 59.5609 45.9679 59.4118 45.5602C59.2659 45.1492 59.0405 44.8194 58.7356 44.5709C58.4307 44.3223 58.0462 44.198 57.5822 44.198C57.1149 44.198 56.7271 44.3223 56.4189 44.5709C56.1139 44.8194 55.8869 45.1492 55.7377 45.5602C55.5919 45.9679 55.519 46.4153 55.519 46.9025C55.519 47.3931 55.5919 47.8422 55.7377 48.2498C55.8869 48.6575 56.1139 48.984 56.4189 49.2292C56.7271 49.4745 57.1149 49.5971 57.5822 49.5971ZM62.3438 48.6724L63.8651 48.6724C63.8849 48.984 64.0258 49.2243 64.2876 49.3933C64.5528 49.5623 64.8958 49.6469 65.3168 49.6469C65.7443 49.6469 66.1089 49.5557 66.4105 49.3734C66.7121 49.1878 66.8629 48.9011 66.8629 48.5133C66.8629 48.2813 66.8049 48.0791 66.6889 47.9068C66.5762 47.7311 66.4155 47.5952 66.2067 47.4991C66.0012 47.403 65.7576 47.3549 65.4759 47.3549L64.233 47.3549L64.233 46.1866L65.4759 46.1866C65.8968 46.1866 66.2116 46.0905 66.4205 45.8983C66.6293 45.706 66.7337 45.4657 66.7337 45.1774C66.7337 44.8658 66.621 44.6156 66.3956 44.4267C66.1735 44.2344 65.8636 44.1383 65.4659 44.1383C65.0616 44.1383 64.7251 44.2295 64.4567 44.4118C64.1882 44.5907 64.0473 44.8228 64.0341 45.1078L62.5327 45.1078C62.5426 44.6802 62.6719 44.3057 62.9205 43.9842C63.1723 43.6594 63.5104 43.4075 63.9347 43.2285C64.3622 43.0462 64.8478 42.9551 65.3913 42.9551C65.9581 42.9551 66.4486 43.0462 66.8629 43.2285C67.2772 43.4108 67.5971 43.6627 67.8224 43.9842C68.0511 44.3057 68.1655 44.6753 68.1655 45.0929C68.1655 45.5138 68.0395 45.8585 67.7876 46.127C67.5391 46.3921 67.2142 46.5827 66.8132 46.6987L66.8132 46.7782C67.1082 46.7981 67.37 46.8876 67.5987 47.0467C67.8274 47.2058 68.0064 47.4163 68.1357 47.6781C68.2649 47.9399 68.3295 48.2366 68.3295 48.568C68.3295 49.0353 68.2003 49.4397 67.9418 49.7811C67.6866 50.1225 67.3319 50.386 66.8778 50.5716C66.4271 50.7539 65.9117 50.845 65.3317 50.845C64.7682 50.845 64.2628 50.7572 63.8153 50.5815C63.3712 50.4025 63.0182 50.1506 62.7564 49.8258C62.4979 49.501 62.3603 49.1165 62.3438 48.6724ZM70.9831 45.6795L73.2005 45.6795C74.1351 45.6795 74.8543 45.9115 75.3581 46.3755C75.8619 46.8396 76.1138 47.4378 76.1138 48.1703C76.1138 48.6476 76.0011 49.0768 75.7757 49.4579C75.5504 49.8391 75.2206 50.1407 74.7864 50.3628C74.3522 50.5815 73.8236 50.6909 73.2005 50.6909L69.8645 50.6909L69.8645 43.0545L71.3212 43.0545L71.3212 49.4082L73.2005 49.4082C73.628 49.4082 73.9793 49.2972 74.2544 49.0751C74.5295 48.8497 74.6671 48.563 74.6671 48.215C74.6671 47.8471 74.5295 47.5472 74.2544 47.3152C73.9793 47.0799 73.628 46.9622 73.2005 46.9622L70.9831 46.9622L70.9831 45.6795ZM77.1976 50.6909L77.1976 43.0545L78.6841 43.0545L78.6841 50.6909L77.1976 50.6909Z" fill="rgb(255,255,255)" fill-opacity="0.5" fill-rule="nonzero" />
</svg>
