<svg width="41" height="40" viewBox="0 0 41 40" fill="none" xmlns="http://www.w3.org/2000/svg">
<path d="M16.8333 24.6V12.6H24.1667V24.6M9.5 8.99998L20.5 0.599976L31.5 8.99998V22.2C31.5 22.8365 31.2425 23.4469 30.784 23.897C30.3256 24.3471 29.7039 24.6 29.0556 24.6H11.9444C11.2961 24.6 10.6744 24.3471 10.216 23.897C9.75754 23.4469 9.5 22.8365 9.5 22.2V8.99998Z" stroke="white" stroke-opacity="0.5" stroke-width="1.2" stroke-linecap="round" stroke-linejoin="round"/>
<path d="M8.64986 31.7818V32.5375H5.89986V37.6H5.02202V31.7818H8.64986ZM9.22727 37.6L9.22443 36.8642H9.38068C9.50189 36.8642 9.60322 36.8386 9.68466 36.7875C9.76799 36.7344 9.83617 36.6454 9.8892 36.5204C9.94223 36.3954 9.98295 36.2231 10.0114 36.0034C10.0398 35.7818 10.0606 35.5034 10.0739 35.1682L10.1506 33.2363H13.196V37.6H12.3636V33.9693H10.9375L10.8693 35.4522C10.8523 35.8121 10.8153 36.1265 10.7585 36.3954C10.7036 36.6644 10.6231 36.8888 10.517 37.0687C10.411 37.2468 10.2746 37.3803 10.108 37.4693C9.94129 37.5564 9.73864 37.6 9.5 37.6H9.22727ZM15.5987 37.6966C15.3222 37.6966 15.0722 37.6454 14.8487 37.5432C14.6252 37.439 14.4482 37.2884 14.3175 37.0915C14.1887 36.8945 14.1243 36.653 14.1243 36.367C14.1243 36.1208 14.1716 35.9182 14.2663 35.7591C14.361 35.6 14.4889 35.474 14.6499 35.3812C14.8108 35.2884 14.9908 35.2183 15.1896 35.171C15.3885 35.1236 15.5911 35.0877 15.7976 35.063C16.0589 35.0327 16.2711 35.0081 16.4339 34.9892C16.5968 34.9683 16.7152 34.9352 16.7891 34.8897C16.8629 34.8443 16.8999 34.7704 16.8999 34.6682V34.6483C16.8999 34.4002 16.8298 34.2079 16.6896 34.0716C16.5514 33.9352 16.3449 33.867 16.0703 33.867C15.7843 33.867 15.5589 33.9305 15.3942 34.0574C15.2313 34.1824 15.1186 34.3216 15.0561 34.475L14.2578 34.2932C14.3525 34.028 14.4908 33.814 14.6726 33.6511C14.8563 33.4863 15.0675 33.367 15.3061 33.2932C15.5447 33.2174 15.7957 33.1795 16.0589 33.1795C16.2332 33.1795 16.4179 33.2004 16.6129 33.242C16.8099 33.2818 16.9936 33.3557 17.1641 33.4636C17.3364 33.5716 17.4775 33.7259 17.5874 33.9267C17.6972 34.1255 17.7521 34.3841 17.7521 34.7022V37.6H16.9226V37.0034H16.8885C16.8336 37.1132 16.7512 37.2212 16.6413 37.3272C16.5315 37.4333 16.3904 37.5214 16.218 37.5915C16.0457 37.6615 15.8393 37.6966 15.5987 37.6966ZM15.7834 37.0147C16.0182 37.0147 16.219 36.9683 16.3857 36.8755C16.5542 36.7827 16.6821 36.6615 16.7692 36.5119C16.8582 36.3604 16.9027 36.1985 16.9027 36.0261V35.4636C16.8724 35.4939 16.8137 35.5223 16.7266 35.5488C16.6413 35.5735 16.5438 35.5952 16.4339 35.6142C16.3241 35.6312 16.2171 35.6473 16.1129 35.6625C16.0088 35.6757 15.9216 35.6871 15.8516 35.6966C15.6868 35.7174 15.5362 35.7524 15.3999 35.8017C15.2654 35.8509 15.1574 35.9219 15.076 36.0147C14.9964 36.1057 14.9567 36.2269 14.9567 36.3784C14.9567 36.5886 15.0343 36.7477 15.1896 36.8557C15.3449 36.9617 15.5429 37.0147 15.7834 37.0147ZM18.8835 37.6V33.2363H20.6932C21.1856 33.2363 21.5758 33.3415 21.8636 33.5517C22.1515 33.76 22.2955 34.0432 22.2955 34.4011C22.2955 34.6568 22.214 34.8594 22.0511 35.0091C21.8883 35.1587 21.6723 35.2591 21.4034 35.3102C21.5985 35.3329 21.7775 35.3916 21.9403 35.4863C22.1032 35.5791 22.2339 35.7041 22.3324 35.8613C22.4328 36.0185 22.483 36.206 22.483 36.4238C22.483 36.6549 22.4233 36.8594 22.304 37.0375C22.1847 37.2136 22.0114 37.3519 21.7841 37.4522C21.5587 37.5507 21.2869 37.6 20.9688 37.6H18.8835ZM19.6818 36.8897H20.9688C21.179 36.8897 21.3438 36.8396 21.4631 36.7392C21.5824 36.6388 21.642 36.5024 21.642 36.3301C21.642 36.1274 21.5824 35.9683 21.4631 35.8528C21.3438 35.7354 21.179 35.6767 20.9688 35.6767H19.6818V36.8897ZM19.6818 35.0545H20.7017C20.8608 35.0545 20.9972 35.0318 21.1108 34.9863C21.2263 34.9409 21.3144 34.8765 21.375 34.7932C21.4375 34.7079 21.4688 34.6076 21.4688 34.492C21.4688 34.3235 21.3996 34.1918 21.2614 34.0971C21.1231 34.0024 20.9337 33.9551 20.6932 33.9551H19.6818V35.0545ZM26.3722 35.0517V35.7875H24.0085V35.0517H26.3722ZM24.2472 33.2363V37.6H23.4148V33.2363H24.2472ZM26.9659 33.2363V37.6H26.1364V33.2363H26.9659ZM29.3722 37.6966C29.0956 37.6966 28.8456 37.6454 28.6222 37.5432C28.3987 37.439 28.2216 37.2884 28.0909 37.0915C27.9621 36.8945 27.8977 36.653 27.8977 36.367C27.8977 36.1208 27.9451 35.9182 28.0398 35.7591C28.1345 35.6 28.2623 35.474 28.4233 35.3812C28.5843 35.2884 28.7642 35.2183 28.9631 35.171C29.1619 35.1236 29.3646 35.0877 29.571 35.063C29.8324 35.0327 30.0445 35.0081 30.2074 34.9892C30.3703 34.9683 30.4886 34.9352 30.5625 34.8897C30.6364 34.8443 30.6733 34.7704 30.6733 34.6682V34.6483C30.6733 34.4002 30.6032 34.2079 30.4631 34.0716C30.3248 33.9352 30.1184 33.867 29.8438 33.867C29.5578 33.867 29.3324 33.9305 29.1676 34.0574C29.0047 34.1824 28.892 34.3216 28.8295 34.475L28.0312 34.2932C28.1259 34.028 28.2642 33.814 28.446 33.6511C28.6297 33.4863 28.8409 33.367 29.0795 33.2932C29.3182 33.2174 29.5691 33.1795 29.8324 33.1795C30.0066 33.1795 30.1913 33.2004 30.3864 33.242C30.5833 33.2818 30.767 33.3557 30.9375 33.4636C31.1098 33.5716 31.2509 33.7259 31.3608 33.9267C31.4706 34.1255 31.5256 34.3841 31.5256 34.7022V37.6H30.696V37.0034H30.6619C30.607 37.1132 30.5246 37.2212 30.4148 37.3272C30.3049 37.4333 30.1638 37.5214 29.9915 37.5915C29.8191 37.6615 29.6127 37.6966 29.3722 37.6966ZM29.5568 37.0147C29.7917 37.0147 29.9924 36.9683 30.1591 36.8755C30.3277 36.7827 30.4555 36.6615 30.5426 36.5119C30.6316 36.3604 30.6761 36.1985 30.6761 36.0261V35.4636C30.6458 35.4939 30.5871 35.5223 30.5 35.5488C30.4148 35.5735 30.3172 35.5952 30.2074 35.6142C30.0975 35.6312 29.9905 35.6473 29.8864 35.6625C29.7822 35.6757 29.6951 35.6871 29.625 35.6966C29.4602 35.7174 29.3097 35.7524 29.1733 35.8017C29.0388 35.8509 28.9309 35.9219 28.8494 36.0147C28.7699 36.1057 28.7301 36.2269 28.7301 36.3784C28.7301 36.5886 28.8078 36.7477 28.9631 36.8557C29.1184 36.9617 29.3163 37.0147 29.5568 37.0147ZM35.2592 37.6V33.9608H34.2138C33.9657 33.9608 33.7725 34.0185 33.6342 34.1341C33.496 34.2496 33.4268 34.4011 33.4268 34.5886C33.4268 34.7742 33.4903 34.9238 33.6172 35.0375C33.746 35.1492 33.9259 35.2051 34.157 35.2051H35.5064V35.8926H34.157C33.835 35.8926 33.5566 35.8396 33.3217 35.7335C33.0888 35.6255 32.9089 35.4731 32.782 35.2761C32.657 35.0791 32.5945 34.8462 32.5945 34.5772C32.5945 34.3026 32.6589 34.0659 32.7876 33.867C32.9183 33.6663 33.1049 33.511 33.3473 33.4011C33.5916 33.2913 33.8804 33.2363 34.2138 33.2363H36.0575V37.6H35.2592ZM32.3956 37.6L33.6257 35.3954H34.495L33.2649 37.6H32.3956Z" fill="white" fill-opacity="0.5"/>
</svg>
