<svg viewBox="0 0 80 70.4009" xmlns="http://www.w3.org/2000/svg" xmlns:xlink="http://www.w3.org/1999/xlink" width="80.000000" height="70.400879" fill="none" customFrame="#000000">
	<rect id="Frame 36768" width="80.000000" height="70.000000" x="0.000000" y="0.200684" />
	<path id="Vector" d="M41.9469 37.48C46.0442 37.0927 49.4586 35.7374 52.0763 33.2205C58.5636 26.928 57.5392 16.1825 57.4254 15.2144C56.7426 3.01672 46.2718 0.0157103 40.0121 0.209324C33.8662 0.0157103 23.2817 3.01672 22.5988 15.2144C22.485 16.1825 21.3469 26.928 27.948 33.2205C30.5657 35.7374 33.8662 37.0927 38.0773 37.48L38.0773 37.5768L40.0121 37.5768L40.1259 37.5768L40.2397 37.5768L41.9469 37.48ZM40.0121 34.2853L39.7845 34.2853C35.9149 34.2853 32.8419 33.2205 30.5657 30.9939C24.9889 25.6695 26.127 15.5048 26.2408 15.408L26.2408 15.3112C26.4684 10.1804 28.7447 6.59859 32.8419 4.75926C35.6872 3.40396 38.6464 3.30715 39.5569 3.30715C39.6707 3.30715 39.7845 3.30715 39.8983 3.30715L40.0121 3.30715L40.1259 3.30715C40.4674 3.30715 43.8817 3.21035 47.0685 4.75926C51.1657 6.59859 53.3282 10.1804 53.6696 15.3112L53.6696 15.408C53.6696 15.5048 54.9216 25.6695 49.3447 30.9939C46.9547 33.2205 43.8817 34.2853 40.0121 34.2853ZM74.9526 55.7764L74.9526 55.9701C74.9526 56.7445 74.9526 60.52 74.1559 62.4561L73.9283 62.9402L73.473 63.2306C72.9039 63.521 60.726 70.2007 40.1259 70.2007L40.1259 67.006C57.1978 67.006 68.3514 62.0689 70.8553 60.9072C71.0829 60.2296 71.1968 59.1647 71.1968 58.0998L71.0829 58.0998L71.1968 55.9701C71.4244 53.1627 71.0829 48.2255 66.4166 47.2575C57.8807 45.4181 51.0519 41.3522 50.7105 41.1586L51.8486 39.8033L52.9867 38.448C53.1005 38.448 59.5879 42.3203 67.4409 44.0628C72.5625 45.1277 75.4078 49.3872 74.9526 55.7764ZM5.07167 56.0669C4.50261 49.5808 7.34792 45.2245 12.6971 44.0628C20.5502 42.3203 27.0375 38.5448 27.1513 38.448L29.3137 41.0618C28.9723 41.2554 22.1436 45.3213 13.6076 47.1606C8.82748 48.2255 8.59986 53.0659 8.82749 55.8733L8.82749 55.9701L8.82749 56.0669C8.82749 57.4222 8.94129 59.6487 9.28273 60.8104C11.9004 62.0689 23.054 66.9092 40.0121 66.9092L40.0121 70.1039C19.412 70.1039 7.12029 63.4242 6.66504 63.1338L6.20979 62.8434L5.98217 62.3593C5.07167 60.6168 5.07167 56.9381 5.07167 56.0669Z" fill="rgb(255,255,255)" fill-rule="nonzero" />
	<path id="Vector" d="M51.3389 34.1404C51.641 33.8943 51.933 33.6357 52.2149 33.3646L52.2155 33.364C52.2671 33.314 52.3184 33.2635 52.3693 33.2128C55.0407 30.5474 56.7256 26.8934 57.424 22.2505C57.655 20.7151 57.7636 19.1482 57.7499 17.5496C57.742 16.6261 57.7003 15.8419 57.6248 15.1971C57.4292 11.7201 56.4678 8.80517 54.7407 6.45235C53.7293 5.0745 52.4552 3.88941 50.9186 2.89711C49.2756 1.83614 47.4107 1.05787 45.3239 0.5623C43.5443 0.139668 41.7738 -0.0446897 40.0122 0.00922847C38.2781 -0.0448303 36.5234 0.139537 34.7482 0.562329C32.663 1.05894 30.7965 1.83713 29.1486 2.89691C27.5641 3.91595 26.2571 5.13601 25.2275 6.55709C23.5347 8.89363 22.592 11.7736 22.3995 15.1971C22.14 17.4087 22.1927 19.7596 22.5574 22.2498C23.2159 26.7456 24.8286 30.314 27.3955 32.9548C27.531 33.0942 27.6692 33.231 27.81 33.3652C28.1376 33.6803 28.4786 33.9785 28.833 34.2599C31.2342 36.1665 34.2489 37.3005 37.8773 37.6617L37.8773 37.7768L40.2454 37.7768L41.9619 37.6794L41.9657 37.6791C45.7591 37.3206 48.8835 36.141 51.3389 34.1404ZM38.0773 37.48L38.0773 37.5768L40.2397 37.5768L41.9469 37.48C46.0442 37.0927 49.4586 35.7374 52.0763 33.2205C58.5636 26.928 57.5392 16.1825 57.4254 15.2144C56.7426 3.01672 46.2718 0.0157103 40.0121 0.209324C33.8662 0.0157103 23.2817 3.01672 22.5988 15.2144C22.485 16.1825 21.3469 26.928 27.948 33.2205C30.5657 35.7374 33.8662 37.0927 38.0773 37.48ZM26.2408 15.408C26.127 15.5048 24.9889 25.6695 30.5657 30.9939C32.8419 33.2205 35.9149 34.2853 39.7845 34.2853L40.0121 34.2853C43.8817 34.2853 46.9547 33.2205 49.3447 30.9939C54.7087 25.8728 53.7552 16.2737 53.6746 15.4623C53.6714 15.4301 53.6696 15.4117 53.6696 15.408L53.6696 15.3112C53.3282 10.1804 51.1657 6.59859 47.0685 4.75926C44.013 3.27415 40.7483 3.30197 40.1835 3.30678C40.1593 3.30699 40.14 3.30715 40.1259 3.30715L39.5569 3.30715C38.6464 3.30715 35.6872 3.40396 32.8419 4.75926C28.7447 6.59859 26.4684 10.1804 26.2408 15.3112L26.2408 15.408ZM26.4408 15.3156C26.5792 12.211 27.441 9.71185 29.0261 7.81815C30.0333 6.61489 31.3326 5.65608 32.9238 4.94172L32.9259 4.9408L32.9279 4.93982C33.0993 4.8582 33.2721 4.78007 33.4464 4.70543C35.3122 3.90658 37.349 3.50716 39.5569 3.50715L40.1259 3.50715C40.1359 3.50715 40.1556 3.50703 40.1852 3.50678C42.707 3.48529 44.9722 3.96274 46.9811 4.93914L46.9838 4.94047L46.9866 4.94172C48.3709 5.56316 49.5351 6.38703 50.4793 7.41334C52.2491 9.33699 53.2459 11.9718 53.4696 15.3178L53.4696 15.408C53.4696 15.4171 53.4716 15.4417 53.4756 15.482C53.6733 17.472 53.6325 19.5065 53.3532 21.5853C52.8081 25.6424 51.4259 28.7304 49.2066 30.8492C48.8087 31.2199 48.3887 31.5588 47.9466 31.8657C45.8155 33.3455 43.1707 34.0853 40.0121 34.0853L39.7845 34.0853C36.4732 34.0854 33.7705 33.2871 31.6764 31.6906C31.3367 31.4317 31.0131 31.1518 30.7055 30.8509C28.4032 28.6528 26.9906 25.4412 26.4677 21.2161C26.3146 19.9789 26.2502 18.7434 26.2744 17.5097C26.2768 17.3872 26.28 17.2647 26.2842 17.1422C26.2999 16.6789 26.3265 16.2675 26.3641 15.9079C26.3785 15.7703 26.3927 15.6586 26.4067 15.5727C26.4099 15.5531 26.4129 15.5361 26.4157 15.5218L26.4408 15.5005L26.4408 15.3156ZM12.6547 43.8674L12.6538 43.8676C10.8196 44.2661 9.29342 45.0093 8.07521 46.0974C7.47399 46.6344 6.94778 47.2554 6.49659 47.9604C5.12768 50.0993 4.58604 52.8044 4.87167 56.0756C4.87226 59.1337 5.18268 61.2579 5.80295 62.4482L6.05344 62.9808L6.55748 63.3024C6.97452 63.5685 7.81907 63.9773 9.09112 64.5289C11.1015 65.4007 13.3135 66.1975 15.727 66.9193C23.2457 69.1681 31.3121 70.2963 39.9259 70.3038L39.9259 70.4007L40.1259 70.4007C48.577 70.4007 56.505 69.3177 63.91 67.1519C67.7018 66.0429 70.8972 64.8069 73.4963 63.444C73.532 63.4253 73.5545 63.4135 73.5639 63.4087L73.5725 63.4044L74.0846 63.0777L74.339 62.5368L74.3408 62.5322C74.882 61.217 75.1526 59.0297 75.1526 55.9701L75.1526 55.7836C75.3807 52.5669 74.8151 49.9104 73.4559 47.8142C72.9564 47.0439 72.3697 46.3786 71.6957 45.8183C70.5459 44.8625 69.1421 44.2123 67.4843 43.8676C62.9779 42.8677 58.3058 41.0689 53.4679 38.4711C53.191 38.3224 53.0306 38.248 52.9867 38.248L52.8935 38.248L51.6954 39.6747L50.4028 41.2141L50.6118 41.3326C50.6193 41.3369 50.6386 41.348 50.6696 41.3659C52.1643 42.2313 53.8438 43.0785 55.7083 43.9075C59.3359 45.5205 62.8918 46.7024 66.376 47.4533C67.3178 47.6487 68.1185 48.0163 68.7782 48.5563C69.5111 49.1563 70.0699 49.9689 70.4547 50.9943C70.9726 52.3749 71.1536 54.0281 70.9974 55.9539L70.9972 55.9565L70.872 58.2998L70.9957 58.2998C70.9842 59.3302 70.883 60.1511 70.692 60.7624C67.8088 62.0934 64.5457 63.2389 60.9027 64.1989C54.3326 65.93 47.4357 66.799 40.2121 66.806L40.2121 66.7092L40.0121 66.7092C32.78 66.7092 25.8827 65.8522 19.3203 64.1382C15.4842 63.1363 12.1942 61.9798 9.45032 60.6689C9.16843 59.6533 9.02748 58.1193 9.02749 56.0669L9.02749 55.8652L9.02683 55.8571C8.86859 53.9054 9.03539 52.2639 9.52724 50.9328C9.87428 49.9936 10.3776 49.2291 11.0372 48.6395C11.7337 48.0168 12.6046 47.589 13.6497 47.3562C17.1329 46.6056 20.6883 45.4238 24.316 43.8107C26.1803 42.9817 27.8599 42.1345 29.3546 41.2691C29.3856 41.2512 29.4049 41.2401 29.4124 41.2358L29.6199 41.1181L27.1762 38.1643L27.0217 38.2957C26.9549 38.3525 26.5662 38.5688 25.8557 38.9443C24.8876 39.456 23.8506 39.9598 22.7446 40.4558C19.2935 42.0034 15.9301 43.1406 12.6547 43.8674ZM9.28273 60.8104C8.94129 59.6487 8.82749 57.4222 8.82749 56.0669L8.82749 55.8733C8.59986 53.0659 8.82748 48.2255 13.6076 47.1606C21.5225 45.4551 27.9697 41.8353 29.1381 41.1632C29.2297 41.1105 29.2889 41.0759 29.3137 41.0618L29.1844 40.9055L27.2788 38.6021L27.1513 38.448L27.1507 38.4485C27.016 38.5573 20.5372 42.3232 12.6971 44.0628C7.34792 45.2245 4.50261 49.5808 5.07167 56.0669C5.07167 56.9381 5.07167 60.6168 5.98217 62.3593L6.20979 62.8434L6.66504 63.1338C7.11881 63.4232 19.3325 70.0606 39.8121 70.1037C39.85 70.1037 39.888 70.1038 39.9259 70.1038L40.0121 70.1039L40.0121 66.9092L39.9259 66.9092C23.0163 66.8928 11.896 62.0668 9.28273 60.8104ZM40.2121 67.006L40.1259 67.006L40.1259 70.2007L40.2121 70.2007C40.2501 70.2006 40.288 70.2005 40.3259 70.2005C60.8048 70.1575 72.9058 63.5201 73.473 63.2306L73.9283 62.9402L74.1559 62.4561C74.9526 60.52 74.9526 56.7445 74.9526 55.9701L74.9526 55.7764C75.4078 49.3872 72.5625 45.1277 67.4409 44.0628C59.5879 42.3203 53.1005 38.448 52.9867 38.448L51.8486 39.8033L50.8411 41.0031L50.7105 41.1586C50.7353 41.1727 50.7946 41.2074 50.8864 41.2602C52.0554 41.9325 58.5022 45.552 66.4166 47.2575C71.0829 48.2255 71.4244 53.1627 71.1968 55.9701L71.0936 57.8998L71.0829 58.0998L71.1968 58.0998L71.1968 58.1059C71.1967 58.1706 71.1963 58.2353 71.1954 58.2998C71.182 59.2966 71.0687 60.272 70.8553 60.9072C68.3557 62.0669 57.2353 66.9894 40.2121 67.006Z" fill="rgb(255,255,255)" fill-rule="evenodd" />
	<path id="+" d="M68.303 38.2007L68.303 18.2007L71.697 18.2007L71.697 38.2007L68.303 38.2007ZM60 29.8977L60 26.5037L80 26.5037L80 29.8977L60 29.8977Z" fill="rgb(255,255,255)" fill-rule="nonzero" />
</svg>
