<svg width="27" height="27" viewBox="0 0 27 27" fill="none" xmlns="http://www.w3.org/2000/svg">
<path d="M13.057 0.050293C20.229 0.0504912 26.0629 5.90453 26.0629 13.1001C26.0629 20.2957 20.229 26.1497 13.057 26.1499C5.88492 26.1499 0.0501938 20.2958 0.0501938 13.1001C0.0501938 5.90441 5.88492 0.050293 13.057 0.050293ZM13.057 0.971191C6.39167 0.971191 0.968163 6.41204 0.968163 13.1001C0.968163 19.7882 6.39167 25.229 13.057 25.229C19.7222 25.2288 25.1449 19.788 25.1449 13.1001C25.1449 6.41216 19.7222 0.97139 13.057 0.971191Z" fill="white" stroke="white" stroke-width="0.1"/>
<path d="M13.0574 2.15527C19.0724 2.15527 23.9654 7.06484 23.9656 13.0996C23.9656 14.2959 23.7735 15.4734 23.3943 16.5986C23.3131 16.8393 23.0526 16.9684 22.8122 16.8867C22.5722 16.8052 22.4432 16.5444 22.5242 16.3037C22.8713 15.2737 23.0476 14.1954 23.0476 13.0996C23.0475 7.57244 18.5657 3.07617 13.0574 3.07617C7.54907 3.0762 3.06722 7.57251 3.06712 13.0996C3.06712 18.6268 7.54901 23.123 13.0574 23.123C16.851 23.123 20.3796 20.9057 22.0456 17.4736C22.1567 17.2453 22.4309 17.1503 22.6589 17.2617C22.8869 17.3731 22.9817 17.6484 22.8708 17.877C21.9876 19.6965 20.6203 21.2356 18.9167 22.3281C17.1659 23.4509 15.1398 24.0449 13.0574 24.0449C7.04226 24.0449 2.14915 19.1344 2.14915 13.0996C2.14928 7.0649 7.04233 2.1553 13.0574 2.15527Z" fill="white" stroke="white" stroke-width="0.1"/>
<path d="M13.4352 9.62061C13.6196 9.63612 13.7765 9.76158 13.8336 9.93799C13.8906 10.1144 13.8361 10.3082 13.6959 10.4292C13.2372 10.8254 12.9743 11.3998 12.9742 12.0054C12.9742 13.1522 13.904 14.0853 15.0465 14.0854C15.2983 14.0854 15.5453 14.0398 15.7799 13.9507C15.953 13.8851 16.1488 13.9303 16.276 14.0649C16.4032 14.1997 16.4366 14.3982 16.3619 14.5679C15.7982 15.8485 14.5336 16.6763 13.1393 16.6763C11.1968 16.6763 9.61691 15.0907 9.61682 13.1421C9.61682 11.1934 11.1967 9.60791 13.1393 9.60791C13.232 9.60791 13.329 9.61178 13.4352 9.62061ZM12.3834 10.6431C11.3151 10.969 10.5348 11.9651 10.5348 13.1421C10.5348 14.5831 11.7035 15.7554 13.1393 15.7554C13.8337 15.7553 14.4821 15.4745 14.9606 15.0034C13.3508 14.9576 12.0553 13.6309 12.0553 12.0054C12.0555 11.5258 12.171 11.0604 12.3834 10.6431Z" fill="white" stroke="white" stroke-width="0.1"/>
<path d="M7.64315 12.6819C7.89673 12.6819 8.10291 12.8878 8.10311 13.1418C8.10311 13.396 7.89689 13.6028 7.64315 13.6028H5.12557C4.87187 13.6028 4.66658 13.396 4.66658 13.1418C4.66678 12.8879 4.87193 12.6819 5.12557 12.6819H7.64315Z" fill="white" stroke="white" stroke-width="0.1"/>
<path d="M20.9864 12.6819C21.2401 12.6819 21.4452 12.8878 21.4454 13.1418C21.4454 13.3961 21.2401 13.6028 20.9864 13.6028H18.4688C18.215 13.6028 18.0098 13.396 18.0098 13.1418C18.01 12.8879 18.2151 12.6819 18.4688 12.6819H20.9864Z" fill="white" stroke="white" stroke-width="0.1"/>
<path d="M8.90346 16.6572C9.08279 16.4775 9.37366 16.4774 9.55287 16.6572C9.73188 16.837 9.73199 17.1289 9.55287 17.3086L7.77162 19.0947C7.68205 19.1845 7.56471 19.2295 7.4474 19.2295C7.32997 19.2295 7.21183 19.1847 7.12221 19.0947C6.94322 18.9149 6.94315 18.6231 7.12221 18.4434L8.90346 16.6572Z" fill="white" stroke="white" stroke-width="0.1"/>
<path d="M18.3412 7.1897C18.5206 7.00999 18.8114 7.00984 18.9907 7.1897C19.1697 7.36952 19.1698 7.66134 18.9907 7.84106L17.2104 9.6272C17.1208 9.7171 17.0026 9.76196 16.8852 9.76196C16.7678 9.76196 16.6497 9.7171 16.56 9.6272C16.381 9.44739 16.381 9.1556 16.56 8.97583L18.3412 7.1897Z" fill="white" stroke="white" stroke-width="0.1"/>
<path d="M13.0559 18.1133C13.3095 18.1133 13.5147 18.3192 13.5149 18.5732V21.0996C13.5149 21.3537 13.3097 21.5605 13.0559 21.5605C12.8022 21.5605 12.5969 21.3538 12.5969 21.0996V18.5732C12.5971 18.3193 12.8023 18.1133 13.0559 18.1133Z" fill="white" stroke="white" stroke-width="0.1"/>
<path d="M13.0559 4.72412C13.3095 4.72414 13.5147 4.93006 13.5149 5.18408V7.71045C13.5149 7.96462 13.3097 8.17142 13.0559 8.17139C12.8022 8.17139 12.5969 7.96465 12.5969 7.71045V5.18408C12.5971 4.93011 12.8023 4.72412 13.0559 4.72412Z" fill="white" stroke="white" stroke-width="0.1"/>
<path d="M16.5591 16.6572C16.7385 16.4773 17.0302 16.4773 17.2094 16.6572L18.9897 18.4434C19.1465 18.6007 19.1659 18.8438 19.0483 19.0225L18.9897 19.0947C18.9001 19.1847 18.782 19.2295 18.6645 19.2295C18.5472 19.2294 18.4299 19.1845 18.3403 19.0947L16.5591 17.3086C16.38 17.1288 16.38 16.837 16.5591 16.6572Z" fill="white" stroke="white" stroke-width="0.1"/>
<path d="M7.12221 7.1897C7.30153 7.00978 7.59328 7.00978 7.7726 7.1897L9.55287 8.97583C9.70962 9.13317 9.72903 9.37621 9.61147 9.55493L9.55287 9.6272C9.46323 9.71702 9.34523 9.76196 9.22768 9.76196C9.11037 9.76193 8.99302 9.71695 8.90346 9.6272L7.12221 7.84106C6.94315 7.66131 6.94323 7.36947 7.12221 7.1897Z" fill="white" stroke="white" stroke-width="0.1"/>
</svg>
