<svg width="40" height="40" viewBox="0 0 40 40" fill="none" xmlns="http://www.w3.org/2000/svg">
<path d="M20 0.0999756C13.4053 0.0999756 8.04004 5.48315 8.04004 12.1C8.04004 18.7168 13.4053 24.1 20 24.1C26.5948 24.1 31.96 18.7168 31.96 12.1C31.96 5.48315 26.5948 0.0999756 20 0.0999756ZM20 23.3421C13.8218 23.3421 8.79539 18.2989 8.79539 12.1C8.79539 5.90104 13.8218 0.857851 20 0.857851C26.1783 0.857851 31.2047 5.90104 31.2047 12.1C31.2047 18.2989 26.1783 23.3421 20 23.3421Z" fill="white" fill-opacity="0.5"/>
<path d="M20 0.0501709C26.6225 0.0501709 32.0098 5.45569 32.0098 12.1C32.0098 18.7443 26.6225 24.1498 20 24.1498C13.3775 24.1498 7.99023 18.7442 7.99023 12.1C7.99023 5.4557 13.3775 0.0501917 20 0.0501709ZM20 0.907593C13.8495 0.907614 8.8457 5.92851 8.8457 12.1C8.8457 18.2714 13.8495 23.2923 20 23.2924C26.1505 23.2924 31.1543 18.2715 31.1543 12.1C31.1543 5.9285 26.1505 0.907593 20 0.907593Z" stroke="white" stroke-opacity="0.5" stroke-width="0.1"/>
<path d="M20.0017 2.04321C14.4749 2.04321 9.97852 6.55465 9.97852 12.0999C9.97852 17.6452 14.4749 22.1566 20.0017 22.1566C21.9151 22.1566 23.7768 21.6113 25.3855 20.5796C26.9508 19.5757 28.2072 18.1614 29.0188 16.4894C29.1101 16.3013 29.0322 16.0744 28.8447 15.9828C28.6571 15.8911 28.4311 15.9694 28.3397 16.1575C26.7942 19.3414 23.5213 21.3987 20.0017 21.3987C14.8914 21.3987 10.7339 17.2272 10.7339 12.0999C10.7339 6.97249 14.8914 2.80109 20.0017 2.80109C25.112 2.80109 29.2695 6.97245 29.2695 12.0999C29.2695 13.1164 29.1062 14.1163 28.7842 15.0718C28.7174 15.2701 28.8234 15.4852 29.021 15.5522C29.2187 15.6193 29.433 15.5129 29.4998 15.3147C29.8482 14.2807 30.0249 13.1992 30.0249 12.0999C30.0249 6.5546 25.5285 2.04321 20.0017 2.04321Z" fill="white" fill-opacity="0.5"/>
<path d="M20.002 1.99341C25.5564 1.99355 30.0752 6.5272 30.0752 12.0999C30.0752 13.2044 29.8971 14.2913 29.5469 15.3303C29.4713 15.5546 29.2289 15.6759 29.0049 15.5999C28.7811 15.5239 28.6617 15.2802 28.7373 15.0559C29.0576 14.1056 29.2197 13.1109 29.2197 12.0999C29.2197 6.99998 25.0843 2.85097 20.002 2.85083C14.9194 2.85083 10.7842 6.99994 10.7842 12.0999C10.7842 17.1998 14.9194 21.3489 20.002 21.3489C23.5021 21.3488 26.7577 19.3026 28.2949 16.136C28.3983 15.9232 28.6538 15.8342 28.8662 15.9377C29.0786 16.0415 29.1667 16.2982 29.0635 16.511C28.2479 18.1912 26.9852 19.6125 25.4121 20.6213C23.7955 21.6581 21.9248 22.2063 20.002 22.2063C14.4474 22.2063 9.92871 17.6726 9.92871 12.0999C9.92874 6.52716 14.4474 1.99341 20.002 1.99341Z" stroke="white" stroke-opacity="0.5" stroke-width="0.1"/>
<path d="M23.0086 13.4362C23.0701 13.2965 23.0419 13.1334 22.9372 13.0225C22.8326 12.9117 22.6717 12.8747 22.5293 12.9287C22.3075 13.013 22.0744 13.0557 21.8364 13.0557C20.756 13.0557 19.877 12.1738 19.877 11.0898C19.877 10.5172 20.1259 9.97394 20.5597 9.59941C20.6751 9.4998 20.7196 9.34047 20.6727 9.19525C20.6257 9.04999 20.4964 8.94724 20.3447 8.93453C20.2478 8.92647 20.1597 8.92249 20.0756 8.92249C18.3081 8.92249 16.8701 10.3653 16.8701 12.1387C16.8701 13.9121 18.3081 15.3549 20.0756 15.3549C21.3444 15.355 22.4956 14.6019 23.0086 13.4362ZM20.0755 14.5971C18.7245 14.5971 17.6254 13.4943 17.6254 12.1388C17.6254 10.9931 18.4107 10.0279 19.4695 9.75653C19.2438 10.1593 19.1216 10.6173 19.1215 11.0899C19.1215 12.5918 20.3394 13.8137 21.8362 13.8137C21.847 13.8137 21.8578 13.8136 21.8686 13.8135C21.4127 14.3044 20.7669 14.5971 20.0755 14.5971Z" fill="white" fill-opacity="0.5"/>
<path d="M20.3486 8.8844C20.5205 8.89879 20.6675 9.01593 20.7207 9.1803C20.7735 9.34439 20.7231 9.52467 20.5928 9.63733C20.17 10.0023 19.9269 10.5315 19.9268 11.0895C19.9268 12.1459 20.7835 13.0053 21.8359 13.0055C22.0679 13.0055 22.2956 12.9646 22.5117 12.8824C22.673 12.8212 22.8551 12.8625 22.9736 12.9879C23.0921 13.1134 23.1243 13.2986 23.0547 13.4567C22.5337 14.6403 21.3638 15.405 20.0752 15.4049C18.2801 15.4047 16.8203 13.9391 16.8203 12.1383C16.8205 10.3377 18.2802 8.87289 20.0752 8.87268C20.1609 8.87268 20.2506 8.87626 20.3486 8.8844ZM19.3701 9.8385C18.3903 10.1417 17.676 11.0571 17.6758 12.1383C17.6758 13.4663 18.7521 14.5473 20.0752 14.5475C20.7131 14.5475 21.3094 14.2905 21.75 13.859C20.2652 13.8131 19.0713 12.5898 19.0713 11.0895C19.0714 10.6494 19.1765 10.2221 19.3701 9.8385Z" stroke="white" stroke-opacity="0.5" stroke-width="0.1"/>
<path d="M15.3804 12.1388C15.3804 11.9295 15.2113 11.7599 15.0027 11.7599H12.6785C12.4699 11.7599 12.3008 11.9296 12.3008 12.1388C12.3008 12.3481 12.4699 12.5178 12.6785 12.5178H15.0027C15.2113 12.5178 15.3804 12.3481 15.3804 12.1388Z" fill="white" fill-opacity="0.5"/>
<path d="M15.0029 11.7101C15.2391 11.7102 15.4306 11.9021 15.4307 12.1388C15.4307 12.3755 15.2392 12.5674 15.0029 12.5675H12.6787C12.4424 12.5675 12.251 12.3756 12.251 12.1388C12.251 11.9021 12.4423 11.7101 12.6787 11.7101H15.0029Z" stroke="white" stroke-opacity="0.5" stroke-width="0.1"/>
<path d="M27.6967 12.1388C27.6967 11.9295 27.5277 11.7599 27.3191 11.7599H24.9949C24.7862 11.7599 24.6172 11.9296 24.6172 12.1388C24.6172 12.3481 24.7862 12.5178 24.9949 12.5178H27.3191C27.5277 12.5178 27.6968 12.3481 27.6967 12.1388Z" fill="white" fill-opacity="0.5"/>
<path d="M27.3193 11.7101C27.5556 11.7102 27.7471 11.9021 27.7471 12.1388C27.7471 12.3755 27.5556 12.5674 27.3193 12.5675H24.9951C24.7587 12.5675 24.5674 12.3755 24.5674 12.1388C24.5674 11.9021 24.7587 11.7101 24.9951 11.7101H27.3193Z" stroke="white" stroke-opacity="0.5" stroke-width="0.1"/>
<path d="M14.822 17.712C14.9186 17.712 15.0153 17.675 15.089 17.601L16.7325 15.952C16.88 15.8041 16.88 15.5641 16.7325 15.4162C16.5851 15.2682 16.3459 15.2682 16.1984 15.4162L14.555 17.0651C14.4075 17.2131 14.4075 17.453 14.555 17.601C14.6287 17.675 14.7254 17.712 14.822 17.712Z" fill="white" fill-opacity="0.5"/>
<path d="M16.1631 15.3813C16.3301 15.2138 16.6006 15.2137 16.7676 15.3813C16.9344 15.5488 16.9345 15.8204 16.7676 15.9878L15.124 17.6362C15.0406 17.7198 14.9315 17.7621 14.8223 17.7622C14.7402 17.7622 14.6581 17.738 14.5869 17.6909L14.5195 17.6362C14.3526 17.4687 14.3526 17.1973 14.5195 17.0298L16.1631 15.3813Z" stroke="white" stroke-opacity="0.5" stroke-width="0.1"/>
<path d="M23.801 8.86158L25.4444 7.21266C25.5919 7.06472 25.5919 6.82477 25.4444 6.67678C25.2969 6.5288 25.0578 6.5288 24.9103 6.67678L23.2669 8.32571C23.1194 8.47369 23.1194 8.71364 23.2669 8.86163C23.3406 8.9356 23.4373 8.97258 23.534 8.97258C23.6306 8.97258 23.7273 8.93555 23.801 8.86158Z" fill="white" fill-opacity="0.5"/>
<path d="M24.875 6.64197C25.0421 6.47439 25.3125 6.47438 25.4795 6.64197C25.6464 6.80947 25.6464 7.08098 25.4795 7.24841L23.8359 8.89685C23.7526 8.98038 23.6434 9.02277 23.5342 9.02283C23.4248 9.02283 23.315 8.98059 23.2314 8.89685C23.0645 8.72935 23.0645 8.45789 23.2314 8.29041L24.875 6.64197Z" stroke="white" stroke-opacity="0.5" stroke-width="0.1"/>
<path d="M19.6221 17.1525V19.4845C19.6221 19.6938 19.7912 19.8634 19.9997 19.8634C20.2084 19.8634 20.3774 19.6937 20.3774 19.4845V17.1525C20.3774 16.9432 20.2083 16.7736 19.9997 16.7736C19.7911 16.7736 19.6221 16.9432 19.6221 17.1525Z" fill="white" fill-opacity="0.5"/>
<path d="M20 16.7238C20.2362 16.7239 20.4277 16.9158 20.4277 17.1525V19.4845C20.4277 19.7211 20.2363 19.9131 20 19.9132C19.7637 19.9132 19.5723 19.7212 19.5723 19.4845V17.1525C19.5723 16.9158 19.7636 16.7238 20 16.7238Z" stroke="white" stroke-opacity="0.5" stroke-width="0.1"/>
<path d="M20.3774 7.12511V4.79312C20.3774 4.58383 20.2083 4.41418 19.9997 4.41418C19.7911 4.41418 19.6221 4.58387 19.6221 4.79312V7.12511C19.6221 7.3344 19.7912 7.50404 19.9997 7.50404C20.2084 7.50409 20.3774 7.3344 20.3774 7.12511Z" fill="white" fill-opacity="0.5"/>
<path d="M20 4.36438C20.2362 4.36452 20.4277 4.55644 20.4277 4.79309V7.12512C20.4277 7.36177 20.2363 7.55374 20 7.55383C19.7637 7.55383 19.5723 7.36187 19.5723 7.12512V4.79309C19.5723 4.5564 19.7636 4.36438 20 4.36438Z" stroke="white" stroke-opacity="0.5" stroke-width="0.1"/>
<path d="M23.2659 15.9519L24.9094 17.6009C24.9832 17.6749 25.0798 17.7119 25.1765 17.7119C25.2731 17.7119 25.3698 17.6749 25.4435 17.6009C25.591 17.453 25.591 17.213 25.4435 17.065L23.8001 15.4161C23.6526 15.2681 23.4135 15.268 23.2659 15.4161C23.1184 15.564 23.1184 15.804 23.2659 15.9519Z" fill="white" fill-opacity="0.5"/>
<path d="M23.2305 15.3812C23.3976 15.2136 23.669 15.2136 23.8359 15.3812L25.4785 17.0297C25.6455 17.1972 25.6455 17.4687 25.4785 17.6361C25.3951 17.7197 25.286 17.762 25.1768 17.7621C25.0673 17.7621 24.9575 17.7199 24.874 17.6361L23.2305 15.9877C23.0636 15.8203 23.0637 15.5487 23.2305 15.3812Z" stroke="white" stroke-opacity="0.5" stroke-width="0.1"/>
<path d="M16.7326 8.32558L15.0891 6.67666C14.9416 6.52868 14.7024 6.52868 14.555 6.67666C14.4075 6.8246 14.4075 7.06455 14.555 7.21254L16.1984 8.86151C16.2721 8.93547 16.3689 8.97246 16.4655 8.97246C16.5622 8.97246 16.6588 8.93543 16.7326 8.86151C16.8801 8.71347 16.8801 8.47357 16.7326 8.32558Z" fill="white" fill-opacity="0.5"/>
<path d="M14.5195 6.64185C14.6866 6.47426 14.957 6.47426 15.124 6.64185L16.7676 8.29028C16.9345 8.45778 16.9345 8.72919 16.7676 8.89673C16.6842 8.98021 16.5751 9.02262 16.4658 9.02271C16.3564 9.02271 16.2466 8.98048 16.1631 8.89673L14.5195 7.24829C14.3527 7.08088 14.3528 6.80932 14.5195 6.64185Z" stroke="white" stroke-opacity="0.5" stroke-width="0.1"/>
<path d="M5.65625 31.2818V37.1H4.78125V32.0318H2.04261V37.1H1.16761V31.2818H5.65625ZM6.9304 38.7363V32.7363H7.75994V33.4437H7.83097C7.88021 33.3528 7.95123 33.2477 8.04403 33.1284C8.13684 33.0091 8.26563 32.9049 8.4304 32.8159C8.59517 32.725 8.81297 32.6795 9.08381 32.6795C9.43608 32.6795 9.75047 32.7685 10.027 32.9466C10.3035 33.1246 10.5204 33.3812 10.6776 33.7165C10.8366 34.0517 10.9162 34.4551 10.9162 34.9267C10.9162 35.3983 10.8376 35.8026 10.6804 36.1397C10.5232 36.475 10.3073 36.7335 10.0327 36.9153C9.75805 37.0952 9.4446 37.1852 9.09233 37.1852C8.82718 37.1852 8.61032 37.1407 8.44176 37.0517C8.27509 36.9627 8.14441 36.8585 8.04972 36.7392C7.95502 36.6199 7.8821 36.5138 7.83097 36.421H7.77983V38.7363H6.9304ZM7.76278 34.9182C7.76278 35.225 7.80729 35.4939 7.89631 35.725C7.98532 35.956 8.11411 36.1369 8.28267 36.2676C8.45123 36.3964 8.65767 36.4608 8.90199 36.4608C9.15578 36.4608 9.3679 36.3935 9.53835 36.2591C9.70881 36.1227 9.83759 35.938 9.92472 35.7051C10.0137 35.4721 10.0582 35.2098 10.0582 34.9182C10.0582 34.6303 10.0147 34.3718 9.92756 34.1426C9.84233 33.9134 9.71354 33.7326 9.54119 33.6C9.37074 33.4674 9.15767 33.4011 8.90199 33.4011C8.65578 33.4011 8.44744 33.4646 8.27699 33.5915C8.10843 33.7183 7.98059 33.8954 7.89347 34.1227C7.80634 34.35 7.76278 34.6151 7.76278 34.9182ZM13.706 37.188C13.2969 37.188 12.9399 37.0943 12.6349 36.9068C12.33 36.7193 12.0933 36.457 11.9247 36.1199C11.7562 35.7827 11.6719 35.3888 11.6719 34.938C11.6719 34.4854 11.7562 34.0896 11.9247 33.7505C12.0933 33.4115 12.33 33.1483 12.6349 32.9608C12.9399 32.7733 13.2969 32.6795 13.706 32.6795C14.1151 32.6795 14.4721 32.7733 14.777 32.9608C15.0819 33.1483 15.3187 33.4115 15.4872 33.7505C15.6558 34.0896 15.7401 34.4854 15.7401 34.938C15.7401 35.3888 15.6558 35.7827 15.4872 36.1199C15.3187 36.457 15.0819 36.7193 14.777 36.9068C14.4721 37.0943 14.1151 37.188 13.706 37.188ZM13.7088 36.475C13.974 36.475 14.1937 36.4049 14.3679 36.2647C14.5421 36.1246 14.6709 35.938 14.7543 35.7051C14.8395 35.4721 14.8821 35.2155 14.8821 34.9352C14.8821 34.6568 14.8395 34.4011 14.7543 34.1682C14.6709 33.9333 14.5421 33.7449 14.3679 33.6028C14.1937 33.4608 13.974 33.3897 13.7088 33.3897C13.4418 33.3897 13.2202 33.4608 13.044 33.6028C12.8698 33.7449 12.7401 33.9333 12.6548 34.1682C12.5715 34.4011 12.5298 34.6568 12.5298 34.9352C12.5298 35.2155 12.5715 35.4721 12.6548 35.7051C12.7401 35.938 12.8698 36.1246 13.044 36.2647C13.2202 36.4049 13.4418 36.475 13.7088 36.475ZM19.478 32.7363V33.4693H17.5263V37.1H16.6882V32.7363H19.478ZM23.3331 34.5517V35.2875H20.9695V34.5517H23.3331ZM21.2081 32.7363V37.1H20.3757V32.7363H21.2081ZM23.9268 32.7363V37.1H23.0973V32.7363H23.9268ZM26.9013 37.188C26.4922 37.188 26.1352 37.0943 25.8303 36.9068C25.5253 36.7193 25.2886 36.457 25.12 36.1199C24.9515 35.7827 24.8672 35.3888 24.8672 34.938C24.8672 34.4854 24.9515 34.0896 25.12 33.7505C25.2886 33.4115 25.5253 33.1483 25.8303 32.9608C26.1352 32.7733 26.4922 32.6795 26.9013 32.6795C27.3104 32.6795 27.6674 32.7733 27.9723 32.9608C28.2772 33.1483 28.514 33.4115 28.6825 33.7505C28.8511 34.0896 28.9354 34.4854 28.9354 34.938C28.9354 35.3888 28.8511 35.7827 28.6825 36.1199C28.514 36.457 28.2772 36.7193 27.9723 36.9068C27.6674 37.0943 27.3104 37.188 26.9013 37.188ZM26.9041 36.475C27.1693 36.475 27.389 36.4049 27.5632 36.2647C27.7375 36.1246 27.8662 35.938 27.9496 35.7051C28.0348 35.4721 28.0774 35.2155 28.0774 34.9352C28.0774 34.6568 28.0348 34.4011 27.9496 34.1682C27.8662 33.9333 27.7375 33.7449 27.5632 33.6028C27.389 33.4608 27.1693 33.3897 26.9041 33.3897C26.6371 33.3897 26.4155 33.4608 26.2393 33.6028C26.0651 33.7449 25.9354 33.9333 25.8501 34.1682C25.7668 34.4011 25.7251 34.6568 25.7251 34.9352C25.7251 35.2155 25.7668 35.4721 25.8501 35.7051C25.9354 35.938 26.0651 36.1246 26.2393 36.2647C26.4155 36.4049 26.6371 36.475 26.9041 36.475ZM29.625 35.9466H30.4943C30.5057 36.1246 30.5862 36.2619 30.7358 36.3585C30.8873 36.4551 31.0833 36.5034 31.3239 36.5034C31.5682 36.5034 31.7765 36.4513 31.9489 36.3471C32.1212 36.2411 32.2074 36.0772 32.2074 35.8557C32.2074 35.7231 32.1742 35.6076 32.108 35.5091C32.0436 35.4087 31.9517 35.331 31.8324 35.2761C31.715 35.2212 31.5758 35.1937 31.4148 35.1937H30.7045V34.5261H31.4148C31.6553 34.5261 31.8352 34.4712 31.9545 34.3613C32.0739 34.2515 32.1335 34.1142 32.1335 33.9494C32.1335 33.7714 32.0691 33.6284 31.9403 33.5204C31.8134 33.4106 31.6364 33.3557 31.4091 33.3557C31.178 33.3557 30.9858 33.4077 30.8324 33.5119C30.679 33.6142 30.5985 33.7468 30.5909 33.9096H29.733C29.7386 33.6653 29.8125 33.4513 29.9545 33.2676C30.0985 33.082 30.2917 32.938 30.5341 32.8358C30.7784 32.7316 31.0559 32.6795 31.3665 32.6795C31.6903 32.6795 31.9706 32.7316 32.2074 32.8358C32.4441 32.9399 32.6269 33.0839 32.7557 33.2676C32.8864 33.4513 32.9517 33.6625 32.9517 33.9011C32.9517 34.1416 32.8797 34.3386 32.7358 34.492C32.5938 34.6435 32.4081 34.7524 32.179 34.8187V34.8642C32.3475 34.8755 32.4972 34.9267 32.6278 35.0176C32.7585 35.1085 32.8608 35.2288 32.9347 35.3784C33.0085 35.528 33.0455 35.6975 33.0455 35.8869C33.0455 36.154 32.9716 36.385 32.8239 36.5801C32.678 36.7752 32.4754 36.9257 32.2159 37.0318C31.9583 37.136 31.6638 37.188 31.3324 37.188C31.0104 37.188 30.7216 37.1379 30.4659 37.0375C30.2121 36.9352 30.0104 36.7913 29.8608 36.6057C29.7131 36.4201 29.6345 36.2004 29.625 35.9466ZM34.5618 34.2363H35.8288C36.3629 34.2363 36.7739 34.3689 37.0618 34.6341C37.3497 34.8992 37.4936 35.2411 37.4936 35.6596C37.4936 35.9324 37.4292 36.1776 37.3004 36.3954C37.1716 36.6132 36.9832 36.7856 36.7351 36.9125C36.487 37.0375 36.1849 37.1 35.8288 37.1H33.9226V32.7363H34.755V36.367H35.8288C36.0732 36.367 36.2739 36.3036 36.4311 36.1767C36.5883 36.0479 36.6669 35.8841 36.6669 35.6852C36.6669 35.475 36.5883 35.3036 36.4311 35.171C36.2739 35.0365 36.0732 34.9693 35.8288 34.9693H34.5618V34.2363ZM38.1129 37.1V32.7363H38.9624V37.1H38.1129Z" fill="white" fill-opacity="0.5"/>
</svg>
