<svg width="33" height="33" viewBox="0 0 33 33" fill="none" xmlns="http://www.w3.org/2000/svg">
<path d="M16.0468 0.0999756C7.25373 0.0999756 0.100098 7.27754 0.100098 16.1C0.100098 24.9224 7.25373 32.1 16.0468 32.1C24.8398 32.1 31.9934 24.9224 31.9934 16.1C31.9934 7.27754 24.8398 0.0999756 16.0468 0.0999756ZM16.0468 31.0895C7.80906 31.0895 1.10723 24.3652 1.10723 16.1C1.10723 7.83473 7.80906 1.11048 16.0468 1.11048C24.2844 1.11048 30.9863 7.83473 30.9863 16.1C30.9863 24.3652 24.2844 31.0895 16.0468 31.0895Z" fill="white" fill-opacity="0.5"/>
<path d="M16.0464 0.0501709C24.8672 0.0501709 32.0435 7.25008 32.0435 16.1C32.0435 24.9499 24.8672 32.1498 16.0464 32.1498C7.22576 32.1496 0.050293 24.9497 0.050293 16.1C0.050293 7.25021 7.22576 0.0503759 16.0464 0.0501709ZM16.0464 1.16052C7.83663 1.16073 1.15771 7.86231 1.15771 16.1C1.15771 24.3376 7.83663 31.0392 16.0464 31.0394C24.2563 31.0394 30.936 24.3378 30.936 16.1C30.936 7.86218 24.2563 1.16052 16.0464 1.16052Z" stroke="white" stroke-opacity="0.5" stroke-width="0.1"/>
<path d="M16.0469 2.69067C8.67782 2.69067 2.68262 8.70592 2.68262 16.0996C2.68262 23.4933 8.67782 29.5085 16.0469 29.5085C18.5981 29.5085 21.0803 28.7814 23.2252 27.4059C25.3124 26.0673 26.9876 24.1815 28.0697 21.9523C28.1914 21.7014 28.0875 21.399 27.8375 21.2768C27.5874 21.1545 27.2861 21.2589 27.1642 21.5097C25.1035 25.7549 20.7397 28.498 16.0469 28.498C9.23315 28.498 3.68975 22.936 3.68975 16.0995C3.68975 9.26305 9.23315 3.70117 16.0469 3.70117C22.8606 3.70117 28.404 9.26299 28.404 16.0995C28.404 17.4549 28.1863 18.7881 27.7569 20.0622C27.6678 20.3266 27.8091 20.6133 28.0726 20.7027C28.3361 20.7922 28.6219 20.6502 28.7109 20.3859C29.1756 19.0074 29.4111 17.5653 29.4111 16.0996C29.4111 8.70586 23.416 2.69067 16.0469 2.69067Z" fill="white" fill-opacity="0.5"/>
<path d="M16.0469 2.64087C23.4437 2.64088 29.4609 8.67865 29.4609 16.0999C29.4609 17.5707 29.2251 19.0181 28.7588 20.4016C28.661 20.6919 28.3465 20.8485 28.0566 20.7502C27.767 20.652 27.6121 20.3365 27.71 20.0461C28.1375 18.7774 28.3535 17.4496 28.3535 16.0999C28.3535 9.29075 22.8328 3.75123 16.0469 3.75122C9.26093 3.75122 3.74023 9.29081 3.74023 16.0999C3.7404 22.9088 9.26104 28.4475 16.0469 28.4475C20.7204 28.4475 25.0667 25.7156 27.1191 21.4875C27.2531 21.2122 27.5845 21.0974 27.8594 21.2317C28.1343 21.366 28.2479 21.6983 28.1143 21.9739C27.0281 24.2114 25.3468 26.104 23.252 27.4475C21.099 28.8282 18.6076 29.5588 16.0469 29.5588C8.65014 29.5588 2.63294 23.5209 2.63281 16.0999C2.63281 8.67871 8.65006 2.64087 16.0469 2.64087Z" stroke="white" stroke-opacity="0.5" stroke-width="0.1"/>
<path d="M20.0606 17.8812C20.1426 17.6949 20.1051 17.4774 19.9655 17.3296C19.8259 17.1819 19.6115 17.1325 19.4216 17.2045C19.1259 17.3169 18.815 17.3739 18.4976 17.3739C17.0571 17.3739 15.8852 16.198 15.8852 14.7527C15.8852 13.9892 16.217 13.2649 16.7955 12.7655C16.9493 12.6327 17.0086 12.4202 16.946 12.2266C16.8834 12.0329 16.7111 11.8959 16.5088 11.879C16.3795 11.8682 16.2621 11.8629 16.1499 11.8629C13.7933 11.8629 11.876 13.7866 11.876 16.1512C11.876 18.5157 13.7933 20.4394 16.1499 20.4394C17.8416 20.4395 19.3766 19.4354 20.0606 17.8812ZM16.1498 19.429C14.3485 19.429 12.883 17.9587 12.883 16.1513C12.883 14.6237 13.93 13.3368 15.3418 12.975C15.0409 13.512 14.878 14.1227 14.8779 14.7529C14.8779 16.7553 16.5016 18.3845 18.4975 18.3845C18.5118 18.3845 18.5262 18.3844 18.5406 18.3842C17.9328 19.0388 17.0717 19.429 16.1498 19.429Z" fill="white" fill-opacity="0.5"/>
<path d="M16.1504 11.8131C16.264 11.8131 16.3826 11.8179 16.5127 11.8287C16.7351 11.8474 16.9243 11.9988 16.9932 12.2115C17.0618 12.4242 16.9971 12.6574 16.8281 12.8033C16.2607 13.2932 15.9356 14.0036 15.9355 14.7526C15.9355 16.1704 17.0853 17.3239 18.498 17.3239C18.8092 17.3238 19.1144 17.268 19.4043 17.1578C19.613 17.0788 19.8486 17.1332 20.002 17.2955C20.1551 17.4579 20.1963 17.6965 20.1064 17.901C19.4146 19.4732 17.8618 20.4898 16.1504 20.4899C13.7659 20.4899 11.8262 18.543 11.8262 16.151C11.8263 13.7591 13.766 11.8131 16.1504 11.8131ZM15.2422 13.0563C13.9094 13.4505 12.9327 14.6878 12.9326 16.151C12.9326 17.9308 14.376 19.3793 16.1494 19.3795C17.0176 19.3795 17.8309 19.0269 18.4238 18.4323C16.4341 18.3928 14.8281 16.7578 14.8281 14.7526C14.8283 14.1547 14.9735 13.5746 15.2422 13.0563Z" stroke="white" stroke-opacity="0.5" stroke-width="0.1"/>
<path d="M9.88886 16.1519C9.88886 15.8728 9.66336 15.6466 9.38529 15.6466H6.28628C6.00815 15.6466 5.78271 15.8729 5.78271 16.1519C5.78271 16.4309 6.00821 16.6571 6.28628 16.6571H9.38523C9.66336 16.6571 9.88886 16.4309 9.88886 16.1519Z" fill="white" fill-opacity="0.5"/>
<path d="M9.38525 15.5968C9.69097 15.5968 9.93877 15.8451 9.93896 16.1515C9.93896 16.458 9.69114 16.7071 9.38525 16.7072H6.28662C5.98078 16.7072 5.73291 16.458 5.73291 16.1515C5.73311 15.8452 5.98084 15.5968 6.28662 15.5968H9.38525Z" stroke="white" stroke-opacity="0.5" stroke-width="0.1"/>
<path d="M26.3112 16.1519C26.3112 15.8728 26.0858 15.6466 25.8076 15.6466H22.7086C22.4304 15.6466 22.2051 15.8729 22.2051 16.1519C22.2051 16.4309 22.4304 16.6571 22.7086 16.6571H25.8077C26.0857 16.6571 26.3112 16.4309 26.3112 16.1519Z" fill="white" fill-opacity="0.5"/>
<path d="M25.8076 15.5968C26.1135 15.5968 26.3611 15.8452 26.3613 16.1515C26.3614 16.458 26.1135 16.7072 25.8076 16.7072H22.709C22.403 16.7072 22.1553 16.458 22.1553 16.1515C22.1555 15.8452 22.4031 15.5968 22.709 15.5968H25.8076Z" stroke="white" stroke-opacity="0.5" stroke-width="0.1"/>
<path d="M9.14027 23.5826C9.26909 23.5826 9.39803 23.5333 9.49633 23.4346L11.6876 21.236C11.8843 21.0388 11.8843 20.7188 11.6876 20.5215C11.491 20.3242 11.1722 20.3242 10.9755 20.5215L8.78421 22.7201C8.58756 22.9175 8.58756 23.2373 8.78421 23.4346C8.88251 23.5333 9.01145 23.5826 9.14027 23.5826Z" fill="white" fill-opacity="0.5"/>
<path d="M10.9404 20.4858C11.1565 20.2694 11.5066 20.2694 11.7227 20.4858C11.9388 20.7027 11.9388 21.0542 11.7227 21.271L9.53223 23.4702C9.42427 23.5786 9.28209 23.6322 9.14062 23.6323C8.99916 23.6323 8.85704 23.5785 8.74902 23.4702C8.53292 23.2534 8.53292 22.9019 8.74902 22.6851L10.9404 20.4858Z" stroke="white" stroke-opacity="0.5" stroke-width="0.1"/>
<path d="M21.115 11.7821L23.3063 9.58355C23.5029 9.3863 23.5029 9.06637 23.3063 8.86905C23.1096 8.67174 22.7908 8.67174 22.5941 8.86905L20.4029 11.0676C20.2062 11.2649 20.2062 11.5849 20.4029 11.7822C20.5012 11.8808 20.6302 11.9301 20.759 11.9301C20.8878 11.9301 21.0167 11.8807 21.115 11.7821Z" fill="white" fill-opacity="0.5"/>
<path d="M22.5591 8.83337C22.7752 8.61698 23.1252 8.61697 23.3413 8.83337C23.5574 9.0502 23.5574 9.40176 23.3413 9.61853L21.1509 11.8177C21.0429 11.9261 20.9008 11.9798 20.7593 11.9799C20.6178 11.9799 20.4757 11.926 20.3677 11.8177C20.1516 11.6009 20.1516 11.2494 20.3677 11.0326L22.5591 8.83337Z" stroke="white" stroke-opacity="0.5" stroke-width="0.1"/>
<path d="M15.5415 22.8364V25.9457C15.5415 26.2248 15.767 26.451 16.0451 26.451C16.3233 26.451 16.5486 26.2247 16.5486 25.9457V22.8364C16.5486 22.5574 16.3232 22.3312 16.0451 22.3312C15.7669 22.3312 15.5415 22.5574 15.5415 22.8364Z" fill="white" fill-opacity="0.5"/>
<path d="M16.0454 22.2814C16.351 22.2816 16.5989 22.5298 16.5991 22.8361V25.9454C16.5991 26.2518 16.3512 26.5009 16.0454 26.5011C15.7396 26.5011 15.4917 26.252 15.4917 25.9454V22.8361C15.4919 22.5298 15.7396 22.2814 16.0454 22.2814Z" stroke="white" stroke-opacity="0.5" stroke-width="0.1"/>
<path d="M16.5486 9.46722V6.35791C16.5486 6.07885 16.3232 5.85266 16.0451 5.85266C15.7669 5.85266 15.5415 6.07891 15.5415 6.35791V9.46722C15.5415 9.74629 15.767 9.97247 16.0451 9.97247C16.3233 9.97254 16.5486 9.74629 16.5486 9.46722Z" fill="white" fill-opacity="0.5"/>
<path d="M16.0454 5.80286C16.351 5.80304 16.5989 6.05131 16.5991 6.35754V9.46692C16.5991 9.77331 16.3512 10.0225 16.0454 10.0226C15.7396 10.0226 15.4917 9.77344 15.4917 9.46692V6.35754C15.4919 6.05126 15.7396 5.80286 16.0454 5.80286Z" stroke="white" stroke-opacity="0.5" stroke-width="0.1"/>
<path d="M20.4019 21.2359L22.5932 23.4345C22.6916 23.5332 22.8205 23.5825 22.9494 23.5825C23.0782 23.5825 23.2071 23.5332 23.3054 23.4345C23.5021 23.2373 23.5021 22.9174 23.3054 22.72L21.1141 20.5214C20.9175 20.3241 20.5987 20.324 20.4019 20.5214C20.2052 20.7187 20.2052 21.0386 20.4019 21.2359Z" fill="white" fill-opacity="0.5"/>
<path d="M20.3667 20.4857C20.583 20.269 20.9339 20.2689 21.1499 20.4857L23.3413 22.6849C23.557 22.9017 23.5562 23.2525 23.3403 23.4691C23.2324 23.5775 23.0912 23.6321 22.9497 23.6322C22.8082 23.6322 22.6662 23.5784 22.5581 23.4701L20.3667 21.2709C20.1506 21.054 20.1505 20.7025 20.3667 20.4857Z" stroke="white" stroke-opacity="0.5" stroke-width="0.1"/>
<path d="M11.6877 11.0675L9.49639 8.86893C9.29974 8.67162 8.98086 8.67162 8.78421 8.86893C8.58756 9.06618 8.58756 9.38612 8.78421 9.58343L10.9755 11.7821C11.0738 11.8807 11.2027 11.93 11.3316 11.93C11.4605 11.93 11.5893 11.8806 11.6877 11.7821C11.8843 11.5847 11.8843 11.2648 11.6877 11.0675Z" fill="white" fill-opacity="0.5"/>
<path d="M8.74902 8.83325C8.96524 8.61664 9.31613 8.61644 9.53223 8.83325L11.7227 11.0325C11.9388 11.2493 11.9387 11.6007 11.7227 11.8176C11.6147 11.9256 11.4735 11.9796 11.332 11.9797C11.1906 11.9797 11.0484 11.9258 10.9404 11.8176L8.74902 9.61841C8.53297 9.40158 8.53293 9.05 8.74902 8.83325Z" stroke="white" stroke-opacity="0.5" stroke-width="0.1"/>
</svg>
