<svg width="24" height="26" viewBox="0 0 24 26" fill="none" xmlns="http://www.w3.org/2000/svg">
<path d="M11.8848 16.1821C13.8632 16.1821 15.4669 14.5784 15.4669 12.6C15.4669 10.6217 13.8632 9.01794 11.8848 9.01794C9.90649 9.01794 8.30273 10.6217 8.30273 12.6C8.30273 14.5784 9.90649 16.1821 11.8848 16.1821Z" stroke="white" stroke-opacity="0.5" stroke-width="1.2"/>
<path d="M13.9965 0.782664C13.5566 0.599976 12.999 0.599976 11.8837 0.599976C10.7684 0.599976 10.2108 0.599976 9.77088 0.782664C9.18441 1.02625 8.71845 1.49347 8.47551 2.08153C8.36461 2.34998 8.32121 2.66218 8.30422 3.11756C8.27927 3.78679 7.93699 4.40624 7.35856 4.74109C6.78015 5.07593 6.07398 5.06342 5.48349 4.75049C5.08168 4.53754 4.79033 4.41912 4.50302 4.3812C3.87363 4.29811 3.2371 4.46912 2.73347 4.85662C2.35574 5.14723 2.07692 5.63146 1.51929 6.59989C0.96166 7.56834 0.682844 8.05255 0.620694 8.52587C0.537841 9.15694 0.708395 9.79517 1.09485 10.3002C1.27123 10.5307 1.51914 10.7244 1.90389 10.9668C2.46951 11.3232 2.83344 11.9303 2.8334 12.6C2.83337 13.2697 2.46945 13.8767 1.90388 14.2329C1.51908 14.4755 1.27114 14.6693 1.09473 14.8998C0.708275 15.4047 0.537721 16.0429 0.620587 16.674C0.682724 17.1473 0.96154 17.6316 1.51917 18.6C2.07682 19.5684 2.35563 20.0527 2.73335 20.3432C3.23698 20.7307 3.87351 20.9017 4.5029 20.8187C4.79019 20.7807 5.08152 20.6623 5.48331 20.4494C6.07384 20.1365 6.78005 20.124 7.35851 20.4588C7.93697 20.7937 8.27927 21.4131 8.30422 22.0825C8.32122 22.5378 8.36461 22.85 8.47551 23.1185C8.71845 23.7065 9.18441 24.1737 9.77088 24.4173C10.2108 24.6 10.7684 24.6 11.8837 24.6C12.999 24.6 13.5566 24.6 13.9965 24.4173C14.5829 24.1737 15.049 23.7065 15.2918 23.1185C15.4027 22.85 15.4462 22.5378 15.4632 22.0824C15.4881 21.4131 15.8303 20.7937 16.4087 20.4588C16.9872 20.1239 17.6934 20.1365 18.284 20.4494C18.6858 20.6623 18.9771 20.7806 19.2643 20.8185C19.8937 20.9017 20.5303 20.7307 21.0339 20.3432C21.4116 20.0526 21.6904 19.5684 22.248 18.5999C22.8057 17.6315 23.0846 17.1473 23.1467 16.674C23.2295 16.0429 23.0589 15.4046 22.6725 14.8997C22.4961 14.6691 22.2481 14.4753 21.8634 14.2329C21.2979 13.8767 20.9339 13.2696 20.9339 12.5999C20.9339 11.9301 21.2979 11.3233 21.8634 10.967C22.2482 10.7245 22.4962 10.5308 22.6726 10.3002C23.0591 9.79525 23.2296 9.15702 23.1468 8.52594C23.0847 8.05264 22.8058 7.56841 22.2481 6.59998C21.6905 5.63154 21.4117 5.14732 21.034 4.8567C20.5304 4.46921 19.8938 4.2982 19.2644 4.38128C18.9772 4.4192 18.6859 4.53761 18.284 4.75054C17.6935 5.06348 16.9873 5.076 16.4089 4.74113C15.8303 4.40627 15.4881 3.78677 15.4632 3.1175C15.4462 2.66215 15.4027 2.34997 15.2918 2.08153C15.049 1.49347 14.5829 1.02625 13.9965 0.782664Z" stroke="white" stroke-opacity="0.5" stroke-width="1.2"/>
</svg>
