<svg width="44" height="40" viewBox="0 0 44 40" fill="none" xmlns="http://www.w3.org/2000/svg">
<path d="M22.001 16.1821C23.9794 16.1821 25.5831 14.5784 25.5831 12.6C25.5831 10.6217 23.9794 9.01794 22.001 9.01794C20.0227 9.01794 18.4189 10.6217 18.4189 12.6C18.4189 14.5784 20.0227 16.1821 22.001 16.1821Z" stroke="white" stroke-opacity="0.5" stroke-width="1.2"/>
<path d="M24.1127 0.782664C23.6728 0.599976 23.1152 0.599976 21.9999 0.599976C20.8846 0.599976 20.327 0.599976 19.8871 0.782664C19.3006 1.02625 18.8347 1.49347 18.5917 2.08153C18.4808 2.34998 18.4374 2.66218 18.4204 3.11756C18.3955 3.78679 18.0532 4.40624 17.4748 4.74109C16.8964 5.07593 16.1902 5.06342 15.5997 4.75049C15.1979 4.53754 14.9065 4.41912 14.6192 4.3812C13.9898 4.29811 13.3533 4.46912 12.8497 4.85662C12.472 5.14723 12.1931 5.63146 11.6355 6.59989C11.0779 7.56834 10.7991 8.05255 10.7369 8.52587C10.6541 9.15694 10.8246 9.79517 11.2111 10.3002C11.3874 10.5307 11.6353 10.7244 12.0201 10.9668C12.5857 11.3232 12.9496 11.9303 12.9496 12.6C12.9496 13.2697 12.5857 13.8767 12.0201 14.2329C11.6353 14.4755 11.3873 14.6693 11.2109 14.8998C10.8245 15.4047 10.6539 16.0429 10.7368 16.674C10.7989 17.1473 11.0778 17.6316 11.6354 18.6C12.193 19.5684 12.4718 20.0527 12.8496 20.3432C13.3532 20.7307 13.9897 20.9017 14.6191 20.8187C14.9064 20.7807 15.1977 20.6623 15.5995 20.4494C16.1901 20.1365 16.8963 20.124 17.4747 20.4588C18.0532 20.7937 18.3955 21.4131 18.4204 22.0825C18.4374 22.5378 18.4808 22.85 18.5917 23.1185C18.8347 23.7065 19.3006 24.1737 19.8871 24.4173C20.327 24.6 20.8846 24.6 21.9999 24.6C23.1152 24.6 23.6728 24.6 24.1127 24.4173C24.6991 24.1737 25.1652 23.7065 25.408 23.1185C25.5189 22.85 25.5624 22.5378 25.5794 22.0824C25.6043 21.4131 25.9466 20.7937 26.525 20.4588C27.1034 20.1239 27.8096 20.1365 28.4002 20.4494C28.802 20.6623 29.0933 20.7806 29.3805 20.8185C30.0099 20.9017 30.6465 20.7307 31.1501 20.3432C31.5278 20.0526 31.8066 19.5684 32.3642 18.5999C32.9219 17.6315 33.2008 17.1473 33.2629 16.674C33.3457 16.0429 33.1752 15.4046 32.7887 14.8997C32.6123 14.6691 32.3643 14.4753 31.9796 14.2329C31.4141 13.8767 31.0501 13.2696 31.0501 12.5999C31.0501 11.9301 31.4141 11.3233 31.9796 10.967C32.3645 10.7245 32.6124 10.5308 32.7888 10.3002C33.1753 9.79525 33.3458 9.15702 33.263 8.52594C33.2009 8.05264 32.922 7.56841 32.3643 6.59998C31.8068 5.63154 31.5279 5.14732 31.1502 4.8567C30.6466 4.46921 30.01 4.2982 29.3806 4.38128C29.0934 4.4192 28.8021 4.53761 28.4002 4.75054C27.8097 5.06348 27.1035 5.076 26.5251 4.74113C25.9466 4.40627 25.6043 3.78677 25.5794 3.1175C25.5624 2.66215 25.5189 2.34997 25.408 2.08153C25.1652 1.49347 24.6991 1.02625 24.1127 0.782664Z" stroke="white" stroke-opacity="0.5" stroke-width="1.2"/>
<path d="M1.09233 37.6V31.7818H1.97017V34.3102H4.87074V31.7818H5.75142V37.6H4.87074V35.063H1.97017V37.6H1.09233ZM8.23153 37.6966C7.95502 37.6966 7.70502 37.6454 7.48153 37.5432C7.25805 37.439 7.08097 37.2884 6.95028 37.0915C6.8215 36.8945 6.7571 36.653 6.7571 36.367C6.7571 36.1208 6.80445 35.9182 6.89915 35.7591C6.99384 35.6 7.12169 35.474 7.28267 35.3812C7.44366 35.2884 7.62358 35.2183 7.82244 35.171C8.02131 35.1236 8.22396 35.0877 8.4304 35.063C8.69176 35.0327 8.90388 35.0081 9.06676 34.9892C9.22964 34.9683 9.34801 34.9352 9.42188 34.8897C9.49574 34.8443 9.53267 34.7704 9.53267 34.6682V34.6483C9.53267 34.4002 9.46259 34.2079 9.32244 34.0716C9.18419 33.9352 8.97775 33.867 8.70312 33.867C8.41714 33.867 8.19176 33.9305 8.02699 34.0574C7.86411 34.1824 7.75142 34.3216 7.68892 34.475L6.89062 34.2932C6.98532 34.028 7.12358 33.814 7.3054 33.6511C7.48911 33.4863 7.70028 33.367 7.93892 33.2932C8.17756 33.2174 8.4285 33.1795 8.69176 33.1795C8.866 33.1795 9.05066 33.2004 9.24574 33.242C9.44271 33.2818 9.62642 33.3557 9.79688 33.4636C9.96922 33.5716 10.1103 33.7259 10.2202 33.9267C10.33 34.1255 10.3849 34.3841 10.3849 34.7022V37.6H9.5554V37.0034H9.52131C9.46638 37.1132 9.384 37.2212 9.27415 37.3272C9.1643 37.4333 9.0232 37.5214 8.85085 37.5915C8.6785 37.6615 8.47206 37.6966 8.23153 37.6966ZM8.41619 37.0147C8.65104 37.0147 8.8518 36.9683 9.01847 36.8755C9.18703 36.7827 9.31487 36.6615 9.40199 36.5119C9.491 36.3604 9.53551 36.1985 9.53551 36.0261V35.4636C9.50521 35.4939 9.4465 35.5223 9.35938 35.5488C9.27415 35.5735 9.17661 35.5952 9.06676 35.6142C8.95691 35.6312 8.84991 35.6473 8.74574 35.6625C8.64157 35.6757 8.55445 35.6871 8.48438 35.6966C8.3196 35.7174 8.16903 35.7524 8.03267 35.8017C7.8982 35.8509 7.79025 35.9219 7.70881 36.0147C7.62926 36.1057 7.58949 36.2269 7.58949 36.3784C7.58949 36.5886 7.66714 36.7477 7.82244 36.8557C7.97775 36.9617 8.17566 37.0147 8.41619 37.0147ZM13.3544 37.688C12.9321 37.688 12.5684 37.5924 12.2635 37.4011C11.9605 37.2079 11.7275 36.9418 11.5646 36.6028C11.4018 36.2638 11.3203 35.8755 11.3203 35.438C11.3203 34.9949 11.4036 34.6038 11.5703 34.2647C11.737 33.9238 11.9718 33.6577 12.2749 33.4665C12.5779 33.2752 12.9349 33.1795 13.3459 33.1795C13.6773 33.1795 13.9728 33.2411 14.2322 33.3642C14.4917 33.4854 14.701 33.6558 14.8601 33.8755C15.0211 34.0952 15.1167 34.3519 15.147 34.6454H14.3203C14.2749 34.4409 14.1707 34.2647 14.0078 34.117C13.8468 33.9693 13.6309 33.8954 13.3601 33.8954C13.1233 33.8954 12.916 33.9579 12.7379 34.0829C12.5618 34.206 12.4245 34.3822 12.326 34.6113C12.2275 34.8386 12.1783 35.1076 12.1783 35.4182C12.1783 35.7363 12.2266 36.011 12.3232 36.242C12.4197 36.4731 12.5561 36.6521 12.7322 36.779C12.9103 36.9058 13.1196 36.9693 13.3601 36.9693C13.5211 36.9693 13.6669 36.9399 13.7976 36.8812C13.9302 36.8206 14.041 36.7344 14.13 36.6227C14.2209 36.511 14.2843 36.3765 14.3203 36.2193H15.147C15.1167 36.5015 15.0249 36.7534 14.8714 36.975C14.718 37.1966 14.5125 37.3708 14.255 37.4977C13.9993 37.6246 13.6991 37.688 13.3544 37.688ZM15.7251 33.9693V33.2363H19.407V33.9693H17.9837V37.6H17.1541V33.9693H15.7251ZM20.3054 39.2363V33.2363H21.1349V33.9437H21.206C21.2552 33.8528 21.3262 33.7477 21.419 33.6284C21.5118 33.5091 21.6406 33.4049 21.8054 33.3159C21.9702 33.225 22.188 33.1795 22.4588 33.1795C22.8111 33.1795 23.1255 33.2685 23.402 33.4466C23.6785 33.6246 23.8954 33.8812 24.0526 34.2165C24.2116 34.5517 24.2912 34.9551 24.2912 35.4267C24.2912 35.8983 24.2126 36.3026 24.0554 36.6397C23.8982 36.975 23.6823 37.2335 23.4077 37.4153C23.133 37.5952 22.8196 37.6852 22.4673 37.6852C22.2022 37.6852 21.9853 37.6407 21.8168 37.5517C21.6501 37.4627 21.5194 37.3585 21.4247 37.2392C21.33 37.1199 21.2571 37.0138 21.206 36.921H21.1548V39.2363H20.3054ZM21.1378 35.4182C21.1378 35.725 21.1823 35.9939 21.2713 36.225C21.3603 36.456 21.4891 36.6369 21.6577 36.7676C21.8262 36.8964 22.0327 36.9608 22.277 36.9608C22.5308 36.9608 22.7429 36.8935 22.9134 36.7591C23.0838 36.6227 23.2126 36.438 23.2997 36.2051C23.3887 35.9721 23.4332 35.7098 23.4332 35.4182C23.4332 35.1303 23.3897 34.8718 23.3026 34.6426C23.2173 34.4134 23.0885 34.2326 22.9162 34.1C22.7457 33.9674 22.5327 33.9011 22.277 33.9011C22.0308 33.9011 21.8224 33.9646 21.652 34.0915C21.4834 34.2183 21.3556 34.3954 21.2685 34.6227C21.1813 34.85 21.1378 35.1151 21.1378 35.4182ZM27.081 37.688C26.6719 37.688 26.3149 37.5943 26.0099 37.4068C25.705 37.2193 25.4683 36.957 25.2997 36.6199C25.1312 36.2827 25.0469 35.8888 25.0469 35.438C25.0469 34.9854 25.1312 34.5896 25.2997 34.2505C25.4683 33.9115 25.705 33.6483 26.0099 33.4608C26.3149 33.2733 26.6719 33.1795 27.081 33.1795C27.4901 33.1795 27.8471 33.2733 28.152 33.4608C28.4569 33.6483 28.6937 33.9115 28.8622 34.2505C29.0308 34.5896 29.1151 34.9854 29.1151 35.438C29.1151 35.8888 29.0308 36.2827 28.8622 36.6199C28.6937 36.957 28.4569 37.2193 28.152 37.4068C27.8471 37.5943 27.4901 37.688 27.081 37.688ZM27.0838 36.975C27.349 36.975 27.5687 36.9049 27.7429 36.7647C27.9171 36.6246 28.0459 36.438 28.1293 36.2051C28.2145 35.9721 28.2571 35.7155 28.2571 35.4352C28.2571 35.1568 28.2145 34.9011 28.1293 34.6682C28.0459 34.4333 27.9171 34.2449 27.7429 34.1028C27.5687 33.9608 27.349 33.8897 27.0838 33.8897C26.8168 33.8897 26.5952 33.9608 26.419 34.1028C26.2448 34.2449 26.1151 34.4333 26.0298 34.6682C25.9465 34.9011 25.9048 35.1568 25.9048 35.4352C25.9048 35.7155 25.9465 35.9721 26.0298 36.2051C26.1151 36.438 26.2448 36.6246 26.419 36.7647C26.5952 36.9049 26.8168 36.975 27.0838 36.975ZM30.8956 36.4096L32.8189 33.2363H33.7337V37.6H32.9013V34.4238L30.9865 37.6H30.0632V33.2363H30.8956V36.4096ZM32.4553 31.7591H33.1541C33.1541 32.0791 33.0405 32.3396 32.8132 32.5403C32.5878 32.7392 32.2829 32.8386 31.8984 32.8386C31.5159 32.8386 31.2119 32.7392 30.9865 32.5403C30.7611 32.3396 30.6484 32.0791 30.6484 31.7591H31.3445C31.3445 31.9011 31.3861 32.0271 31.4695 32.1369C31.5528 32.2449 31.6958 32.2988 31.8984 32.2988C32.0973 32.2988 32.2393 32.2449 32.3246 32.1369C32.4117 32.029 32.4553 31.903 32.4553 31.7591ZM34.8757 37.6V33.2363H35.7251V35.0659H36.1342L37.5746 33.2363H38.6257L36.9354 35.3585L38.6456 37.6H37.5916L36.2763 35.8557H35.7251V37.6H34.8757ZM40.1378 36.4096L42.0611 33.2363H42.9759V37.6H42.1435V34.4238L40.2287 37.6H39.3054V33.2363H40.1378V36.4096Z" fill="white" fill-opacity="0.5"/>
</svg>
