<svg width="30" height="25" viewBox="0 0 30 25" fill="none" xmlns="http://www.w3.org/2000/svg">
<path d="M6.54032 11.3792L5.32073 11.202L4.77552 10.0973C4.66881 9.88065 4.45251 9.74609 4.21096 9.74609C3.96964 9.74609 3.75339 9.88053 3.64651 10.097L3.10107 11.202L1.88188 11.3792C1.64628 11.4133 1.44661 11.5816 1.37324 11.8083C1.29912 12.0378 1.36036 12.2848 1.53281 12.4527L2.41524 13.313L2.2068 14.5279C2.16641 14.7651 2.26209 15.0006 2.45713 15.1431C2.56528 15.2217 2.69331 15.2633 2.82717 15.2633C2.92879 15.2633 3.02995 15.2384 3.12019 15.191L4.21096 14.6176L5.30189 15.1911C5.39167 15.2383 5.49289 15.2632 5.59457 15.2632C5.72843 15.2632 5.85634 15.2217 5.96571 15.1424C6.15977 15.0006 6.25533 14.7653 6.215 14.5274L6.00661 13.3129L6.88875 12.4529C7.0619 12.2844 7.12308 12.037 7.04827 11.8072C6.97345 11.5777 6.7787 11.4137 6.54032 11.3792ZM5.18271 12.8178C5.07311 12.9246 5.02319 13.0785 5.04908 13.2293L5.19588 14.0852L4.42732 13.6812C4.35955 13.6456 4.28531 13.6278 4.21101 13.6278C4.13672 13.6278 4.06236 13.6456 3.99471 13.6812L3.22621 14.0852L3.37295 13.2293C3.39884 13.0785 3.34886 12.9246 3.23932 12.8178L2.61757 12.2117L3.47677 12.0868C3.62814 12.0648 3.759 11.9697 3.82676 11.8325L4.21107 11.0539L4.59532 11.8325C4.66309 11.9697 4.79389 12.0648 4.94526 12.0868L5.80452 12.2117L5.18271 12.8178Z" fill="white" fill-opacity="0.5"/>
<path d="M4.21143 9.69629C4.47183 9.69646 4.70574 9.84159 4.8208 10.0752L5.354 11.1553L6.54736 11.3301C6.80461 11.3672 7.01549 11.5445 7.09619 11.792C7.1767 12.0399 7.10998 12.3066 6.92334 12.4883L6.06006 13.3301L6.26416 14.5186C6.30762 14.775 6.2048 15.0296 5.99561 15.1826H5.99463C5.8768 15.2681 5.73861 15.3135 5.59424 15.3135C5.48462 15.3134 5.37564 15.2862 5.27881 15.2354L4.21045 14.6738L3.14307 15.2354C3.04587 15.2863 2.93708 15.3134 2.82764 15.3135C2.68322 15.3135 2.54395 15.2684 2.42725 15.1836C2.21705 15.03 2.11415 14.7754 2.15771 14.5195L2.36084 13.3301L1.49756 12.4883C1.31171 12.3071 1.24578 12.0404 1.32568 11.793C1.4049 11.5482 1.62016 11.367 1.87451 11.3301L3.06689 11.1553L3.60205 10.0752C3.71735 9.84173 3.95107 9.69629 4.21143 9.69629ZM3.87158 11.8545C3.79653 12.0065 3.65153 12.1123 3.48389 12.1367L2.72412 12.2461L3.27393 12.7822C3.39514 12.9004 3.45084 13.0705 3.42236 13.2373L3.29248 13.9932L3.97119 13.6367C4.04614 13.5973 4.12915 13.5781 4.21143 13.5781C4.29358 13.5782 4.37578 13.5974 4.45068 13.6367L5.12939 13.9932L4.99951 13.2373C4.97105 13.0704 5.02668 12.9004 5.14795 12.7822L5.69678 12.2461L4.93799 12.1367C4.77032 12.1123 4.62533 12.0064 4.55029 11.8545L4.21045 11.167L3.87158 11.8545Z" stroke="white" stroke-opacity="0.5" stroke-width="0.1"/>
<path d="M23.8459 19.3297C22.7965 19.3297 21.9429 20.1834 21.9429 21.2327C21.9429 22.282 22.7965 23.1356 23.8459 23.1356C24.8952 23.1356 25.7488 22.282 25.7488 21.2327C25.7488 20.1834 24.8951 19.3297 23.8459 19.3297ZM23.8459 22.2059C23.3092 22.2059 22.8725 21.7693 22.8725 21.2327C22.8725 20.6959 23.3092 20.2593 23.8459 20.2593C24.3825 20.2593 24.8191 20.6959 24.8191 21.2327C24.8191 21.7694 24.3825 22.2059 23.8459 22.2059Z" fill="white" fill-opacity="0.5"/>
<path d="M23.8462 19.2799C24.9229 19.2801 25.7983 20.1562 25.7983 21.233C25.7982 22.3097 24.9228 23.185 23.8462 23.1852C22.7693 23.1852 21.8932 22.3098 21.8931 21.233C21.8931 20.1561 22.7692 19.2799 23.8462 19.2799ZM23.8462 20.3092C23.3371 20.3092 22.9224 20.7239 22.9224 21.233C22.9226 21.7419 23.3372 22.1559 23.8462 22.1559C24.355 22.1557 24.7688 21.7418 24.769 21.233C24.769 20.724 24.3551 20.3094 23.8462 20.3092Z" stroke="white" stroke-opacity="0.5" stroke-width="0.1"/>
<path d="M22.8403 3.37036C23.3949 3.37036 23.8446 2.92071 23.8446 2.36603C23.8446 1.81135 23.3949 1.36169 22.8403 1.36169C22.2856 1.36169 21.8359 1.81135 21.8359 2.36603C21.8359 2.92071 22.2856 3.37036 22.8403 3.37036Z" fill="white" fill-opacity="0.5"/>
<path d="M22.8398 1.26208C23.4496 1.26208 23.9441 1.75589 23.9443 2.3656C23.9443 2.97551 23.4497 3.47009 22.8398 3.47009C22.2301 3.46986 21.7363 2.97536 21.7363 2.3656C21.7366 1.75603 22.2303 1.26232 22.8398 1.26208Z" stroke="white" stroke-opacity="0.5" stroke-width="0.2"/>
<path d="M26.8127 9.63721C25.9774 9.63721 25.2245 9.99645 24.7 10.5683L17.599 5.927C17.7563 5.57245 17.8443 5.18069 17.8443 4.76847C17.8443 3.18739 16.558 1.90106 14.9769 1.90106C13.7025 1.90106 12.6201 2.73698 12.248 3.88922L5.83405 2.92723C5.81244 1.36469 4.53519 0.0999756 2.96757 0.0999756C1.38642 0.0999756 0.100098 1.3863 0.100098 2.96733C0.100098 4.54847 1.38642 5.83479 2.96751 5.83479C4.24193 5.83479 5.32437 4.99887 5.69655 3.84664L12.1106 4.80857C12.1305 6.24476 13.2111 7.42842 14.603 7.61063L14.797 9.30594C14.8242 9.54304 15.0252 9.71798 15.2582 9.71798C15.2758 9.71798 15.2937 9.717 15.3116 9.71492C15.5666 9.68574 15.7497 9.45534 15.7206 9.20027L15.5352 7.58077C16.1446 7.45996 16.6851 7.14567 17.0896 6.70463L24.1906 11.346C24.0333 11.7006 23.9452 12.0925 23.9452 12.5047C23.9452 13.0491 24.0977 13.5586 24.3623 13.9926L18.4745 19.0394C18.0089 18.6473 17.4175 18.4 16.7701 18.3687L15.8951 10.7235C15.8659 10.4685 15.6345 10.2854 15.3804 10.3146C15.1254 10.3438 14.9423 10.5742 14.9714 10.8292L15.8465 18.4748C14.6452 18.8167 13.7625 19.9231 13.7625 21.2326C13.7625 22.8137 15.0489 24.1 16.6299 24.1C18.2111 24.1 19.4974 22.8137 19.4974 21.2326C19.4974 20.6882 19.3448 20.1787 19.0802 19.7446L24.968 14.6978C25.467 15.1181 26.1106 15.372 26.8125 15.372C28.3936 15.372 29.6799 14.0858 29.6799 12.5047C29.6801 10.9236 28.3938 9.63721 26.8127 9.63721ZM2.96751 4.90516C1.89899 4.90516 1.02973 4.03585 1.02973 2.96733C1.02973 1.89887 1.89893 1.02955 2.96751 1.02955C4.03608 1.02955 4.9054 1.89887 4.9054 2.96733C4.90534 4.0359 4.03608 4.90516 2.96751 4.90516ZM14.9769 6.70619C13.9085 6.70619 13.0392 5.83688 13.0392 4.76841C13.0392 3.69995 13.9084 2.83064 14.9769 2.83064C16.0454 2.83064 16.9147 3.69995 16.9147 4.76841C16.9147 5.83693 16.0454 6.70619 14.9769 6.70619ZM16.6301 23.1705C15.5615 23.1705 14.6922 22.3013 14.6922 21.2327C14.6922 20.1642 15.5615 19.2949 16.6301 19.2949C17.6985 19.2949 18.5679 20.1642 18.5679 21.2327C18.5678 22.3011 17.6986 23.1705 16.6301 23.1705ZM26.8127 14.4425C25.7442 14.4425 24.8748 13.5733 24.8748 12.5047C24.8748 11.4362 25.7442 10.5668 26.8127 10.5668C27.8812 10.5668 28.7505 11.4362 28.7505 12.5047C28.7505 13.5732 27.8812 14.4425 26.8127 14.4425Z" fill="white" fill-opacity="0.5"/>
<path d="M2.96729 0.0501709C4.54777 0.0501709 5.83656 1.31341 5.88135 2.88318L12.2144 3.83337C12.605 2.6822 13.6953 1.85095 14.9771 1.85095C16.5857 1.85102 17.894 3.16026 17.894 4.76892C17.894 5.17302 17.8099 5.55738 17.6606 5.90759L24.6929 10.5043C25.225 9.94061 25.9782 9.58728 26.813 9.58728C28.4214 9.58742 29.7299 10.8958 29.73 12.5043C29.73 14.1128 28.4215 15.422 26.813 15.4222C26.1137 15.4222 25.4722 15.1727 24.9692 14.7611L19.1431 19.7552C19.3991 20.189 19.5474 20.6938 19.5474 21.2328C19.5473 22.8413 18.2389 24.1495 16.6304 24.1498C15.0217 24.1498 13.7125 22.8414 13.7124 21.2328C13.7124 19.9155 14.5906 18.8011 15.7915 18.4398L14.9214 10.8353C14.8891 10.553 15.0922 10.2974 15.3745 10.265C15.656 10.2327 15.9125 10.4356 15.9448 10.7181L16.8149 18.3217C17.4418 18.361 18.0141 18.6005 18.4722 18.975L24.2983 13.9808C24.0429 13.5474 23.895 13.0427 23.895 12.5043C23.8951 12.1 23.979 11.715 24.1284 11.3646L17.0962 6.76794C16.698 7.18971 16.1769 7.49338 15.5894 7.61951L15.77 9.1947C15.8022 9.47716 15.5993 9.7327 15.3169 9.76501C15.2972 9.76728 15.2776 9.76794 15.2583 9.76794C15.0003 9.76794 14.7778 9.57437 14.7476 9.31189L14.5571 7.65271C13.1736 7.45216 12.103 6.2798 12.063 4.85095L5.72803 3.90173C5.3373 5.05292 4.24907 5.88513 2.96729 5.88513C1.35869 5.88501 0.050293 4.57585 0.050293 2.96716C0.0503822 1.35869 1.35871 0.050323 2.96729 0.0501709ZM16.6304 19.3451C15.5894 19.3451 14.7417 20.1919 14.7417 21.2328C14.7417 22.2737 15.5895 23.1205 16.6304 23.1205C17.6711 23.1203 18.518 22.2735 18.5181 21.2328C18.5181 20.192 17.6711 19.3453 16.6304 19.3451ZM26.813 10.6166C25.7722 10.6166 24.9255 11.4636 24.9253 12.5043C24.9253 13.5452 25.7721 14.3929 26.813 14.3929C27.8537 14.3928 28.7006 13.545 28.7007 12.5043C28.7004 11.4636 27.8536 10.6167 26.813 10.6166ZM14.9771 2.88025C13.9363 2.88025 13.0896 3.72731 13.0894 4.76794C13.0894 5.80879 13.9363 6.65662 14.9771 6.65662C16.0179 6.65655 16.8647 5.80881 16.8647 4.76794C16.8645 3.72735 16.0177 2.88032 14.9771 2.88025ZM2.96729 1.07947C1.92648 1.07959 1.07968 1.92646 1.07959 2.96716C1.07959 4.008 1.92648 4.85474 2.96729 4.85486C4.00825 4.85486 4.85492 4.00813 4.85498 2.96716C4.85489 1.92639 4.0082 1.07947 2.96729 1.07947Z" stroke="white" stroke-opacity="0.5" stroke-width="0.1"/>
</svg>
