<svg viewBox="0 0 22 22" xmlns="http://www.w3.org/2000/svg" xmlns:xlink="http://www.w3.org/1999/xlink" width="22.000000" height="22.000000" fill="none">
	<defs>
		<filter id="pixso_custom_mask_type_alpha">
			<feColorMatrix type="matrix" values="0 0 0 0 1 0 0 0 0 1 0 0 0 0 1 0 0 0 1 0 " />
		</filter>
	</defs>
	<mask id="mask_0" width="21.765331" height="21.535620" x="0.000000" y="0.000000" maskUnits="userSpaceOnUse">
		<g filter="url(#pixso_custom_mask_type_alpha)">
			<g id="mask0_234_284">
				<path id="Vector" d="M10.8827 21.5356C16.893 21.5356 21.7653 16.7147 21.7653 10.7678C21.7653 4.82091 16.893 0 10.8827 0C4.87234 0 0 4.82091 0 10.7678C0 16.7147 4.87234 21.5356 10.8827 21.5356Z" fill="rgb(220,220,220)" fill-rule="evenodd" />
			</g>
		</g>
	</mask>
	<rect id="луна" width="22.000000" height="22.000000" x="0.000000" y="0.000000" fill="rgb(255,255,255)" fill-opacity="0" />
	<path id="Vector" d="M0 10.7678C0 4.82091 4.87234 0 10.8827 0C16.893 0 21.7653 4.82091 21.7653 10.7678C21.7653 16.7147 16.893 21.5356 10.8827 21.5356C4.87234 21.5356 0 16.7147 0 10.7678Z" fill="rgb(220,220,220)" fill-rule="nonzero" />
	<g mask="url(#mask_0)">
		<g id="Group">
			<path id="Vector" d="M12.2029 11.8417C13.2074 11.8417 14.0216 11.036 14.0216 10.0422C14.0216 9.04839 13.2074 8.24274 12.2029 8.24274C11.1985 8.24274 10.3843 9.04839 10.3843 10.0422C10.3843 11.036 11.1985 11.8417 12.2029 11.8417Z" fill="rgb(204,203,203)" fill-rule="evenodd" />
			<path id="Vector" d="M17.3657 13.8153C18.2081 13.8153 18.891 13.1396 18.891 12.306C18.891 11.4725 18.2081 10.7968 17.3657 10.7968C16.5232 10.7968 15.8403 11.4725 15.8403 12.306C15.8403 13.1396 16.5232 13.8153 17.3657 13.8153Z" fill="rgb(196,196,196)" fill-rule="evenodd" />
			<path id="Vector" d="M17.6295 8.64906C18.3261 8.64906 18.8908 8.0903 18.8908 7.40104C18.8908 6.71177 18.3261 6.15302 17.6295 6.15302C16.9329 6.15302 16.3682 6.71177 16.3682 7.40104C16.3682 8.0903 16.9329 8.64906 17.6295 8.64906Z" fill="rgb(196,196,196)" fill-rule="evenodd" />
			<path id="Vector" d="M15.1656 17.124C15.8622 17.124 16.427 16.5652 16.427 15.876C16.427 15.1867 15.8622 14.6279 15.1656 14.6279C14.469 14.6279 13.9043 15.1867 13.9043 15.876C13.9043 16.5652 14.469 17.124 15.1656 17.124Z" fill="rgb(196,196,196)" fill-rule="evenodd" />
			<path id="Vector" d="M8.65338 11.4353C8.89638 11.4353 9.09338 11.2404 9.09338 11C9.09338 10.7596 8.89638 10.5646 8.65338 10.5646C8.41037 10.5646 8.21338 10.7596 8.21338 11C8.21338 11.2404 8.41037 11.4353 8.65338 11.4353Z" fill="rgb(196,196,196)" fill-rule="evenodd" />
			<path id="Vector" d="M9.29867 11.8417C9.44447 11.8417 9.56267 11.7248 9.56267 11.5805C9.56267 11.4362 9.44447 11.3193 9.29867 11.3193C9.15286 11.3193 9.03467 11.4362 9.03467 11.5805C9.03467 11.7248 9.15286 11.8417 9.29867 11.8417Z" fill="rgb(196,196,196)" fill-rule="evenodd" />
			<path id="Vector" d="M6.80531 8.76515C8.16614 8.76515 9.26931 7.67362 9.26931 6.32716C9.26931 4.98069 8.16614 3.88916 6.80531 3.88916C5.44448 3.88916 4.34131 4.98069 4.34131 6.32716C4.34131 7.67362 5.44448 8.76515 6.80531 8.76515Z" fill="rgb(196,196,196)" fill-rule="evenodd" />
			<path id="Vector" d="M3.54943 14.4538C5.12087 14.4538 6.39477 13.1934 6.39477 11.6385C6.39477 10.0837 5.12087 8.82324 3.54943 8.82324C1.978 8.82324 0.704102 10.0837 0.704102 11.6385C0.704102 13.1934 1.978 14.4538 3.54943 14.4538Z" fill="rgb(196,196,196)" fill-rule="evenodd" />
			<path id="Vector" d="M8.59473 13.525C9.03214 13.525 9.38673 13.1742 9.38673 12.7414C9.38673 12.3086 9.03214 11.9578 8.59473 11.9578C8.15732 11.9578 7.80273 12.3086 7.80273 12.7414C7.80273 13.1742 8.15732 13.525 8.59473 13.525Z" fill="rgb(196,196,196)" fill-rule="evenodd" />
			<path id="Vector" d="M8.0964 17.9367C8.84162 17.9367 9.44574 17.3389 9.44574 16.6016C9.44574 15.8642 8.84162 15.2665 8.0964 15.2665C7.35119 15.2665 6.74707 15.8642 6.74707 16.6016C6.74707 17.3389 7.35119 17.9367 8.0964 17.9367Z" fill="rgb(196,196,196)" fill-rule="evenodd" />
			<path id="Vector" d="M5.28044 15.9631C5.57205 15.9631 5.80844 15.7292 5.80844 15.4406C5.80844 15.1521 5.57205 14.9182 5.28044 14.9182C4.98883 14.9182 4.75244 15.1521 4.75244 15.4406C4.75244 15.7292 4.98883 15.9631 5.28044 15.9631Z" fill="rgb(196,196,196)" fill-rule="evenodd" />
			<path id="Vector" d="M5.04545 18.2269C5.49906 18.2269 5.86679 17.8631 5.86679 17.4142C5.86679 16.9654 5.49906 16.6016 5.04545 16.6016C4.59184 16.6016 4.22412 16.9654 4.22412 17.4142C4.22412 17.8631 4.59184 18.2269 5.04545 18.2269Z" fill="rgb(196,196,196)" fill-rule="evenodd" />
			<path id="Vector" d="M12.7017 3.42483C13.1716 3.42483 13.5524 3.048 13.5524 2.58314C13.5524 2.11829 13.1716 1.74146 12.7017 1.74146C12.2319 1.74146 11.8511 2.11829 11.8511 2.58314C11.8511 3.048 12.2319 3.42483 12.7017 3.42483Z" fill="rgb(196,196,196)" fill-rule="evenodd" />
			<path id="Vector" d="M12.9951 5.86277C13.2057 5.86277 13.3764 5.69384 13.3764 5.48546C13.3764 5.27708 13.2057 5.10815 12.9951 5.10815C12.7845 5.10815 12.6138 5.27708 12.6138 5.48546C12.6138 5.69384 12.7845 5.86277 12.9951 5.86277Z" fill="rgb(196,196,196)" fill-rule="evenodd" />
			<path id="Vector" d="M12.5253 14.5119C12.7035 14.5119 12.848 14.3689 12.848 14.1926C12.848 14.0163 12.7035 13.8734 12.5253 13.8734C12.3471 13.8734 12.2026 14.0163 12.2026 14.1926C12.2026 14.3689 12.3471 14.5119 12.5253 14.5119Z" fill="rgb(196,196,196)" fill-rule="evenodd" />
			<path id="Vector" d="M13.2002 23.7414C14.723 23.7414 15.9575 22.52 15.9575 21.0132C15.9575 19.5064 14.723 18.285 13.2002 18.285C11.6774 18.285 10.4429 19.5064 10.4429 21.0132C10.4429 22.52 11.6774 23.7414 13.2002 23.7414Z" fill="rgb(196,196,196)" fill-rule="evenodd" />
			<path id="Vector" d="M20.3574 25.0185C28.3603 25.0185 34.848 18.6512 34.848 10.7968C34.848 2.94244 28.3603 -3.4248 20.3574 -3.4248C12.3544 -3.4248 5.8667 2.94244 5.8667 10.7968C5.8667 18.6512 12.3544 25.0185 20.3574 25.0185Z" fill="rgb(83,93,116)" fill-opacity="0.699999988" fill-rule="evenodd" />
		</g>
	</g>
</svg>
